<svg width="1261" height="273" viewBox="0 0 1261 273" fill="none" xmlns="http://www.w3.org/2000/svg">
<path d="M289.612 14V2.36364H293.544C294.457 2.36364 295.203 2.52841 295.783 2.85795C296.366 3.18371 296.798 3.625 297.078 4.18182C297.358 4.73864 297.499 5.35985 297.499 6.04545C297.499 6.73106 297.358 7.35417 297.078 7.91477C296.802 8.47538 296.374 8.92235 295.794 9.25568C295.214 9.58523 294.472 9.75 293.567 9.75H290.749V8.5H293.521C294.146 8.5 294.648 8.39205 295.027 8.17614C295.406 7.96023 295.68 7.66856 295.851 7.30114C296.025 6.92992 296.112 6.51136 296.112 6.04545C296.112 5.57955 296.025 5.16288 295.851 4.79545C295.68 4.42803 295.404 4.14015 295.021 3.93182C294.639 3.7197 294.131 3.61364 293.499 3.61364H291.021V14H289.612ZM299.587 14V5.27273H300.928V14H299.587ZM300.268 3.81818C300.007 3.81818 299.782 3.72917 299.592 3.55114C299.407 3.37311 299.314 3.15909 299.314 2.90909C299.314 2.65909 299.407 2.44508 299.592 2.26705C299.782 2.08902 300.007 2 300.268 2C300.53 2 300.753 2.08902 300.939 2.26705C301.128 2.44508 301.223 2.65909 301.223 2.90909C301.223 3.15909 301.128 3.37311 300.939 3.55114C300.753 3.72917 300.53 3.81818 300.268 3.81818ZM306.929 14.1818C306.111 14.1818 305.406 13.9886 304.815 13.6023C304.224 13.2159 303.77 12.6837 303.452 12.0057C303.134 11.3277 302.974 10.553 302.974 9.68182C302.974 8.79545 303.137 8.01326 303.463 7.33523C303.793 6.65341 304.251 6.12121 304.838 5.73864C305.429 5.35227 306.118 5.15909 306.906 5.15909C307.52 5.15909 308.073 5.27273 308.565 5.5C309.058 5.72727 309.461 6.04545 309.776 6.45455C310.09 6.86364 310.285 7.34091 310.361 7.88636H309.02C308.918 7.48864 308.69 7.13636 308.338 6.82955C307.99 6.51894 307.52 6.36364 306.929 6.36364C306.406 6.36364 305.948 6.5 305.554 6.77273C305.164 7.04167 304.859 7.42235 304.639 7.91477C304.423 8.40341 304.315 8.97727 304.315 9.63636C304.315 10.3106 304.421 10.8977 304.634 11.3977C304.849 11.8977 305.152 12.286 305.543 12.5625C305.937 12.839 306.399 12.9773 306.929 12.9773C307.277 12.9773 307.594 12.9167 307.878 12.7955C308.162 12.6742 308.402 12.5 308.599 12.2727C308.796 12.0455 308.937 11.7727 309.02 11.4545H310.361C310.285 11.9697 310.098 12.4337 309.798 12.8466C309.503 13.2557 309.111 13.5814 308.622 13.8239C308.137 14.0625 307.573 14.1818 306.929 14.1818ZM313.571 10.8182L313.548 9.15909H313.821L317.639 5.27273H319.298L315.23 9.38636H315.116L313.571 10.8182ZM312.321 14V2.36364H313.662V14H312.321ZM317.866 14L314.457 9.68182L315.412 8.75L319.571 14H317.866Z" fill="#B9B9B9"/>
<path d="M994.138 2.36364V14H992.729V2.36364H994.138ZM998.123 8.75V14H996.782V5.27273H998.077V6.63636H998.191C998.396 6.19318 998.706 5.83712 999.123 5.56818C999.54 5.29545 1000.08 5.15909 1000.74 5.15909C1001.33 5.15909 1001.84 5.2803 1002.29 5.52273C1002.73 5.76136 1003.08 6.125 1003.32 6.61364C1003.57 7.09848 1003.69 7.71212 1003.69 8.45455V14H1002.35V8.54545C1002.35 7.85985 1002.17 7.32576 1001.82 6.94318C1001.46 6.55682 1000.97 6.36364 1000.35 6.36364C999.922 6.36364 999.54 6.45644 999.202 6.64205C998.869 6.82765 998.606 7.09848 998.413 7.45455C998.219 7.81061 998.123 8.24242 998.123 8.75ZM1012.97 5.27273L1009.74 14H1008.37L1005.15 5.27273H1006.6L1009.01 12.2273H1009.1L1011.51 5.27273H1012.97ZM1018.08 14.1818C1017.24 14.1818 1016.52 13.9962 1015.91 13.625C1015.3 13.25 1014.83 12.7273 1014.5 12.0568C1014.18 11.3826 1014.01 10.5985 1014.01 9.70455C1014.01 8.81061 1014.18 8.02273 1014.5 7.34091C1014.83 6.6553 1015.29 6.12121 1015.88 5.73864C1016.47 5.35227 1017.16 5.15909 1017.95 5.15909C1018.4 5.15909 1018.85 5.23485 1019.29 5.38636C1019.74 5.53788 1020.14 5.78409 1020.5 6.125C1020.87 6.46212 1021.16 6.90909 1021.37 7.46591C1021.59 8.02273 1021.7 8.70833 1021.7 9.52273V10.0909H1014.97V8.93182H1020.33C1020.33 8.43939 1020.23 8 1020.04 7.61364C1019.84 7.22727 1019.57 6.92235 1019.21 6.69886C1018.85 6.47538 1018.43 6.36364 1017.95 6.36364C1017.41 6.36364 1016.95 6.49621 1016.56 6.76136C1016.17 7.02273 1015.88 7.36364 1015.67 7.78409C1015.46 8.20455 1015.35 8.6553 1015.35 9.13636V9.90909C1015.35 10.5682 1015.47 11.1269 1015.7 11.5852C1015.93 12.0398 1016.25 12.3864 1016.66 12.625C1017.06 12.8598 1017.54 12.9773 1018.08 12.9773C1018.43 12.9773 1018.75 12.928 1019.04 12.8295C1019.32 12.7273 1019.57 12.5758 1019.78 12.375C1019.99 12.1705 1020.15 11.9167 1020.26 11.6136L1021.56 11.9773C1021.42 12.4167 1021.19 12.803 1020.87 13.1364C1020.55 13.4659 1020.15 13.7235 1019.68 13.9091C1019.2 14.0909 1018.67 14.1818 1018.08 14.1818ZM1029.92 7.22727L1028.71 7.56818C1028.64 7.36742 1028.52 7.17235 1028.38 6.98295C1028.23 6.78977 1028.04 6.63068 1027.79 6.50568C1027.54 6.38068 1027.22 6.31818 1026.83 6.31818C1026.29 6.31818 1025.85 6.44129 1025.49 6.6875C1025.14 6.92992 1024.96 7.23864 1024.96 7.61364C1024.96 7.94697 1025.08 8.21023 1025.33 8.40341C1025.57 8.59659 1025.95 8.75758 1026.46 8.88636L1027.76 9.20455C1028.54 9.39394 1029.12 9.68371 1029.5 10.0739C1029.88 10.4602 1030.08 10.9583 1030.08 11.5682C1030.08 12.0682 1029.93 12.5152 1029.64 12.9091C1029.36 13.303 1028.96 13.6136 1028.45 13.8409C1027.94 14.0682 1027.34 14.1818 1026.67 14.1818C1025.78 14.1818 1025.04 13.9886 1024.46 13.6023C1023.87 13.2159 1023.5 12.6515 1023.35 11.9091L1024.62 11.5909C1024.74 12.0606 1024.97 12.4129 1025.31 12.6477C1025.65 12.8826 1026.09 13 1026.64 13C1027.27 13 1027.77 12.8674 1028.13 12.6023C1028.5 12.3333 1028.69 12.0114 1028.69 11.6364C1028.69 11.3333 1028.58 11.0795 1028.37 10.875C1028.16 10.6667 1027.83 10.5114 1027.39 10.4091L1025.94 10.0682C1025.14 9.87879 1024.55 9.58523 1024.18 9.1875C1023.81 8.78598 1023.62 8.28409 1023.62 7.68182C1023.62 7.18939 1023.76 6.75379 1024.04 6.375C1024.32 5.99621 1024.7 5.69886 1025.18 5.48295C1025.66 5.26705 1026.21 5.15909 1026.83 5.15909C1027.69 5.15909 1028.37 5.34848 1028.86 5.72727C1029.36 6.10606 1029.71 6.60606 1029.92 7.22727ZM1035.89 5.27273V6.40909H1031.37V5.27273H1035.89ZM1032.69 3.18182H1034.03V11.5C1034.03 11.8788 1034.08 12.1629 1034.19 12.3523C1034.3 12.5379 1034.45 12.6629 1034.62 12.7273C1034.8 12.7879 1034.99 12.8182 1035.19 12.8182C1035.33 12.8182 1035.45 12.8106 1035.55 12.7955C1035.64 12.7765 1035.72 12.7614 1035.78 12.75L1036.05 13.9545C1035.96 13.9886 1035.83 14.0227 1035.67 14.0568C1035.51 14.0947 1035.3 14.1136 1035.05 14.1136C1034.67 14.1136 1034.3 14.0322 1033.94 13.8693C1033.58 13.7064 1033.28 13.4583 1033.04 13.125C1032.8 12.7917 1032.69 12.3712 1032.69 11.8636V3.18182Z" fill="#B9B9B9"/>
<path d="M466.179 3.61364V2.36364H474.906V3.61364H471.247V14H469.838V3.61364H466.179ZM478.28 14.2045C477.727 14.2045 477.225 14.1004 476.774 13.892C476.323 13.6799 475.965 13.375 475.7 12.9773C475.435 12.5758 475.303 12.0909 475.303 11.5227C475.303 11.0227 475.401 10.6174 475.598 10.3068C475.795 9.99242 476.058 9.74621 476.388 9.56818C476.717 9.39015 477.081 9.25758 477.479 9.17045C477.88 9.07955 478.284 9.00758 478.689 8.95455C479.219 8.88636 479.649 8.83523 479.979 8.80114C480.312 8.76326 480.554 8.70076 480.706 8.61364C480.861 8.52652 480.939 8.375 480.939 8.15909V8.11364C480.939 7.55303 480.786 7.11742 480.479 6.80682C480.176 6.49621 479.715 6.34091 479.098 6.34091C478.458 6.34091 477.956 6.48106 477.592 6.76136C477.229 7.04167 476.973 7.34091 476.825 7.65909L475.553 7.20455C475.78 6.67424 476.083 6.26136 476.462 5.96591C476.844 5.66667 477.261 5.45833 477.712 5.34091C478.166 5.2197 478.613 5.15909 479.053 5.15909C479.333 5.15909 479.655 5.19318 480.018 5.26136C480.386 5.32576 480.74 5.46023 481.081 5.66477C481.426 5.86932 481.712 6.17803 481.939 6.59091C482.166 7.00379 482.28 7.55682 482.28 8.25V14H480.939V12.8182H480.871C480.78 13.0076 480.628 13.2102 480.416 13.4261C480.204 13.642 479.922 13.8258 479.57 13.9773C479.217 14.1288 478.787 14.2045 478.28 14.2045ZM478.484 13C479.015 13 479.462 12.8958 479.825 12.6875C480.193 12.4792 480.469 12.2102 480.655 11.8807C480.844 11.5511 480.939 11.2045 480.939 10.8409V9.61364C480.882 9.68182 480.757 9.74432 480.564 9.80114C480.375 9.85417 480.155 9.90151 479.905 9.94318C479.659 9.98106 479.418 10.0152 479.183 10.0455C478.952 10.072 478.765 10.0947 478.621 10.1136C478.272 10.1591 477.946 10.233 477.643 10.3352C477.344 10.4337 477.102 10.5833 476.916 10.7841C476.734 10.9811 476.643 11.25 476.643 11.5909C476.643 12.0568 476.816 12.4091 477.161 12.6477C477.509 12.8826 477.95 13 478.484 13ZM484.727 14V5.27273H486.068V14H484.727ZM485.409 3.81818C485.148 3.81818 484.922 3.72917 484.733 3.55114C484.547 3.37311 484.455 3.15909 484.455 2.90909C484.455 2.65909 484.547 2.44508 484.733 2.26705C484.922 2.08902 485.148 2 485.409 2C485.67 2 485.894 2.08902 486.08 2.26705C486.269 2.44508 486.364 2.65909 486.364 2.90909C486.364 3.15909 486.269 3.37311 486.08 3.55114C485.894 3.72917 485.67 3.81818 485.409 3.81818ZM489.865 2.36364V14H488.524V2.36364H489.865ZM495.866 14.1818C495.079 14.1818 494.387 13.9943 493.793 13.6193C493.202 13.2443 492.74 12.7197 492.406 12.0455C492.077 11.3712 491.912 10.5833 491.912 9.68182C491.912 8.77273 492.077 7.97917 492.406 7.30114C492.74 6.62311 493.202 6.09659 493.793 5.72159C494.387 5.34659 495.079 5.15909 495.866 5.15909C496.654 5.15909 497.344 5.34659 497.935 5.72159C498.529 6.09659 498.991 6.62311 499.321 7.30114C499.654 7.97917 499.821 8.77273 499.821 9.68182C499.821 10.5833 499.654 11.3712 499.321 12.0455C498.991 12.7197 498.529 13.2443 497.935 13.6193C497.344 13.9943 496.654 14.1818 495.866 14.1818ZM495.866 12.9773C496.465 12.9773 496.957 12.8239 497.344 12.517C497.73 12.2102 498.016 11.8068 498.202 11.3068C498.387 10.8068 498.48 10.2652 498.48 9.68182C498.48 9.09848 498.387 8.55492 498.202 8.05114C498.016 7.54735 497.73 7.14015 497.344 6.82955C496.957 6.51894 496.465 6.36364 495.866 6.36364C495.268 6.36364 494.776 6.51894 494.389 6.82955C494.003 7.14015 493.717 7.54735 493.531 8.05114C493.346 8.55492 493.253 9.09848 493.253 9.68182C493.253 10.2652 493.346 10.8068 493.531 11.3068C493.717 11.8068 494.003 12.2102 494.389 12.517C494.776 12.8239 495.268 12.9773 495.866 12.9773ZM501.868 14V5.27273H503.163V6.59091H503.254C503.413 6.15909 503.701 5.80871 504.118 5.53977C504.535 5.27083 505.004 5.13636 505.527 5.13636C505.625 5.13636 505.749 5.13826 505.896 5.14205C506.044 5.14583 506.156 5.15152 506.232 5.15909V6.52273C506.186 6.51136 506.082 6.49432 505.919 6.47159C505.76 6.44508 505.591 6.43182 505.413 6.43182C504.989 6.43182 504.61 6.52083 504.277 6.69886C503.947 6.87311 503.686 7.11553 503.493 7.42614C503.304 7.73295 503.209 8.08333 503.209 8.47727V14H501.868Z" fill="#B9B9B9"/>
<path d="M631.792 14V2.36364H633.201V12.75H638.61V14H631.792ZM644.269 14.1818C643.428 14.1818 642.703 13.9962 642.093 13.625C641.487 13.25 641.019 12.7273 640.69 12.0568C640.364 11.3826 640.201 10.5985 640.201 9.70455C640.201 8.81061 640.364 8.02273 640.69 7.34091C641.019 6.6553 641.478 6.12121 642.065 5.73864C642.656 5.35227 643.345 5.15909 644.133 5.15909C644.587 5.15909 645.036 5.23485 645.479 5.38636C645.923 5.53788 646.326 5.78409 646.69 6.125C647.053 6.46212 647.343 6.90909 647.559 7.46591C647.775 8.02273 647.883 8.70833 647.883 9.52273V10.0909H641.156V8.93182H646.519C646.519 8.43939 646.421 8 646.224 7.61364C646.031 7.22727 645.754 6.92235 645.394 6.69886C645.038 6.47538 644.618 6.36364 644.133 6.36364C643.599 6.36364 643.137 6.49621 642.746 6.76136C642.36 7.02273 642.063 7.36364 641.854 7.78409C641.646 8.20455 641.542 8.6553 641.542 9.13636V9.90909C641.542 10.5682 641.656 11.1269 641.883 11.5852C642.114 12.0398 642.434 12.3864 642.843 12.625C643.252 12.8598 643.728 12.9773 644.269 12.9773C644.621 12.9773 644.94 12.928 645.224 12.8295C645.512 12.7273 645.76 12.5758 645.968 12.375C646.176 12.1705 646.337 11.9167 646.451 11.6136L647.746 11.9773C647.61 12.4167 647.381 12.803 647.059 13.1364C646.737 13.4659 646.339 13.7235 645.866 13.9091C645.392 14.0909 644.86 14.1818 644.269 14.1818ZM653.445 17.4545C652.798 17.4545 652.241 17.3712 651.775 17.2045C651.309 17.0417 650.921 16.8258 650.61 16.5568C650.303 16.2917 650.059 16.0076 649.877 15.7045L650.945 14.9545C651.067 15.1136 651.22 15.2955 651.406 15.5C651.591 15.7083 651.845 15.8883 652.167 16.0398C652.493 16.1951 652.919 16.2727 653.445 16.2727C654.15 16.2727 654.731 16.1023 655.19 15.7614C655.648 15.4205 655.877 14.8864 655.877 14.1591V12.3864H655.763C655.665 12.5455 655.525 12.7424 655.343 12.9773C655.165 13.2083 654.907 13.4148 654.57 13.5966C654.237 13.7746 653.786 13.8636 653.218 13.8636C652.513 13.8636 651.881 13.697 651.32 13.3636C650.763 13.0303 650.322 12.5455 649.996 11.9091C649.674 11.2727 649.513 10.5 649.513 9.59091C649.513 8.69697 649.671 7.91856 649.985 7.25568C650.299 6.58901 650.737 6.07386 651.298 5.71023C651.858 5.3428 652.506 5.15909 653.241 5.15909C653.809 5.15909 654.26 5.25379 654.593 5.44318C654.93 5.62879 655.188 5.84091 655.366 6.07955C655.548 6.31439 655.688 6.50758 655.786 6.65909H655.923V5.27273H657.218V14.25C657.218 15 657.048 15.6098 656.707 16.0795C656.37 16.553 655.915 16.8996 655.343 17.1193C654.775 17.3428 654.142 17.4545 653.445 17.4545ZM653.4 12.6591C653.938 12.6591 654.392 12.536 654.763 12.2898C655.135 12.0436 655.417 11.6894 655.61 11.2273C655.803 10.7652 655.9 10.2121 655.9 9.56818C655.9 8.93939 655.805 8.38447 655.616 7.90341C655.426 7.42235 655.146 7.04545 654.775 6.77273C654.404 6.5 653.945 6.36364 653.4 6.36364C652.832 6.36364 652.358 6.50758 651.979 6.79545C651.604 7.08333 651.322 7.4697 651.133 7.95455C650.947 8.43939 650.854 8.97727 650.854 9.56818C650.854 10.1742 650.949 10.7102 651.138 11.1761C651.332 11.6383 651.616 12.0019 651.991 12.267C652.37 12.5284 652.839 12.6591 653.4 12.6591ZM662.241 14.2045C661.688 14.2045 661.186 14.1004 660.735 13.892C660.284 13.6799 659.926 13.375 659.661 12.9773C659.396 12.5758 659.263 12.0909 659.263 11.5227C659.263 11.0227 659.362 10.6174 659.559 10.3068C659.756 9.99242 660.019 9.74621 660.349 9.56818C660.678 9.39015 661.042 9.25758 661.44 9.17045C661.841 9.07955 662.245 9.00758 662.65 8.95455C663.18 8.88636 663.61 8.83523 663.94 8.80114C664.273 8.76326 664.515 8.70076 664.667 8.61364C664.822 8.52652 664.9 8.375 664.9 8.15909V8.11364C664.9 7.55303 664.746 7.11742 664.44 6.80682C664.137 6.49621 663.676 6.34091 663.059 6.34091C662.419 6.34091 661.917 6.48106 661.553 6.76136C661.19 7.04167 660.934 7.34091 660.786 7.65909L659.513 7.20455C659.741 6.67424 660.044 6.26136 660.423 5.96591C660.805 5.66667 661.222 5.45833 661.673 5.34091C662.127 5.2197 662.574 5.15909 663.013 5.15909C663.294 5.15909 663.616 5.19318 663.979 5.26136C664.347 5.32576 664.701 5.46023 665.042 5.66477C665.387 5.86932 665.673 6.17803 665.9 6.59091C666.127 7.00379 666.241 7.55682 666.241 8.25V14H664.9V12.8182H664.832C664.741 13.0076 664.589 13.2102 664.377 13.4261C664.165 13.642 663.883 13.8258 663.531 13.9773C663.178 14.1288 662.748 14.2045 662.241 14.2045ZM662.445 13C662.976 13 663.423 12.8958 663.786 12.6875C664.154 12.4792 664.43 12.2102 664.616 11.8807C664.805 11.5511 664.9 11.2045 664.9 10.8409V9.61364C664.843 9.68182 664.718 9.74432 664.525 9.80114C664.335 9.85417 664.116 9.90151 663.866 9.94318C663.62 9.98106 663.379 10.0152 663.144 10.0455C662.913 10.072 662.726 10.0947 662.582 10.1136C662.233 10.1591 661.907 10.233 661.604 10.3352C661.305 10.4337 661.063 10.5833 660.877 10.7841C660.695 10.9811 660.604 11.25 660.604 11.5909C660.604 12.0568 660.777 12.4091 661.121 12.6477C661.47 12.8826 661.911 13 662.445 13ZM670.029 2.36364V14H668.688V2.36364H670.029ZM678.667 7.22727L677.462 7.56818C677.387 7.36742 677.275 7.17235 677.127 6.98295C676.983 6.78977 676.786 6.63068 676.536 6.50568C676.286 6.38068 675.966 6.31818 675.576 6.31818C675.042 6.31818 674.597 6.44129 674.241 6.6875C673.888 6.92992 673.712 7.23864 673.712 7.61364C673.712 7.94697 673.834 8.21023 674.076 8.40341C674.318 8.59659 674.697 8.75758 675.212 8.88636L676.508 9.20455C677.288 9.39394 677.87 9.68371 678.252 10.0739C678.635 10.4602 678.826 10.9583 678.826 11.5682C678.826 12.0682 678.682 12.5152 678.394 12.9091C678.11 13.303 677.712 13.6136 677.201 13.8409C676.69 14.0682 676.095 14.1818 675.417 14.1818C674.527 14.1818 673.79 13.9886 673.207 13.6023C672.623 13.2159 672.254 12.6515 672.099 11.9091L673.371 11.5909C673.493 12.0606 673.722 12.4129 674.059 12.6477C674.4 12.8826 674.845 13 675.394 13C676.019 13 676.515 12.8674 676.883 12.6023C677.254 12.3333 677.44 12.0114 677.44 11.6364C677.44 11.3333 677.334 11.0795 677.121 10.875C676.909 10.6667 676.584 10.5114 676.144 10.4091L674.69 10.0682C673.89 9.87879 673.303 9.58523 672.928 9.1875C672.557 8.78598 672.371 8.28409 672.371 7.68182C672.371 7.18939 672.51 6.75379 672.786 6.375C673.067 5.99621 673.447 5.69886 673.928 5.48295C674.413 5.26705 674.962 5.15909 675.576 5.15909C676.44 5.15909 677.118 5.34848 677.61 5.72727C678.106 6.10606 678.459 6.60606 678.667 7.22727Z" fill="#B9B9B9"/>
<path d="M87.8899 5.27273C87.8217 4.69697 87.5452 4.25 87.0604 3.93182C86.5755 3.61364 85.9808 3.45455 85.2763 3.45455C84.7611 3.45455 84.3104 3.53788 83.924 3.70455C83.5414 3.87121 83.2422 4.10038 83.0263 4.39205C82.8142 4.68371 82.7081 5.01515 82.7081 5.38636C82.7081 5.69697 82.782 5.96401 82.9297 6.1875C83.0812 6.4072 83.2744 6.59091 83.5092 6.73864C83.7441 6.88258 83.9903 7.00189 84.2479 7.09659C84.5054 7.1875 84.7422 7.26136 84.9581 7.31818L86.1399 7.63636C86.4429 7.71591 86.7801 7.82576 87.1513 7.96591C87.5263 8.10606 87.8842 8.29735 88.2251 8.53977C88.5698 8.77841 88.8539 9.08523 89.0774 9.46023C89.3009 9.83523 89.4126 10.2955 89.4126 10.8409C89.4126 11.4697 89.2479 12.0379 88.9183 12.5455C88.5926 13.053 88.1153 13.4564 87.4865 13.7557C86.8615 14.0549 86.102 14.2045 85.2081 14.2045C84.3748 14.2045 83.6532 14.0701 83.0433 13.8011C82.4373 13.5322 81.96 13.1572 81.6115 12.6761C81.2668 12.1951 81.0717 11.6364 81.0263 11H82.4808C82.5187 11.4394 82.6664 11.803 82.924 12.0909C83.1854 12.375 83.5149 12.5871 83.9126 12.7273C84.3142 12.8636 84.746 12.9318 85.2081 12.9318C85.746 12.9318 86.2289 12.8447 86.657 12.6705C87.085 12.4924 87.424 12.2462 87.674 11.9318C87.924 11.6136 88.049 11.2424 88.049 10.8182C88.049 10.4318 87.9411 10.1174 87.7251 9.875C87.5092 9.63258 87.2251 9.43561 86.8729 9.28409C86.5206 9.13258 86.1399 9 85.7308 8.88636L84.299 8.47727C83.3899 8.21591 82.6702 7.8428 82.1399 7.35795C81.6096 6.87311 81.3445 6.23864 81.3445 5.45455C81.3445 4.80303 81.5206 4.23485 81.8729 3.75C82.2289 3.26136 82.7062 2.88258 83.3047 2.61364C83.907 2.34091 84.5793 2.20455 85.3217 2.20455C86.0717 2.20455 86.7384 2.33901 87.3217 2.60795C87.9051 2.87311 88.3672 3.23674 88.7081 3.69886C89.0528 4.16098 89.2346 4.68561 89.2536 5.27273H87.8899ZM91.5476 14V5.27273H92.8885V14H91.5476ZM92.2294 3.81818C91.968 3.81818 91.7427 3.72917 91.5533 3.55114C91.3677 3.37311 91.2749 3.15909 91.2749 2.90909C91.2749 2.65909 91.3677 2.44508 91.5533 2.26705C91.7427 2.08902 91.968 2 92.2294 2C92.4908 2 92.7143 2.08902 92.8999 2.26705C93.0893 2.44508 93.1839 2.65909 93.1839 2.90909C93.1839 3.15909 93.0893 3.37311 92.8999 3.55114C92.7143 3.72917 92.4908 3.81818 92.2294 3.81818ZM98.8672 17.4545C98.2195 17.4545 97.6626 17.3712 97.1967 17.2045C96.7308 17.0417 96.3426 16.8258 96.032 16.5568C95.7251 16.2917 95.4808 16.0076 95.299 15.7045L96.3672 14.9545C96.4884 15.1136 96.6418 15.2955 96.8274 15.5C97.013 15.7083 97.2668 15.8883 97.5888 16.0398C97.9145 16.1951 98.3407 16.2727 98.8672 16.2727C99.5717 16.2727 100.153 16.1023 100.612 15.7614C101.07 15.4205 101.299 14.8864 101.299 14.1591V12.3864H101.185C101.087 12.5455 100.947 12.7424 100.765 12.9773C100.587 13.2083 100.329 13.4148 99.9922 13.5966C99.6589 13.7746 99.2081 13.8636 98.6399 13.8636C97.9354 13.8636 97.3028 13.697 96.7422 13.3636C96.1854 13.0303 95.7441 12.5455 95.4183 11.9091C95.0964 11.2727 94.9354 10.5 94.9354 9.59091C94.9354 8.69697 95.0926 7.91856 95.407 7.25568C95.7214 6.58901 96.1589 6.07386 96.7195 5.71023C97.2801 5.3428 97.9278 5.15909 98.6626 5.15909C99.2308 5.15909 99.6816 5.25379 100.015 5.44318C100.352 5.62879 100.61 5.84091 100.788 6.07955C100.969 6.31439 101.11 6.50758 101.208 6.65909H101.344V5.27273H102.64V14.25C102.64 15 102.469 15.6098 102.129 16.0795C101.791 16.553 101.337 16.8996 100.765 17.1193C100.197 17.3428 99.5642 17.4545 98.8672 17.4545ZM98.8217 12.6591C99.3596 12.6591 99.8142 12.536 100.185 12.2898C100.557 12.0436 100.839 11.6894 101.032 11.2273C101.225 10.7652 101.322 10.2121 101.322 9.56818C101.322 8.93939 101.227 8.38447 101.038 7.90341C100.848 7.42235 100.568 7.04545 100.197 6.77273C99.8255 6.5 99.3672 6.36364 98.8217 6.36364C98.2536 6.36364 97.7801 6.50758 97.4013 6.79545C97.0263 7.08333 96.7441 7.4697 96.5547 7.95455C96.3691 8.43939 96.2763 8.97727 96.2763 9.56818C96.2763 10.1742 96.371 10.7102 96.5604 11.1761C96.7536 11.6383 97.0376 12.0019 97.4126 12.267C97.7914 12.5284 98.2611 12.6591 98.8217 12.6591ZM106.435 8.75V14H105.094V5.27273H106.39V6.63636H106.504C106.708 6.19318 107.019 5.83712 107.435 5.56818C107.852 5.29545 108.39 5.15909 109.049 5.15909C109.64 5.15909 110.157 5.2803 110.6 5.52273C111.043 5.76136 111.388 6.125 111.634 6.61364C111.88 7.09848 112.004 7.71212 112.004 8.45455V14H110.663V8.54545C110.663 7.85985 110.485 7.32576 110.129 6.94318C109.772 6.55682 109.284 6.36364 108.663 6.36364C108.235 6.36364 107.852 6.45644 107.515 6.64205C107.182 6.82765 106.918 7.09848 106.725 7.45455C106.532 7.81061 106.435 8.24242 106.435 8.75ZM118.954 14V5.27273H120.295V14H118.954ZM119.636 3.81818C119.374 3.81818 119.149 3.72917 118.96 3.55114C118.774 3.37311 118.681 3.15909 118.681 2.90909C118.681 2.65909 118.774 2.44508 118.96 2.26705C119.149 2.08902 119.374 2 119.636 2C119.897 2 120.121 2.08902 120.306 2.26705C120.496 2.44508 120.59 2.65909 120.59 2.90909C120.59 3.15909 120.496 3.37311 120.306 3.55114C120.121 3.72917 119.897 3.81818 119.636 3.81818ZM124.092 8.75V14H122.751V5.27273H124.046V6.63636H124.16C124.364 6.19318 124.675 5.83712 125.092 5.56818C125.508 5.29545 126.046 5.15909 126.705 5.15909C127.296 5.15909 127.813 5.2803 128.256 5.52273C128.7 5.76136 129.044 6.125 129.29 6.61364C129.537 7.09848 129.66 7.71212 129.66 8.45455V14H128.319V8.54545C128.319 7.85985 128.141 7.32576 127.785 6.94318C127.429 6.55682 126.94 6.36364 126.319 6.36364C125.891 6.36364 125.508 6.45644 125.171 6.64205C124.838 6.82765 124.575 7.09848 124.381 7.45455C124.188 7.81061 124.092 8.24242 124.092 8.75Z" fill="#B9B9B9"/>
<path d="M1178.24 14H1174.65V2.36364H1178.4C1179.53 2.36364 1180.5 2.59659 1181.3 3.0625C1182.1 3.52462 1182.72 4.18939 1183.15 5.05682C1183.57 5.92045 1183.79 6.95455 1183.79 8.15909C1183.79 9.37121 1183.57 10.4148 1183.14 11.2898C1182.71 12.161 1182.08 12.8314 1181.25 13.3011C1180.43 13.767 1179.42 14 1178.24 14ZM1176.06 12.75H1178.15C1179.11 12.75 1179.91 12.5644 1180.54 12.1932C1181.18 11.822 1181.65 11.2936 1181.96 10.608C1182.27 9.92235 1182.42 9.10606 1182.42 8.15909C1182.42 7.2197 1182.27 6.41098 1181.96 5.73295C1181.66 5.05114 1181.2 4.52841 1180.59 4.16477C1179.98 3.79735 1179.22 3.61364 1178.31 3.61364H1176.06V12.75ZM1189.63 14.1818C1188.79 14.1818 1188.06 13.9962 1187.45 13.625C1186.85 13.25 1186.38 12.7273 1186.05 12.0568C1185.72 11.3826 1185.56 10.5985 1185.56 9.70455C1185.56 8.81061 1185.72 8.02273 1186.05 7.34091C1186.38 6.6553 1186.84 6.12121 1187.42 5.73864C1188.01 5.35227 1188.7 5.15909 1189.49 5.15909C1189.95 5.15909 1190.4 5.23485 1190.84 5.38636C1191.28 5.53788 1191.69 5.78409 1192.05 6.125C1192.41 6.46212 1192.7 6.90909 1192.92 7.46591C1193.13 8.02273 1193.24 8.70833 1193.24 9.52273V10.0909H1186.51V8.93182H1191.88C1191.88 8.43939 1191.78 8 1191.58 7.61364C1191.39 7.22727 1191.11 6.92235 1190.75 6.69886C1190.4 6.47538 1189.98 6.36364 1189.49 6.36364C1188.96 6.36364 1188.5 6.49621 1188.11 6.76136C1187.72 7.02273 1187.42 7.36364 1187.21 7.78409C1187.01 8.20455 1186.9 8.6553 1186.9 9.13636V9.90909C1186.9 10.5682 1187.01 11.1269 1187.24 11.5852C1187.47 12.0398 1187.79 12.3864 1188.2 12.625C1188.61 12.8598 1189.09 12.9773 1189.63 12.9773C1189.98 12.9773 1190.3 12.928 1190.58 12.8295C1190.87 12.7273 1191.12 12.5758 1191.33 12.375C1191.54 12.1705 1191.7 11.9167 1191.81 11.6136L1193.11 11.9773C1192.97 12.4167 1192.74 12.803 1192.42 13.1364C1192.1 13.4659 1191.7 13.7235 1191.23 13.9091C1190.75 14.0909 1190.22 14.1818 1189.63 14.1818ZM1195.28 17.2727V5.27273H1196.58V6.65909H1196.74C1196.83 6.50758 1196.97 6.31439 1197.15 6.07955C1197.32 5.84091 1197.58 5.62879 1197.91 5.44318C1198.24 5.25379 1198.69 5.15909 1199.26 5.15909C1199.99 5.15909 1200.64 5.3428 1201.2 5.71023C1201.76 6.07765 1202.2 6.59848 1202.51 7.27273C1202.83 7.94697 1202.99 8.74242 1202.99 9.65909C1202.99 10.5833 1202.83 11.3845 1202.51 12.0625C1202.2 12.7367 1201.76 13.2595 1201.21 13.6307C1200.65 13.9981 1200.01 14.1818 1199.28 14.1818C1198.72 14.1818 1198.27 14.089 1197.94 13.9034C1197.6 13.714 1197.34 13.5 1197.16 13.2614C1196.98 13.0189 1196.83 12.8182 1196.74 12.6591H1196.62V17.2727H1195.28ZM1196.6 9.63636C1196.6 10.2955 1196.7 10.8769 1196.89 11.3807C1197.08 11.8807 1197.37 12.2727 1197.74 12.5568C1198.11 12.8371 1198.56 12.9773 1199.1 12.9773C1199.66 12.9773 1200.13 12.8295 1200.5 12.5341C1200.88 12.2348 1201.17 11.8333 1201.36 11.3295C1201.55 10.822 1201.65 10.2576 1201.65 9.63636C1201.65 9.02273 1201.55 8.4697 1201.36 7.97727C1201.18 7.48106 1200.89 7.08902 1200.51 6.80114C1200.14 6.50947 1199.67 6.36364 1199.1 6.36364C1198.55 6.36364 1198.1 6.50189 1197.73 6.77841C1197.35 7.05114 1197.07 7.43371 1196.88 7.92614C1196.69 8.41477 1196.6 8.98485 1196.6 9.63636ZM1206.37 2.36364V14H1205.03V2.36364H1206.37ZM1212.37 14.1818C1211.59 14.1818 1210.9 13.9943 1210.3 13.6193C1209.71 13.2443 1209.25 12.7197 1208.91 12.0455C1208.58 11.3712 1208.42 10.5833 1208.42 9.68182C1208.42 8.77273 1208.58 7.97917 1208.91 7.30114C1209.25 6.62311 1209.71 6.09659 1210.3 5.72159C1210.9 5.34659 1211.59 5.15909 1212.37 5.15909C1213.16 5.15909 1213.85 5.34659 1214.44 5.72159C1215.04 6.09659 1215.5 6.62311 1215.83 7.30114C1216.16 7.97917 1216.33 8.77273 1216.33 9.68182C1216.33 10.5833 1216.16 11.3712 1215.83 12.0455C1215.5 12.7197 1215.04 13.2443 1214.44 13.6193C1213.85 13.9943 1213.16 14.1818 1212.37 14.1818ZM1212.37 12.9773C1212.97 12.9773 1213.47 12.8239 1213.85 12.517C1214.24 12.2102 1214.52 11.8068 1214.71 11.3068C1214.9 10.8068 1214.99 10.2652 1214.99 9.68182C1214.99 9.09848 1214.9 8.55492 1214.71 8.05114C1214.52 7.54735 1214.24 7.14015 1213.85 6.82955C1213.47 6.51894 1212.97 6.36364 1212.37 6.36364C1211.78 6.36364 1211.28 6.51894 1210.9 6.82955C1210.51 7.14015 1210.22 7.54735 1210.04 8.05114C1209.85 8.55492 1209.76 9.09848 1209.76 9.68182C1209.76 10.2652 1209.85 10.8068 1210.04 11.3068C1210.22 11.8068 1210.51 12.2102 1210.9 12.517C1211.28 12.8239 1211.78 12.9773 1212.37 12.9773ZM1218.93 17.25C1218.7 17.25 1218.5 17.2311 1218.32 17.1932C1218.14 17.1591 1218.02 17.125 1217.95 17.0909L1218.29 15.9091C1218.78 16.0341 1219.19 16.0303 1219.51 15.8977C1219.84 15.7689 1220.12 15.3788 1220.36 14.7273L1220.61 14.0455L1217.38 5.27273H1218.84L1221.25 12.2273H1221.34L1223.75 5.27273L1225.21 5.29545L1221.5 15.2727C1221.33 15.7159 1221.12 16.0833 1220.88 16.375C1220.63 16.6705 1220.34 16.8902 1220.02 17.0341C1219.7 17.178 1219.33 17.25 1218.93 17.25Z" fill="#B9B9B9"/>
<path d="M792.472 14V2.36364H799.449V3.61364H793.881V7.54545H798.926V8.79545H793.881V14H792.472ZM806.634 10.4318V5.27273H807.974V14H806.634V12.5227H806.543C806.338 12.9659 806.02 13.3428 805.588 13.6534C805.156 13.9602 804.611 14.1136 803.952 14.1136C803.406 14.1136 802.921 13.9943 802.497 13.7557C802.073 13.5133 801.74 13.1496 801.497 12.6648C801.255 12.1761 801.134 11.5606 801.134 10.8182V5.27273H802.474V10.7273C802.474 11.3636 802.652 11.8712 803.009 12.25C803.368 12.6288 803.827 12.8182 804.384 12.8182C804.717 12.8182 805.056 12.733 805.401 12.5625C805.749 12.392 806.041 12.1307 806.276 11.7784C806.514 11.4261 806.634 10.9773 806.634 10.4318ZM811.771 8.75V14H810.43V5.27273H811.726V6.63636H811.839C812.044 6.19318 812.355 5.83712 812.771 5.56818C813.188 5.29545 813.726 5.15909 814.385 5.15909C814.976 5.15909 815.493 5.2803 815.936 5.52273C816.379 5.76136 816.724 6.125 816.97 6.61364C817.216 7.09848 817.339 7.71212 817.339 8.45455V14H815.999V8.54545C815.999 7.85985 815.821 7.32576 815.464 6.94318C815.108 6.55682 814.62 6.36364 813.999 6.36364C813.571 6.36364 813.188 6.45644 812.851 6.64205C812.518 6.82765 812.254 7.09848 812.061 7.45455C811.868 7.81061 811.771 8.24242 811.771 8.75ZM823.085 14.1818C822.358 14.1818 821.716 13.9981 821.159 13.6307C820.602 13.2595 820.167 12.7367 819.852 12.0625C819.538 11.3845 819.381 10.5833 819.381 9.65909C819.381 8.74242 819.538 7.94697 819.852 7.27273C820.167 6.59848 820.604 6.07765 821.165 5.71023C821.725 5.3428 822.373 5.15909 823.108 5.15909C823.676 5.15909 824.125 5.25379 824.455 5.44318C824.788 5.62879 825.042 5.84091 825.216 6.07955C825.394 6.31439 825.532 6.50758 825.631 6.65909H825.744V2.36364H827.085V14H825.79V12.6591H825.631C825.532 12.8182 825.392 13.0189 825.21 13.2614C825.028 13.5 824.769 13.714 824.432 13.9034C824.095 14.089 823.646 14.1818 823.085 14.1818ZM823.267 12.9773C823.805 12.9773 824.259 12.8371 824.631 12.5568C825.002 12.2727 825.284 11.8807 825.477 11.3807C825.67 10.8769 825.767 10.2955 825.767 9.63636C825.767 8.98485 825.672 8.41477 825.483 7.92614C825.294 7.43371 825.013 7.05114 824.642 6.77841C824.271 6.50189 823.813 6.36364 823.267 6.36364C822.699 6.36364 822.225 6.50947 821.847 6.80114C821.472 7.08902 821.189 7.48106 821 7.97727C820.814 8.4697 820.722 9.02273 820.722 9.63636C820.722 10.2576 820.816 10.822 821.006 11.3295C821.199 11.8333 821.483 12.2348 821.858 12.5341C822.237 12.8295 822.706 12.9773 823.267 12.9773ZM829.727 14V5.27273H831.023V6.59091H831.114C831.273 6.15909 831.561 5.80871 831.977 5.53977C832.394 5.27083 832.864 5.13636 833.386 5.13636C833.485 5.13636 833.608 5.13826 833.756 5.14205C833.903 5.14583 834.015 5.15152 834.091 5.15909V6.52273C834.045 6.51136 833.941 6.49432 833.778 6.47159C833.619 6.44508 833.451 6.43182 833.273 6.43182C832.848 6.43182 832.47 6.52083 832.136 6.69886C831.807 6.87311 831.545 7.11553 831.352 7.42614C831.163 7.73295 831.068 8.08333 831.068 8.47727V14H829.727ZM838.249 14.2045C837.696 14.2045 837.194 14.1004 836.743 13.892C836.292 13.6799 835.934 13.375 835.669 12.9773C835.404 12.5758 835.271 12.0909 835.271 11.5227C835.271 11.0227 835.37 10.6174 835.567 10.3068C835.764 9.99242 836.027 9.74621 836.357 9.56818C836.686 9.39015 837.05 9.25758 837.447 9.17045C837.849 9.07955 838.252 9.00758 838.658 8.95455C839.188 8.88636 839.618 8.83523 839.947 8.80114C840.281 8.76326 840.523 8.70076 840.675 8.61364C840.83 8.52652 840.908 8.375 840.908 8.15909V8.11364C840.908 7.55303 840.754 7.11742 840.447 6.80682C840.144 6.49621 839.684 6.34091 839.067 6.34091C838.427 6.34091 837.925 6.48106 837.561 6.76136C837.197 7.04167 836.942 7.34091 836.794 7.65909L835.521 7.20455C835.749 6.67424 836.052 6.26136 836.43 5.96591C836.813 5.66667 837.23 5.45833 837.68 5.34091C838.135 5.2197 838.582 5.15909 839.021 5.15909C839.302 5.15909 839.624 5.19318 839.987 5.26136C840.355 5.32576 840.709 5.46023 841.05 5.66477C841.394 5.86932 841.68 6.17803 841.908 6.59091C842.135 7.00379 842.249 7.55682 842.249 8.25V14H840.908V12.8182H840.839C840.749 13.0076 840.597 13.2102 840.385 13.4261C840.173 13.642 839.891 13.8258 839.538 13.9773C839.186 14.1288 838.756 14.2045 838.249 14.2045ZM838.453 13C838.983 13 839.43 12.8958 839.794 12.6875C840.161 12.4792 840.438 12.2102 840.624 11.8807C840.813 11.5511 840.908 11.2045 840.908 10.8409V9.61364C840.851 9.68182 840.726 9.74432 840.533 9.80114C840.343 9.85417 840.124 9.90151 839.874 9.94318C839.627 9.98106 839.387 10.0152 839.152 10.0455C838.921 10.072 838.733 10.0947 838.589 10.1136C838.241 10.1591 837.915 10.233 837.612 10.3352C837.313 10.4337 837.071 10.5833 836.885 10.7841C836.703 10.9811 836.612 11.25 836.612 11.5909C836.612 12.0568 836.785 12.4091 837.129 12.6477C837.478 12.8826 837.919 13 838.453 13ZM844.696 14V5.27273H846.037V14H844.696ZM845.378 3.81818C845.116 3.81818 844.891 3.72917 844.702 3.55114C844.516 3.37311 844.423 3.15909 844.423 2.90909C844.423 2.65909 844.516 2.44508 844.702 2.26705C844.891 2.08902 845.116 2 845.378 2C845.639 2 845.863 2.08902 846.048 2.26705C846.238 2.44508 846.332 2.65909 846.332 2.90909C846.332 3.15909 846.238 3.37311 846.048 3.55114C845.863 3.72917 845.639 3.81818 845.378 3.81818ZM854.675 7.22727L853.47 7.56818C853.394 7.36742 853.283 7.17235 853.135 6.98295C852.991 6.78977 852.794 6.63068 852.544 6.50568C852.294 6.38068 851.974 6.31818 851.584 6.31818C851.05 6.31818 850.605 6.44129 850.249 6.6875C849.896 6.92992 849.72 7.23864 849.72 7.61364C849.72 7.94697 849.841 8.21023 850.084 8.40341C850.326 8.59659 850.705 8.75758 851.22 8.88636L852.516 9.20455C853.296 9.39394 853.877 9.68371 854.26 10.0739C854.643 10.4602 854.834 10.9583 854.834 11.5682C854.834 12.0682 854.69 12.5152 854.402 12.9091C854.118 13.303 853.72 13.6136 853.209 13.8409C852.697 14.0682 852.103 14.1818 851.425 14.1818C850.535 14.1818 849.798 13.9886 849.214 13.6023C848.631 13.2159 848.262 12.6515 848.107 11.9091L849.379 11.5909C849.5 12.0606 849.73 12.4129 850.067 12.6477C850.408 12.8826 850.853 13 851.402 13C852.027 13 852.523 12.8674 852.891 12.6023C853.262 12.3333 853.447 12.0114 853.447 11.6364C853.447 11.3333 853.341 11.0795 853.129 10.875C852.917 10.6667 852.591 10.5114 852.152 10.4091L850.697 10.0682C849.898 9.87879 849.311 9.58523 848.936 9.1875C848.565 8.78598 848.379 8.28409 848.379 7.68182C848.379 7.18939 848.518 6.75379 848.794 6.375C849.074 5.99621 849.455 5.69886 849.936 5.48295C850.421 5.26705 850.97 5.15909 851.584 5.15909C852.447 5.15909 853.125 5.34848 853.618 5.72727C854.114 6.10606 854.466 6.60606 854.675 7.22727ZM860.511 14.1818C859.67 14.1818 858.945 13.9962 858.335 13.625C857.729 13.25 857.261 12.7273 856.932 12.0568C856.606 11.3826 856.443 10.5985 856.443 9.70455C856.443 8.81061 856.606 8.02273 856.932 7.34091C857.261 6.6553 857.72 6.12121 858.307 5.73864C858.898 5.35227 859.587 5.15909 860.375 5.15909C860.83 5.15909 861.278 5.23485 861.722 5.38636C862.165 5.53788 862.568 5.78409 862.932 6.125C863.295 6.46212 863.585 6.90909 863.801 7.46591C864.017 8.02273 864.125 8.70833 864.125 9.52273V10.0909H857.398V8.93182H862.761C862.761 8.43939 862.663 8 862.466 7.61364C862.273 7.22727 861.996 6.92235 861.636 6.69886C861.28 6.47538 860.86 6.36364 860.375 6.36364C859.841 6.36364 859.379 6.49621 858.989 6.76136C858.602 7.02273 858.305 7.36364 858.097 7.78409C857.888 8.20455 857.784 8.6553 857.784 9.13636V9.90909C857.784 10.5682 857.898 11.1269 858.125 11.5852C858.356 12.0398 858.676 12.3864 859.085 12.625C859.494 12.8598 859.97 12.9773 860.511 12.9773C860.864 12.9773 861.182 12.928 861.466 12.8295C861.754 12.7273 862.002 12.5758 862.21 12.375C862.419 12.1705 862.58 11.9167 862.693 11.6136L863.989 11.9773C863.852 12.4167 863.623 12.803 863.301 13.1364C862.979 13.4659 862.581 13.7235 862.108 13.9091C861.634 14.0909 861.102 14.1818 860.511 14.1818Z" fill="#B9B9B9"/>
<rect x="204" y="52" width="907" height="220" stroke="#FB6233" stroke-width="0.5"/>
<path d="M275.05 156.035L298.729 146.492V118.356M275.05 156.035V127.898M275.05 156.035L252.141 145.214V117.078M275.05 127.898L298.729 118.356M275.05 127.898L252.141 117.078M298.729 118.356L275.82 107.535L252.141 117.078" stroke="white"/>
<path d="M331.517 164.432L355.196 154.89V104.664M331.517 164.432V114.207M331.517 164.432L320.062 159.022V108.796M331.517 114.207L355.196 104.664M331.517 114.207L320.062 108.796M355.196 104.664L343.742 99.2539L320.062 108.796" stroke="white"/>
<path d="M297.641 219.728V208.482M297.641 219.728L244.961 194.845V183.6M297.641 219.728L352.093 197.784V186.539M297.641 208.482L352.093 186.539M297.641 208.482L244.961 183.6M352.093 186.539L299.413 161.656L244.961 183.6" stroke="white"/>
<path d="M357.198 200.242L302.746 222.186" stroke="#FB6233" stroke-width="0.5"/>
<path d="M359.625 153.03V102.777" stroke="#FB6233" stroke-width="0.5"/>
<path d="M247.523 143.089L247.523 114.926" stroke="#FB6233" stroke-width="0.5"/>
<path d="M355.195 154.888L331.515 164.431M355.195 154.888V104.663M355.195 154.888V157.715M355.195 154.888L358.058 156.241M355.195 154.888L358.155 153.695L361.115 152.503M355.195 154.888L355.195 152.062M355.195 154.888L352.235 156.081M331.515 164.431V114.205M331.515 164.431L320.061 159.02M331.515 164.431V167.258M331.515 164.431L334.379 165.783M331.515 164.431L334.475 163.238M331.515 164.431L331.516 161.604M331.515 164.431L328.652 163.078M331.515 164.431L328.556 165.624M331.515 114.205L355.195 104.663M331.515 114.205L320.061 108.795M331.515 114.205V117.032M331.515 114.205L334.379 115.558M331.515 114.205L334.475 113.013M331.515 114.205L331.516 111.379M331.515 114.205L328.652 112.853M331.515 114.205L328.556 115.398M355.195 104.663L343.74 99.2526M355.195 104.663V107.49M355.195 104.663L358.058 106.015M355.195 104.663L358.155 103.47L361.115 102.277M355.195 104.663L355.195 101.836M355.195 104.663L352.332 103.31M355.195 104.663L352.235 105.856M320.061 159.02V108.795M320.061 159.02L320.061 161.847M320.061 159.02L322.925 160.373M320.061 159.02L320.061 156.194M320.061 159.02L317.198 157.668M320.061 159.02L317.102 160.213M320.061 108.795L343.74 99.2526M320.061 108.795L320.061 105.968M320.061 108.795L317.198 107.442M320.061 108.795L317.102 109.988M343.74 99.2526L346.604 100.605M343.74 99.2526L346.7 98.0597M343.74 99.2526L343.741 96.4258M343.74 99.2526L340.877 97.9M343.74 99.2526L340.781 100.445" stroke="white" stroke-width="0.5"/>
<path d="M298.727 146.495L275.047 156.037M298.727 146.495V118.358M298.727 146.495V149.322M298.727 146.495L301.59 147.847M298.727 146.495L301.687 145.302M275.047 156.037V127.901M275.047 156.037L252.138 145.217M275.047 156.037L277.911 157.39M275.047 156.037V158.864M275.047 156.037L272.087 157.23M275.047 127.901L298.727 118.358M275.047 127.901L252.138 117.08M275.047 127.901L272.087 129.094M275.047 127.901L277.911 129.253M298.727 118.358L287.272 112.948L281.545 110.243L275.818 107.538M298.727 118.358L301.59 119.711M298.727 118.358L301.687 117.165M298.727 118.358V115.532M252.138 145.217V117.08M252.138 145.217L249.274 143.864L246.41 142.511M252.138 145.217L249.178 146.409M252.138 145.217V148.043M252.138 117.08L275.818 107.538M252.138 117.08V114.253M252.138 117.08L249.274 115.728L246.41 114.375M252.138 117.08L249.178 118.273M275.818 107.538L278.777 106.345M275.818 107.538V104.711M275.818 107.538L272.954 106.185" stroke="white" stroke-width="0.5"/>
<path d="M352.091 197.783V186.537M352.091 197.783L297.639 219.726M352.091 197.783L352.091 200.61M352.091 197.783L354.955 199.135L357.819 200.488M352.091 197.783L355.051 196.59M352.091 197.783L352.092 194.956M352.091 197.783L349.132 198.976M297.639 219.726V208.481M297.639 219.726L244.959 194.844V183.598M297.639 219.726L297.639 222.553M297.639 219.726L300.503 221.079L303.367 222.431M297.639 219.726L300.599 218.533M297.639 219.726L297.64 216.899M297.639 219.726L294.776 218.374M297.639 219.726L294.68 220.919M297.639 208.481L352.091 186.537M297.639 208.481L244.959 183.598M297.639 208.481L297.639 211.307M297.639 208.481L300.503 209.833M297.639 208.481L300.599 207.288M297.639 208.481L297.64 205.654M297.639 208.481L294.776 207.128M297.639 208.481L294.68 209.673M352.091 186.537L299.411 161.655M352.091 186.537L352.091 189.364M352.091 186.537L354.955 187.89M352.091 186.537L355.051 185.344M352.091 186.537L352.092 183.71M352.091 186.537L349.228 185.185M352.091 186.537L349.132 187.73M244.959 183.598L299.411 161.655M244.959 183.598L244.959 186.425M244.959 183.598L247.823 184.951M244.959 183.598L247.919 182.405M244.959 183.598L244.96 180.771M244.959 183.598L242.096 182.246M244.959 183.598L242 184.791M299.411 161.655L302.275 163.007M299.411 161.655L302.371 160.462M299.411 161.655L299.412 158.828M299.411 161.655L296.548 160.302M299.411 161.655L296.452 162.848M244.96 194.844L244.96 197.671M244.96 194.844L247.824 196.196M244.96 194.844L244.961 192.017M244.96 194.844L242.097 193.491M244.96 194.844L242.001 196.037" stroke="white" stroke-width="0.5"/>
<path d="M1023.29 216.444V183.502M1023.29 216.444L1035.74 210.562M1023.29 216.444L1010.84 222.325M1073.1 159.977V192.918L1060.65 198.8M1073.1 159.977L1046.62 149.305M1073.1 159.977L1069.98 161.447L1066.87 162.917M1046.62 149.305L996.807 172.83L946.999 196.356M1046.62 149.305L1003.03 169.889L946.999 196.356M1023.29 183.502L1029.52 180.562M1023.29 183.502L1017.06 186.443M973.482 239.969V207.028M973.482 239.969L960.241 234.633M973.482 239.969L985.934 234.088M973.482 207.028L960.241 201.692M973.482 207.028L979.708 204.087M946.999 196.356L946.999 229.297L960.241 234.633M946.999 196.356L960.241 201.692M960.241 201.692V234.633M998.386 195.265V228.206M998.386 195.265L1004.61 192.324M998.386 195.265L992.16 198.206M998.386 228.206L1010.84 222.325M998.386 228.206L985.934 234.088M1048.19 171.739V204.681M1048.19 171.739L1054.42 168.799M1048.19 171.739L1041.97 174.68M1048.19 204.681L1060.65 198.8M1048.19 204.681L1035.74 210.562M1060.65 165.858V198.8M1060.65 165.858L1066.87 162.917M1060.65 165.858L1054.42 168.799M1035.74 177.621V210.562M1035.74 177.621L1041.97 174.68M1035.74 177.621L1029.52 180.562M1010.84 189.384V222.325M1010.84 189.384L1017.06 186.443M1010.84 189.384L1004.61 192.324M985.934 201.146V234.088M985.934 201.146L992.16 198.206M985.934 201.146L979.708 204.087M1066.87 162.917V195.859L1054.42 201.74M1066.87 162.917L1063.76 164.388L1057.53 167.328L1051.31 170.269L1045.08 173.21L1038.85 176.151L1032.63 179.091L1026.4 182.032L1020.18 184.973L1013.95 187.913L1007.72 190.854L1001.5 193.795L995.273 196.735L989.047 199.676L982.821 202.617L976.595 205.557M1054.42 168.799V201.74M1041.97 174.68V207.622M1029.52 180.562V213.503M1017.06 186.443L1017.06 219.384M1004.61 192.324V225.266M992.16 198.206L992.16 231.147L1004.61 225.266M979.708 204.087V237.029M1029.52 213.503L1041.97 207.622M1029.52 213.503L1017.06 219.384M1004.61 225.266L1017.06 219.384M1054.42 201.74L1041.97 207.622M1069.98 194.389L1057.53 200.27L1045.08 206.151L1032.63 212.033L1020.18 217.914L1007.72 223.795L995.273 229.677L982.821 235.558M1063.76 197.329L1051.31 203.211L1038.85 209.092L1026.4 214.973L1013.95 220.855L1001.5 226.736L989.047 232.618" stroke="#FB6233" stroke-width="0.5"/>
<path d="M1073.1 159.977V192.918L1060.65 198.8L1048.19 204.681L1035.74 210.562L1023.29 216.444L1010.84 222.325L998.386 228.206L985.934 234.088L973.482 239.969M1073.1 159.977L1046.62 149.305L996.807 172.83L946.999 196.356M1073.1 159.977L1060.65 165.858L1048.19 171.739L1035.74 177.621L1023.29 183.502L1010.84 189.384L998.386 195.265L985.934 201.146L973.482 207.028M973.482 239.969L960.241 234.633L946.999 229.297L946.999 196.356M973.482 239.969V223.498V215.263V207.028M973.482 207.028L960.241 201.692L946.999 196.356M962.246 224.132V215.897M958.225 222.511V214.276" stroke="#FB6233"/>
<path d="M1046.61 148.719L1046.61 104.831M1046.61 104.831L1043.73 107.677M1046.61 104.831L1049.49 107.677" stroke="white" stroke-width="0.5"/>
<path d="M1009.13 166.816L1009.13 121.784M1009.13 121.784L1006.21 124.973M1009.13 121.784L1012.04 124.973" stroke="white" stroke-width="0.5"/>
<path d="M972.434 184.746L972.434 135.961M972.434 135.961L969.516 139.15M972.434 135.961L975.353 139.15" stroke="white" stroke-width="0.5"/>
<path d="M975.769 125.024H965.344V117.358L969.44 117.35M975.769 125.024L975.777 117.35H969.44M975.769 125.024H983.333V113.727H969.432L969.44 117.35M967.388 117.358L968.565 104.244M968.565 104.244H971.223M968.565 104.244H967.748M972.041 113.727L971.223 104.244M971.223 104.244H967.748M971.223 104.244H972.041V103.438H967.748V104.244" stroke="white" stroke-width="0.5"/>
<path d="M1047.76 78.0766L1040.56 79.6267V82.394M1058.55 76.7485H1055.67H1054.46H1052.79M1047.76 76.7485H1050.28H1052.79M1040.56 80.3463H1047.76M1058.55 83.8331V75.918H1054.46H1047.76V82.394M1058.55 83.8331V88.6212H1051.36H1044.7M1058.55 83.8331H1047.76M1058.55 82.394H1055.67H1052.79M1047.76 82.394H1050.28H1051.36H1052.79M1047.76 82.394V84.1929V88.6212H1044.7M1052.79 76.7485V82.394M1040.56 82.394V88.6212H1044.7M1040.56 82.394H1039.12M1039.12 82.394H1033.73V84.1929H1039.12V82.394ZM1044.7 88.6212H1043.8H1041.64H1044.7Z" stroke="white" stroke-width="0.5"/>
<path d="M451.208 160.062C457.264 160.062 462.174 155.153 462.174 149.097C462.174 143.04 457.264 138.131 451.208 138.131M451.208 160.062C445.152 160.062 440.242 155.153 440.242 149.097C440.242 143.04 445.152 138.131 451.208 138.131M451.208 160.062H412.994M451.208 138.131H411M411 160.062H412.994M412.994 135.805V160.062M412.994 162.721V160.062M412.994 160.062L411.997 161.059M412.994 160.062L413.991 159.065M411.997 139.128L412.994 138.131L413.991 137.134" stroke="white" stroke-width="0.5"/>
<path d="M500.721 192.631H549.237M500.721 173.357H551.23M551.23 192.631H549.237M549.237 171.031V192.631M549.237 195.289V192.631M549.237 192.631L550.234 193.627M549.237 192.631L548.24 191.634M550.234 174.354L549.237 173.357L548.24 172.36" stroke="white" stroke-width="0.5"/>
<circle cx="502.383" cy="182.992" r="9.63661" stroke="white"/>
<path d="M484.554 218.954L486.173 221.344L487.433 218.746L484.554 218.954ZM520.102 148.586C520.487 148.781 520.867 148.981 521.243 149.186L521.483 148.747C521.102 148.539 520.717 148.337 520.328 148.14L520.102 148.586ZM523.457 150.49C524.186 150.952 524.895 151.435 525.584 151.937L525.879 151.533C525.181 151.024 524.463 150.536 523.725 150.068L523.457 150.49ZM527.611 153.521C528.271 154.072 528.911 154.644 529.528 155.233L529.873 154.871C529.248 154.274 528.6 153.696 527.931 153.137L527.611 153.521ZM531.329 157.068C531.911 157.702 532.469 158.352 533.005 159.019L533.395 158.706C532.852 158.031 532.286 157.372 531.697 156.73L531.329 157.068ZM534.549 161.075C535.042 161.778 535.511 162.496 535.955 163.228L536.382 162.968C535.932 162.227 535.458 161.5 534.958 160.788L534.549 161.075ZM537.217 165.469C537.614 166.229 537.985 167.002 538.331 167.786L538.788 167.585C538.438 166.791 538.062 166.008 537.661 165.237L537.217 165.469ZM539.291 170.172C539.585 170.977 539.853 171.792 540.094 172.615L540.574 172.474C540.33 171.641 540.059 170.816 539.761 170.001L539.291 170.172ZM540.737 175.105C540.924 175.941 541.084 176.784 541.216 177.632L541.71 177.554C541.576 176.696 541.414 175.843 541.225 174.996L540.737 175.105ZM541.529 180.184C541.606 181.037 541.655 181.893 541.675 182.752L542.175 182.74C542.154 181.87 542.105 181.003 542.027 180.139L541.529 180.184ZM541.652 185.322C541.617 186.177 541.553 187.032 541.46 187.887L541.958 187.941C542.051 187.075 542.116 186.209 542.152 185.343L541.652 185.322ZM541.1 190.433C540.953 191.274 540.777 192.113 540.573 192.949L541.059 193.068C541.265 192.221 541.443 191.371 541.593 190.52L541.1 190.433ZM539.881 195.426C539.624 196.239 539.34 197.049 539.028 197.853L539.494 198.034C539.81 197.22 540.098 196.4 540.358 195.576L539.881 195.426ZM538.019 200.217C537.839 200.605 537.651 200.991 537.457 201.376L537.903 201.602C538.1 201.212 538.29 200.821 538.472 200.428L538.019 200.217ZM537.457 201.376C537.262 201.761 537.062 202.141 536.857 202.517L537.296 202.757C537.504 202.376 537.706 201.991 537.903 201.602L537.457 201.376ZM535.553 204.731C535.091 205.46 534.608 206.169 534.106 206.858L534.51 207.153C535.019 206.455 535.507 205.737 535.975 204.999L535.553 204.731ZM532.522 208.885C531.971 209.545 531.399 210.185 530.81 210.802L531.172 211.147C531.769 210.522 532.347 209.874 532.906 209.205L532.522 208.885ZM528.975 212.603C528.341 213.185 527.691 213.743 527.024 214.279L527.337 214.669C528.012 214.126 528.671 213.56 529.313 212.971L528.975 212.603ZM524.968 215.823C524.265 216.316 523.547 216.785 522.815 217.229L523.075 217.656C523.816 217.206 524.543 216.732 525.255 216.232L524.968 215.823ZM520.575 218.491C519.814 218.888 519.041 219.259 518.257 219.605L518.458 220.062C519.252 219.712 520.035 219.336 520.806 218.935L520.575 218.491ZM515.871 220.565C515.066 220.859 514.251 221.127 513.428 221.368L513.569 221.848C514.402 221.604 515.227 221.333 516.043 221.035L515.871 220.565ZM510.938 222.011C510.102 222.198 509.259 222.358 508.411 222.49L508.489 222.984C509.347 222.85 510.2 222.688 511.047 222.499L510.938 222.011ZM505.859 222.803C505.006 222.88 504.15 222.929 503.291 222.949L503.303 223.449C504.173 223.428 505.04 223.379 505.904 223.301L505.859 222.803ZM500.721 222.926C499.866 222.891 499.011 222.827 498.156 222.734L498.102 223.232C498.968 223.325 499.834 223.39 500.7 223.426L500.721 222.926ZM495.61 222.374C494.769 222.227 493.93 222.051 493.094 221.847L492.975 222.333C493.822 222.539 494.672 222.717 495.524 222.867L495.61 222.374ZM490.617 221.155C489.804 220.898 488.994 220.614 488.19 220.302L488.009 220.768C488.823 221.084 489.643 221.372 490.467 221.632L490.617 221.155Z" fill="#FB6233"/>
<path d="M422.963 129.247L423.097 126.363L425.527 127.921L422.963 129.247ZM425.059 125.804C425.618 125.094 426.201 124.412 426.807 123.757L427.174 124.096C426.577 124.741 426.003 125.414 425.452 126.113L425.059 125.804ZM428.711 121.853C429.373 121.242 430.056 120.659 430.758 120.107L431.068 120.5C430.376 121.044 429.702 121.618 429.05 122.22L428.711 121.853ZM432.939 118.527C433.688 118.028 434.454 117.561 435.236 117.125L435.48 117.561C434.709 117.991 433.954 118.452 433.216 118.943L432.939 118.527ZM437.637 115.907C438.454 115.532 439.284 115.19 440.126 114.881L440.298 115.35C439.469 115.655 438.65 115.992 437.845 116.361L437.637 115.907ZM442.687 114.053C443.551 113.81 444.424 113.601 445.305 113.427L445.402 113.917C444.534 114.089 443.674 114.295 442.822 114.534L442.687 114.053ZM447.964 113.007C448.854 112.902 449.749 112.831 450.647 112.796L450.667 113.296C449.782 113.331 448.9 113.4 448.022 113.504L447.964 113.007ZM453.339 112.796C454.234 112.831 455.129 112.902 456.023 113.008L455.964 113.504C455.083 113.4 454.201 113.33 453.319 113.296L453.339 112.796ZM458.682 113.43C459.558 113.605 460.431 113.815 461.298 114.061L461.161 114.542C460.307 114.3 459.447 114.093 458.584 113.921L458.682 113.43ZM463.857 114.898C464.693 115.208 465.522 115.553 466.341 115.933L466.131 116.386C465.324 116.012 464.507 115.672 463.683 115.367L463.857 114.898ZM468.738 117.159C469.128 117.379 469.515 117.606 469.9 117.842L469.638 118.269C469.259 118.036 468.877 117.811 468.493 117.595L468.738 117.159ZM469.9 117.842C470.265 118.067 470.625 118.297 470.979 118.533L470.702 118.949C470.353 118.717 469.998 118.49 469.638 118.269L469.9 117.842ZM473.058 120.031C473.737 120.56 474.39 121.11 475.02 121.68L474.684 122.05C474.064 121.488 473.419 120.946 472.751 120.426L473.058 120.031ZM476.852 123.471C477.442 124.094 478.006 124.735 478.544 125.395L478.156 125.711C477.627 125.061 477.071 124.429 476.489 123.815L476.852 123.471ZM480.087 127.441C480.576 128.144 481.038 128.863 481.471 129.597L481.041 129.851C480.614 129.128 480.159 128.42 479.676 127.727L480.087 127.441ZM482.69 131.851C483.069 132.618 483.418 133.398 483.738 134.189L483.274 134.376C482.959 133.597 482.615 132.828 482.242 132.072L482.69 131.851ZM484.608 136.599C484.869 137.413 485.099 138.236 485.298 139.066L484.811 139.183C484.615 138.364 484.389 137.553 484.132 136.751L484.608 136.599ZM485.802 141.579C485.938 142.421 486.044 143.269 486.118 144.121L485.62 144.164C485.547 143.325 485.443 142.489 485.308 141.659L485.802 141.579ZM486.244 146.68C486.249 147.107 486.246 147.534 486.235 147.962L485.735 147.949C485.746 147.528 485.749 147.107 485.744 146.686L486.244 146.68Z" fill="#FB6233"/>
<circle cx="451.209" cy="149.096" r="7.64283" stroke="white"/>
<path d="M470.812 187.148V178.84L479.785 174.52L480.411 173.008L477.121 163.609L482.996 157.735L492.394 161.024L493.907 160.398L498.227 151.426H506.534L510.854 160.398L512.367 161.024L521.765 157.735L527.64 163.609L524.35 173.008L524.977 174.52L533.949 178.84V187.148L524.977 191.468L524.35 192.98L527.64 202.379L521.765 208.253L512.367 204.964L510.854 205.59L506.534 214.562H498.227L493.907 205.59L492.394 204.964L482.996 208.253L477.121 202.379L480.411 192.98L479.785 191.468L470.812 187.148Z" stroke="white"/>
<path d="M431.204 144.485L433.802 138.221L428.645 128.901L431.007 126.535L440.353 131.644L446.644 129.114M471.208 153.714L468.616 159.98L473.772 169.3L471.406 171.662L462.06 166.552L455.771 169.087M455.822 129.094L462.086 131.691L471.406 126.535L473.772 128.897L468.663 138.243L471.193 144.534M446.593 169.098L440.327 166.505L431.007 171.662L428.645 169.296L433.754 159.95L431.22 153.661M468.615 138.216L471.208 144.482L481.444 147.425L481.447 150.769L471.226 153.764L468.566 160.002M433.802 159.976L431.205 153.712L420.969 150.769L420.972 147.425L431.193 144.43L433.848 138.19M462.09 166.506L455.825 169.099L452.881 179.335L449.538 179.337L446.542 169.116L440.304 166.457M440.33 131.693L446.594 129.095L449.538 118.859L452.881 118.862L455.876 129.083L462.116 131.739" stroke="white"/>
<path d="M647.723 166.008H698.846" stroke="#F96133"/>
<path d="M647.723 174.391H698.846" stroke="#F96133" stroke-width="0.5"/>
<path d="M647.723 178.582H698.846" stroke="#F96133" stroke-width="0.5"/>
<path d="M647.723 182.77H698.846" stroke="#F96133" stroke-width="0.5"/>
<path d="M647.723 186.961H698.846" stroke="#F96133" stroke-width="0.5"/>
<path d="M647.723 191.152H698.846" stroke="#F96133" stroke-width="0.5"/>
<path d="M647.723 195.344H698.846" stroke="#F96133" stroke-width="0.5"/>
<path d="M647.723 199.531H698.846" stroke="#F96133" stroke-width="0.5"/>
<path d="M647.723 203.723H698.846" stroke="#F96133" stroke-width="0.5"/>
<path d="M647.723 207.914H698.846" stroke="#F96133" stroke-width="0.5"/>
<path d="M647.723 212.105H691.304" stroke="#F96133" stroke-width="0.5"/>
<path d="M638.087 231.381V140.029M638.087 231.381H708.906M638.087 231.381H635.992M638.087 231.381V229.286M638.087 231.381H640.183M638.087 231.381V233.476M638.087 140.029H700.106M638.087 140.029H635.992M638.087 140.029V137.934M700.106 148.829H708.906M700.106 148.829V140.029M700.106 148.829H698.011M700.106 148.829V146.734M700.106 148.829H702.202M700.106 148.829V150.924M708.906 231.381V148.829M708.906 231.381H706.811M708.906 231.381V229.286M708.906 231.381H711.002M708.906 231.381V233.476M708.906 148.829L700.106 140.029M708.906 148.829H706.811M708.906 148.829V146.734M708.906 148.829H711.002M708.906 148.829V150.924M700.106 140.029H698.011M700.106 140.029V137.934M700.106 140.029H702.202M700.106 140.029V142.124" stroke="white" stroke-width="0.5"/>
<path d="M625.095 217.971V126.619M625.095 217.971H623M625.095 217.971V215.876M625.095 217.971H627.19M625.095 217.971V220.066M625.095 217.971H638.505M625.095 126.619H687.114H695.914M625.095 126.619H623M625.095 126.619V124.523M695.914 126.619V124.523M695.914 126.619H698.01M695.914 126.619V140.028" stroke="white" stroke-width="0.5"/>
<path d="M633.478 226.772V135.419M633.478 226.772H631.383M633.478 226.772V224.677M633.478 226.772H635.573M633.478 226.772V228.867M633.478 226.772H638.088M633.478 135.419H695.497H704.297M633.478 135.419H631.383M633.478 135.419V133.324M704.297 135.419V134.162V143.8M704.297 135.419V133.324M704.297 135.419H706.392" stroke="white" stroke-width="0.5"/>
<path d="M629.287 222.58V131.228M629.287 222.58H627.191M629.287 222.58V220.485M629.287 222.58H631.382M629.287 222.58V224.676M629.287 222.58H638.506M629.287 131.228H691.306H700.106M629.287 131.228H627.191M629.287 131.228V129.133M700.106 145.057V131.228M700.106 131.228V129.133M700.106 131.228H702.201" stroke="white" stroke-width="0.5"/>
<path d="M638.504 140.027V231.38H709.323V148.827L700.523 140.027H638.504Z" stroke="white"/>
<path d="M794.488 239.842L792.828 241.502M826.02 239.842L824.36 241.502M793.658 232.789V240.672H825.19V232.789" stroke="#FB6233" stroke-width="0.5"/>
<path d="M794.864 171.243V114.957M794.864 114.957L792 117.789M794.864 114.957L797.728 117.789" stroke="#F96133" stroke-width="0.5"/>
<path d="M804.739 169.584V105M804.739 105L801.875 107.832M804.739 105L807.603 107.832" stroke="#F96133" stroke-width="0.5"/>
<path d="M814.618 169.584V105M814.618 105L811.754 107.832M814.618 105L817.482 107.832" stroke="#F96133" stroke-width="0.5"/>
<path d="M824.493 171.243V114.957M824.493 114.957L821.629 117.789M824.493 114.957L827.357 117.789" stroke="#F96133" stroke-width="0.5"/>
<path d="M863.361 182.356V189.637M870.829 178.435C870.829 180.955 863.77 182.999 855.063 182.999C846.356 182.999 839.297 180.955 839.297 178.435M870.829 178.435C870.829 175.914 863.77 173.871 855.063 173.871C846.356 173.871 839.297 175.914 839.297 178.435M870.829 178.435V185.903C870.829 188.424 863.77 190.467 855.063 190.467C846.356 190.467 839.297 188.424 839.297 185.903V178.435" stroke="white" stroke-width="0.5"/>
<path d="M863.361 124.485V131.766M870.829 120.564C870.829 123.084 863.77 125.128 855.063 125.128C846.356 125.128 839.297 123.084 839.297 120.564M870.829 120.564C870.829 118.043 863.77 116 855.063 116C846.356 116 839.297 118.043 839.297 120.564M870.829 120.564V128.032C870.829 130.552 863.77 132.596 855.063 132.596C846.356 132.596 839.297 130.552 839.297 128.032V120.564" stroke="white" stroke-width="0.5"/>
<path d="M818.064 183.485V190.766M825.532 179.564C825.532 182.084 818.473 184.128 809.766 184.128C801.059 184.128 794 182.084 794 179.564M825.532 179.564C825.532 177.043 818.473 175 809.766 175C801.059 175 794 177.043 794 179.564M825.532 179.564V187.032C825.532 189.552 818.473 191.596 809.766 191.596C801.059 191.596 794 189.552 794 187.032V179.564" stroke="white" stroke-width="0.5"/>
<path d="M818.064 222.485V229.766M825.532 218.564C825.532 221.084 818.473 223.128 809.766 223.128C801.059 223.128 794 221.084 794 218.564M825.532 218.564C825.532 216.043 818.473 214 809.766 214C801.059 214 794 216.043 794 218.564M825.532 218.564V226.032C825.532 228.552 818.473 230.596 809.766 230.596C801.059 230.596 794 228.552 794 226.032V218.564" stroke="white" stroke-width="0.5"/>
<path d="M863.361 202.485V209.766M870.829 198.564C870.829 201.084 863.77 203.128 855.063 203.128C846.356 203.128 839.297 201.084 839.297 198.564M870.829 198.564C870.829 196.043 863.77 194 855.063 194C846.356 194 839.297 196.043 839.297 198.564M870.829 198.564V206.032C870.829 208.552 863.77 210.596 855.063 210.596C846.356 210.596 839.297 208.552 839.297 206.032V198.564" stroke="white" stroke-width="0.5"/>
<path d="M863.361 222.614V229.895M870.829 218.693C870.829 221.213 863.77 223.257 855.063 223.257C846.356 223.257 839.297 221.213 839.297 218.693M870.829 218.693C870.829 216.172 863.77 214.129 855.063 214.129C846.356 214.129 839.297 216.172 839.297 218.693M870.829 218.693V226.161C870.829 228.681 863.77 230.725 855.063 230.725C846.356 230.725 839.297 228.681 839.297 226.161V218.693" stroke="white" stroke-width="0.5"/>
<path d="M870.829 159.353C870.829 161.873 863.77 163.917 855.063 163.917C846.356 163.917 839.297 161.873 839.297 159.353M870.829 159.353C870.829 156.832 863.77 154.789 855.063 154.789C846.356 154.789 839.297 156.832 839.297 159.353M870.829 159.353V166.821C870.829 169.342 863.77 171.385 855.063 171.385C846.356 171.385 839.297 169.342 839.297 166.821V159.353" stroke="white" stroke-width="0.5"/>
<path d="M870.829 140.267C870.829 142.787 863.77 144.831 855.063 144.831C846.356 144.831 839.297 142.787 839.297 140.267M870.829 140.267C870.829 137.746 863.77 135.703 855.063 135.703C846.356 135.703 839.297 137.746 839.297 140.267M870.829 140.267V147.735C870.829 150.256 863.77 152.299 855.063 152.299C846.356 152.299 839.297 150.256 839.297 147.735V140.267" stroke="white" stroke-width="0.5"/>
<path d="M825.532 199.267C825.532 201.787 818.473 203.831 809.766 203.831C801.059 203.831 794 201.787 794 199.267M825.532 199.267C825.532 196.746 818.473 194.703 809.766 194.703C801.059 194.703 794 196.746 794 199.267M825.532 199.267V206.735C825.532 209.256 818.473 211.299 809.766 211.299C801.059 211.299 794 209.256 794 206.735V199.267" stroke="white" stroke-width="0.5"/>
<path d="M870.829 178.435C870.829 180.955 863.77 182.999 855.063 182.999C846.356 182.999 839.297 180.955 839.297 178.435M870.829 178.435C870.829 175.914 863.77 173.871 855.063 173.871C846.356 173.871 839.297 175.914 839.297 178.435M870.829 178.435V185.903C870.829 188.424 863.77 190.467 855.063 190.467C846.356 190.467 839.297 188.424 839.297 185.903V178.435" stroke="white"/>
<path d="M870.829 120.564C870.829 123.084 863.77 125.128 855.063 125.128C846.356 125.128 839.297 123.084 839.297 120.564M870.829 120.564C870.829 118.043 863.77 116 855.063 116C846.356 116 839.297 118.043 839.297 120.564M870.829 120.564V128.032C870.829 130.552 863.77 132.596 855.063 132.596C846.356 132.596 839.297 130.552 839.297 128.032V120.564" stroke="white"/>
<path d="M825.532 179.564C825.532 182.084 818.473 184.128 809.766 184.128C801.059 184.128 794 182.084 794 179.564M825.532 179.564C825.532 177.043 818.473 175 809.766 175C801.059 175 794 177.043 794 179.564M825.532 179.564V187.032C825.532 189.552 818.473 191.596 809.766 191.596C801.059 191.596 794 189.552 794 187.032V179.564" stroke="white"/>
<path d="M825.532 218.564C825.532 221.084 818.473 223.128 809.766 223.128C801.059 223.128 794 221.084 794 218.564M825.532 218.564C825.532 216.043 818.473 214 809.766 214C801.059 214 794 216.043 794 218.564M825.532 218.564V226.032C825.532 228.552 818.473 230.596 809.766 230.596C801.059 230.596 794 228.552 794 226.032V218.564" stroke="white"/>
<path d="M870.829 198.564C870.829 201.084 863.77 203.128 855.063 203.128C846.356 203.128 839.297 201.084 839.297 198.564M870.829 198.564C870.829 196.043 863.77 194 855.063 194C846.356 194 839.297 196.043 839.297 198.564M870.829 198.564V206.032C870.829 208.552 863.77 210.596 855.063 210.596C846.356 210.596 839.297 208.552 839.297 206.032V198.564" stroke="white"/>
<path d="M870.829 218.693C870.829 221.213 863.77 223.257 855.063 223.257C846.356 223.257 839.297 221.213 839.297 218.693M870.829 218.693C870.829 216.172 863.77 214.129 855.063 214.129C846.356 214.129 839.297 216.172 839.297 218.693M870.829 218.693V226.161C870.829 228.681 863.77 230.725 855.063 230.725C846.356 230.725 839.297 228.681 839.297 226.161V218.693" stroke="white"/>
<path d="M874.98 158.522H881.204M881.204 158.522L880.167 157.484M881.204 158.522L882.241 159.559M881.204 158.522V166.819M874.98 166.819H881.204M881.204 166.819L880.167 165.782M881.204 166.819L882.241 167.857" stroke="#FB6233" stroke-width="0.5"/>
<path d="M157 177.75H204" stroke="#FB6233" stroke-width="0.5"/>
<line x1="1111" y1="177.75" x2="1153" y2="177.75" stroke="#FB6233" stroke-width="0.5"/>
<path d="M1008.07 105.97H1018.86V81.7539H1014.77H1008.07V105.97ZM1008.07 105.97H1000.87V84.7431H1008.07M1018.86 82.5844H1014.77H1008.07M1000.87 85.4626H1008.07" stroke="white" stroke-width="0.5"/>
<line x1="1004.25" y1="87" x2="1004.25" y2="104" stroke="white" stroke-width="0.5"/>
<line x1="1011.25" y1="87" x2="1011.25" y2="104" stroke="white" stroke-width="0.5"/>
<line x1="1015.25" y1="87" x2="1015.25" y2="104" stroke="white" stroke-width="0.5"/>
<path d="M118.766 132.992L92.2839 148.281M105.525 155.927L105.524 125.347M92.2827 117.701L118.767 163.573M118.766 148.282L92.2833 132.991" stroke="#FB6233" stroke-width="4"/>
<path d="M150.484 195.457L67.3011 156.168C67.0885 156.068 66.8717 155.979 66.6517 155.903C65.9256 155.651 65.1647 155.531 64.4046 155.544C63.613 155.557 62.8223 155.714 62.0725 156.016L1.87631 180.274C1.36911 180.478 1.0955 180.926 1.06208 181.389M150.415 197.849L115.644 211.861M1.06208 181.389C1.02589 181.892 1.27131 182.413 1.8067 182.666L84.9897 221.955C86.6352 222.732 88.5304 222.788 90.2183 222.107L115.644 211.861M1.06208 181.389V184.551M1.06208 184.551C1.02397 184.022 1.29862 183.474 1.87631 183.241L62.0725 158.983C63.7604 158.303 65.6556 158.358 67.3011 159.135L72.4321 161.559M1.06208 184.551C1.09366 184.988 1.34002 185.413 1.8067 185.633L6.60802 187.901L84.9897 224.923C86.6352 225.7 88.5304 225.755 90.2183 225.075L94.4241 223.38L150.415 200.817C150.91 200.617 151.183 200.185 151.226 199.733C151.275 199.221 151.031 198.683 150.484 198.425L72.4321 161.559M27.1799 170.077L102.511 205.658M115.644 211.861L102.511 205.658M102.511 205.658L140.051 190.53L136.661 191.896M38.282 175.321L72.4321 161.559M67.6517 94.2253V144.497C67.6517 147.023 69.1085 149.322 71.3922 150.401L145.765 185.529C146.632 185.938 147.629 185.306 147.629 184.348V134.076C147.629 131.551 146.172 129.252 143.888 128.173L69.5152 93.0446C68.649 92.6355 67.6517 93.2674 67.6517 94.2253Z" stroke="white" stroke-width="0.5"/>
<path d="M67.193 84.1591C67.2868 84.1082 67.3867 84.0685 67.4907 84.0415M67.193 84.1591L64.7164 85.1249M67.193 84.1591L67.4907 84.0415M67.4907 84.0415C67.7704 83.9689 68.079 83.988 68.3725 84.1267L151.233 123.264C153.517 124.342 154.974 126.642 154.974 129.167V195.439C154.974 196.045 154.574 196.521 154.06 196.685M154.06 196.685L151.226 197.849C151.489 197.724 151.935 197.367 152.067 197.098C152.151 196.927 152.199 196.732 152.199 196.522V130.251C152.199 127.725 150.742 125.426 148.459 124.347L65.5979 85.2101C65.5659 85.195 65.5338 85.1813 65.5015 85.169C64.6595 84.848 63.7345 85.4682 63.7345 86.3907V152.662C63.7345 153.681 63.9717 154.663 64.4046 155.543M154.06 196.685L154.226 196.619M1.06208 181.389C1.0955 180.926 1.36911 180.478 1.87631 180.274L62.0725 156.016C62.8223 155.714 63.613 155.557 64.4046 155.543M1.06208 181.389C1.02589 181.892 1.27131 182.413 1.8067 182.666L84.9898 221.955C86.6353 222.732 88.5305 222.788 90.2184 222.107L98.6684 218.702L115.644 211.861L150.415 197.849C150.91 197.649 151.183 197.218 151.226 196.766M1.06208 181.389V184.55C1.09366 184.988 1.34002 185.413 1.8067 185.633L84.9898 224.923C86.6353 225.7 88.5305 225.755 90.2184 225.075L150.415 200.817C150.91 200.617 151.183 200.185 151.226 199.733V196.766M151.226 196.766C151.275 196.254 151.031 195.716 150.484 195.457L140.051 190.53L75.5 160L67.3011 156.168C66.3866 155.736 65.3949 155.527 64.4046 155.543M48.1872 183.881L30.7206 190.92C29.8695 191.263 29.8348 192.455 30.6645 192.847L59.918 206.664C61.2437 207.291 62.7706 207.335 64.1305 206.787L81.5971 199.748C82.4482 199.405 82.4829 198.213 81.6532 197.821L52.3998 184.004C51.074 183.378 49.5471 183.333 48.1872 183.881Z" stroke="white"/>
<circle cx="1206.61" cy="176.231" r="53.6141" stroke="white"/>
<path d="M1180.18 129.576C1163.95 138.792 1153 156.233 1153 176.231C1153 199.015 1167.21 218.479 1187.25 226.243M1180.18 129.576C1187.98 125.147 1197 122.617 1206.61 122.617C1208.63 122.617 1210.62 122.728 1212.57 122.944M1180.18 129.576C1179.68 131.476 1178.24 135.648 1176.46 137.138C1174.22 138.999 1172.73 149.052 1174.97 150.169C1177.2 151.286 1177.2 151.658 1180.18 155.754C1183.16 159.849 1185.76 157.615 1188.37 158.36C1190.98 159.105 1189.12 162.455 1193.21 162.455C1197.31 162.455 1194.7 167.668 1200.66 167.668C1206.61 167.668 1206.24 171.391 1204.38 172.136C1202.52 172.88 1200.66 178.093 1200.66 180.327C1200.66 182.561 1206.24 195.22 1210.71 196.337C1215.18 197.453 1210.55 202.948 1209.96 207.134C1209.18 212.757 1203.26 219.048 1206.61 221.282C1209.29 223.069 1211.7 222.771 1212.57 222.399C1211.83 221.282 1210.78 219.122 1212.57 219.42C1214.81 219.793 1214.43 214.953 1215.92 214.953C1217.41 214.953 1223 210.857 1224.86 208.995C1226.72 207.134 1236.4 201.921 1236.4 198.198C1236.4 194.475 1241.61 196.337 1241.61 190.007C1241.61 183.678 1248.31 189.262 1246.82 183.305C1245.34 177.348 1233.42 178.093 1233.79 175.114C1234.17 172.136 1231.56 168.04 1227.09 168.413C1222.62 168.785 1221.88 164.317 1215.92 163.945C1209.96 163.572 1208.48 163.945 1205.12 165.062C1201.77 166.179 1193.58 162.828 1196.56 160.594C1199.54 158.36 1190.23 161.338 1192.84 158.732C1195.44 156.126 1196.93 151.286 1194.7 152.403C1192.47 153.52 1189.12 158.732 1187.25 155.754C1185.39 152.775 1183.53 149.052 1188 146.818C1192.47 144.584 1198.8 143.467 1199.54 145.701C1200.28 147.935 1201.4 149.797 1202.52 149.424C1203.64 149.052 1199.91 144.212 1201.4 143.839C1204.75 141.978 1212.2 141.605 1212.57 137.138C1212.94 132.67 1217.04 136.393 1218.53 134.159C1220.02 131.925 1223 136.765 1222.25 131.925C1221.51 127.085 1215.18 128.202 1215.18 125.968C1215.18 124.181 1213.44 123.208 1212.57 122.944M1212.57 122.944C1227.56 124.601 1240.68 132.433 1249.34 143.839M1249.34 143.839C1249.49 147.19 1250.25 154.264 1252.04 155.754C1254.27 157.615 1258.74 162.455 1255.39 165.062C1252.04 167.668 1249.8 169.529 1252.78 169.529C1255.76 169.529 1256.5 172.136 1256.5 172.88C1256.5 173.476 1258.89 172.762 1260.09 172.33M1249.34 143.839C1255.44 151.868 1259.32 161.667 1260.09 172.33M1260.09 172.33C1260.18 173.618 1260.23 174.919 1260.23 176.231C1260.23 204.083 1238.99 226.974 1211.83 229.595M1187.25 226.243C1193.26 228.569 1199.79 229.845 1206.61 229.845C1208.37 229.845 1210.11 229.761 1211.83 229.595M1187.25 226.243C1193.21 226.036 1206.47 226.416 1211.83 229.595M1198.8 152.03C1201.4 151.658 1202.15 151.286 1205.12 152.775C1208.1 154.264 1208.48 155.009 1205.5 155.009C1202.52 155.009 1195.44 152.328 1198.8 152.03ZM1209.59 155.009C1209.59 154.264 1213.32 153.52 1213.69 154.264C1214.06 155.009 1209.59 155.754 1209.59 155.009ZM1218.53 161.711C1217.04 160.594 1217.41 159.477 1218.53 159.477C1219.65 159.477 1220.02 162.828 1218.53 161.711ZM1226.35 130.808C1228.58 132.298 1237.52 132.298 1232.68 130.808C1228.8 129.617 1226.84 130.312 1226.35 130.808ZM1177.95 172.136C1179.06 172.136 1179.14 173.923 1177.95 173.625C1177.95 173.625 1176.83 172.136 1177.95 172.136ZM1160.45 155.009C1158.58 155.009 1157.54 168.115 1159.33 163.945C1161.56 158.732 1164.54 161.338 1164.17 159.477C1163.87 157.988 1162.31 155.009 1160.45 155.009Z" stroke="white" stroke-width="0.5"/>
<path d="M1189.24 173.254C1189.24 173.938 1188.68 174.493 1188 174.493C1187.31 174.493 1186.76 173.938 1186.76 173.254C1186.76 172.569 1187.31 172.014 1188 172.014C1188.68 172.014 1189.24 172.569 1189.24 173.254ZM1222 187.402C1222 188.086 1221.45 188.641 1220.76 188.641C1220.08 188.641 1219.52 188.086 1219.52 187.402C1219.52 186.717 1220.08 186.162 1220.76 186.162C1221.45 186.162 1222 186.717 1222 187.402ZM1201.15 139.745C1201.15 140.429 1200.6 140.984 1199.91 140.984C1199.23 140.984 1198.67 140.429 1198.67 139.745C1198.67 139.06 1199.23 138.506 1199.91 138.506C1200.6 138.506 1201.15 139.06 1201.15 139.745ZM1184.77 143.468C1184.77 144.152 1184.21 144.707 1183.53 144.707C1182.84 144.707 1182.29 144.152 1182.29 143.468C1182.29 142.784 1182.84 142.229 1183.53 142.229C1184.21 142.229 1184.77 142.784 1184.77 143.468ZM1192.21 128.575C1192.21 129.26 1191.66 129.814 1190.98 129.814C1190.29 129.814 1189.74 129.26 1189.74 128.575C1189.74 127.891 1190.29 127.336 1190.98 127.336C1191.66 127.336 1192.21 127.891 1192.21 128.575ZM1258.49 168.786C1258.49 169.47 1257.93 170.025 1257.25 170.025C1256.56 170.025 1256.01 169.47 1256.01 168.786C1256.01 168.101 1256.56 167.546 1257.25 167.546C1257.93 167.546 1258.49 168.101 1258.49 168.786ZM1224.98 221.655C1224.98 222.34 1224.42 222.894 1223.74 222.894C1223.05 222.894 1222.5 222.34 1222.5 221.655C1222.5 220.971 1223.05 220.416 1223.74 220.416C1224.42 220.416 1224.98 220.971 1224.98 221.655ZM1181.79 207.507C1181.79 208.191 1181.23 208.746 1180.55 208.746C1179.87 208.746 1179.31 208.191 1179.31 207.507C1179.31 206.823 1179.87 206.268 1180.55 206.268C1181.23 206.268 1181.79 206.823 1181.79 207.507ZM1162.73 158.501C1162.73 159.185 1162.17 159.74 1161.49 159.74C1160.8 159.74 1160.25 159.185 1160.25 158.501C1160.25 157.817 1160.8 157.262 1161.49 157.262C1162.17 157.262 1162.73 157.817 1162.73 158.501Z" stroke="#FB6233" stroke-width="0.5"/>
</svg>
