<svg width="315" height="430" viewBox="0 0 315 430" fill="none" xmlns="http://www.w3.org/2000/svg">
<mask id="mask0" mask-type="alpha" maskUnits="userSpaceOnUse" x="0" y="0" width="315" height="430">
<rect width="315" height="430" fill="#C4C4C4"/>
</mask>
<g mask="url(#mask0)">
<path d="M-45.9432 200V398.092M-45.9432 200H-29.0023M-45.9432 200H-62.8842M-45.9432 398.092H-29.0023M-45.9432 398.092H-62.8842M89.5845 200V398.092M89.5845 200H72.6436M89.5845 200H106.525M89.5845 398.092H72.6436M89.5845 398.092H106.525M21.8206 200V398.092M21.8206 200H4.87965M21.8206 200H38.7616M21.8206 398.092H4.87965M21.8206 398.092H38.7616M55.7026 200V398.092M55.7026 200H38.7616M55.7026 200H72.6436M55.7026 398.092H38.7616M55.7026 398.092H72.6436M-12.0613 200V398.092M-12.0613 200H4.87965M-12.0613 200H-29.0023M-12.0613 398.092H4.87965M-12.0613 398.092H-29.0023M4.87965 200V398.092M-29.0023 200V398.092M38.7616 398.092V200M72.6436 200V398.092M157.348 398.092V200M157.348 398.092H140.407M157.348 398.092H174.289M157.348 200H140.407M157.348 200H174.289M123.466 200V398.092M123.466 200H106.525M123.466 200H140.407M123.466 398.092H106.525M123.466 398.092H140.407M106.525 398.092V200M140.407 200V398.092M191.23 398.092V200M191.23 398.092H208.171M191.23 398.092H174.289M191.23 200H208.171M191.23 200H174.289M208.171 200H225.112V398.092H208.171M208.171 200V398.092M174.289 398.092V200M-181.471 200V398.092M-181.471 200H-198.412M-181.471 200H-164.53M-181.471 398.092H-198.412M-181.471 398.092H-164.53M-249.235 200V398.092M-249.235 200H-266.176M-249.235 200H-232.294M-249.235 398.092H-266.176M-249.235 398.092H-232.294M-215.353 200V398.092M-215.353 200H-232.294M-215.353 200H-198.412M-215.353 398.092H-232.294M-215.353 398.092H-198.412M-283.117 200V398.092M-283.117 200H-266.176M-283.117 200H-300.058M-283.117 200H-240.764H-198.412M-283.117 398.092H-266.176M-283.117 398.092H-300.058M-266.176 200V398.092M-300.058 200H-316.999V398.092H-300.058M-300.058 200V398.092M-232.294 398.092V200M-198.412 200V398.092M-113.707 398.092V200M-113.707 398.092H-130.648M-113.707 398.092H-96.7662M-113.707 200H-130.648M-113.707 200H-96.7662M-147.589 200V398.092M-147.589 200H-164.53M-147.589 200H-130.648M-147.589 398.092H-164.53M-147.589 398.092H-130.648M-164.53 398.092V200M-130.648 200V398.092M-79.8252 398.092V200M-79.8252 398.092H-62.8842M-79.8252 398.092H-96.7662M-79.8252 200H-62.8842M-79.8252 200H-96.7662M-62.8842 200V398.092M-96.7662 398.092V200" stroke="white" stroke-width="0.5"/>
<path d="M10.0558 2V199.592M10.0558 2H26.9967M10.0558 2H-6.88521M10.0558 199.592H26.9967M10.0558 199.592H-6.88521M145.584 2V199.592M145.584 2H128.643M145.584 2H162.525M145.584 199.592H128.643M145.584 199.592H162.525M77.8196 2V199.592M77.8196 2H60.8787M77.8196 2H94.7606M77.8196 199.592H60.8787M77.8196 199.592H94.7606M111.702 2V199.592M111.702 2H94.7606M111.702 2H128.643M111.702 199.592H94.7606M111.702 199.592H128.643M43.9377 2V199.592M43.9377 2H60.8787M43.9377 2H26.9967M43.9377 199.592H60.8787M43.9377 199.592H26.9967M60.8787 2V199.592M26.9967 2V199.592M94.7606 199.592V2M128.643 2V199.592M213.347 199.592V2M213.347 199.592H196.406M213.347 199.592H230.288M213.347 2H196.406M213.347 2H230.288M179.465 2V199.592M179.465 2H162.525M179.465 2H196.406M179.465 199.592H162.525M179.465 199.592H196.406M162.525 199.592V2M196.406 2V199.592M247.229 199.592V2M247.229 199.592H264.17M247.229 199.592H230.288M247.229 2H264.17M247.229 2H230.288M264.17 2H281.111V199.592H264.17M264.17 2V199.592M230.288 199.592V2M-125.472 2V199.592M-125.472 2H-142.413M-125.472 2H-108.531M-125.472 199.592H-142.413M-125.472 199.592H-108.531M-193.236 2V199.592M-193.236 2H-210.177M-193.236 2H-176.295M-193.236 199.592H-210.177M-193.236 199.592H-176.295M-159.354 2V199.592M-159.354 2H-176.295M-159.354 2H-142.413M-159.354 199.592H-176.295M-159.354 199.592H-142.413M-227.118 2V199.592M-227.118 2H-210.177M-227.118 2H-244.059M-227.118 2H-184.765H-142.413M-227.118 199.592H-210.177M-227.118 199.592H-244.059M-210.177 2V199.592M-244.059 2H-261V199.592H-244.059M-244.059 2V199.592M-176.295 199.592V2M-142.413 2V199.592M-57.7082 199.592V2M-57.7082 199.592H-74.6491M-57.7082 199.592H-40.7672M-57.7082 2H-74.6491M-57.7082 2H-40.7672M-91.5901 2V199.592M-91.5901 2H-108.531M-91.5901 2H-74.6491M-91.5901 199.592H-108.531M-91.5901 199.592H-74.6491M-108.531 199.592V2M-74.6491 2V199.592M-23.8262 199.592V2M-23.8262 199.592H-6.88521M-23.8262 199.592H-40.7672M-23.8262 2H-6.88521M-23.8262 2H-40.7672M-6.88521 2V199.592M-40.7672 199.592V2" stroke="white" stroke-width="0.5"/>
<path d="M225 200.5V398H210.75H196.5H182.25H168H153.75H139.5H125.25H111H96.75H82.5H68.25H54H39.75H25.5H11.25H-3H-17.25H-31.5H-45.75H-60H-74.25H-88.5H-102.75H-117H-131.25H-145.5H-159.75H-174H-188.25H-202.5H-216.75H-231" stroke="#FB6233" stroke-width="1.3"/>
<path d="M281.111 2V199.592H264.17H247.229H230.288H213.347H196.406H179.465H162.525H145.584H128.643H111.702H94.7606H77.8197H60.8787H43.9377H26.9967H10.0558H-6.88519H-23.8262H-40.7672H-57.7081H-74.6491H-91.5901H-108.531H-125.472H-142.413H-159.354H-176.295H-193.236H-210.177H-227.118H-244.059H-261V2H-244.059H-227.118H-210.177H-193.236H-176.295H-159.354H-142.413H-125.472H-108.531H-91.5901H-74.6491H-57.7081H-40.7672H-23.8262H-6.88519H10.0558H26.9967H43.9377H60.8787H77.8197H94.7606H111.702H128.643H145.584H162.525H179.465H196.406H213.347H230.288H247.229H264.17H281.111Z" stroke="#FB6233" stroke-width="1.3"/>
<rect x="-0.5" y="0.5" width="184" height="140" transform="matrix(-1 0 0 1 250 29)" fill="#0D0D0D" stroke="#FF6F43"/>
<rect x="-0.65" y="0.65" width="144.7" height="163.7" transform="matrix(-1 0 0 1 166.7 216)" fill="#0D0D0D" stroke="#FF6F43" stroke-width="1.3"/>
<path d="M154.63 82.7262H147.25V62.9419H161.511V71.1137M154.63 93.0485H147.25V112.833H154.63M154.63 123.155H147.25V142.939H154.63M107.319 62.9419H121.58V82.7262H107.319V62.9419ZM107.319 93.0485H121.58V112.833H107.319V93.0485ZM127.285 62.9419H141.546V82.7262H127.285V62.9419ZM127.285 93.0485H141.546V112.833H127.285V93.0485ZM107.319 123.155H121.58V142.939H107.319V123.155ZM127.285 123.155H141.546V142.939H127.285V123.155Z" stroke="#FB6233" stroke-width="0.5"/>
<path d="M166.71 50.3162H100.438V54.7768V151.636M148.655 159.283H100.438V151.636M100.438 151.636H154.629" stroke="#FF6F43" stroke-width="0.5"/>
<path d="M155.49 159.283H100.438V151.636V54.7765V50.3159H166.71V54.7765V70.9198" stroke="#FF6F43"/>
<path d="M154.63 159.283V151.636V149.725M214.954 79.8391V70.9202H172.684H154.63V79.8391V149.725M154.63 149.725H214.954M214.954 130.183V136.343M145.646 46.1683L145.579 41.0255M145.579 41.0255L214.955 41.0255V62.0818M145.579 41.0255L147.748 43.1942M145.579 41.0255L143.41 38.8567M217.124 43.1942L212.787 38.8567" stroke="white" stroke-width="0.5"/>
<path d="M172.684 70.9198H154.629V75.3804V149.724V151.636V159.283H214.954V149.724V137.192V136.342V130.182V128.271V75.3804V70.9198H172.684Z" stroke="white"/>
<path d="M160.651 81.0059H173.554V104.884H160.651V81.0059Z" stroke="white" stroke-width="0.5"/>
<path d="M160.651 117.341H173.554V141.219H160.651V117.341Z" stroke="white" stroke-width="0.5"/>
<path d="M178.715 81.0059H191.618V104.884H178.715V81.0059Z" stroke="white" stroke-width="0.5"/>
<path d="M196.779 81.0059H209.682V104.884H196.779V81.0059Z" stroke="white" stroke-width="0.5"/>
<path d="M178.715 117.341H191.618V141.219H178.715V117.341Z" stroke="white" stroke-width="0.5"/>
<path d="M196.779 117.341H209.682V141.219H196.779V117.341Z" stroke="white" stroke-width="0.5"/>
<path d="M112.725 280.127L112.725 282.645L112.718 354.41L85.7397 367M112.725 280.127L85.7466 292.717M112.725 280.127L98.532 274.176M112.725 280.127L78.987 265.982M85.7466 292.717L85.7464 295.235L85.7397 367M85.7466 292.717L52.0085 278.572M85.7397 367L77.3048 363.464L68.8699 359.928L52 352.855L52.008 281.09L52.0085 278.572M52.0085 278.572L78.987 265.982M139 246.147L139 249.053L138.992 334.942L112.691 347.216M139 246.147L98.5323 265.032M139 246.147L105.258 232.002L64.7906 250.887M98.532 274.176L78.987 265.982M98.532 274.176L98.5323 265.032M98.5323 265.032L64.7906 250.887M98.5323 265.032L64.7941 250.887M64.7906 250.887V272.607M139 246.145L105.262 232" stroke="#F5F5F5"/>
<path d="M78.0304 344.223L78.0293 356.814L69.5943 353.277L69.5955 340.687M78.0293 344.223L78.0304 332.402L69.5955 328.865L69.5943 340.687M78.0304 314.792L78.0293 323.382L69.5943 319.846L69.5955 311.256V295.334L78.0304 298.87L78.0293 314.791M65.6422 338.914L65.641 351.504L57.2061 347.968L57.2073 335.378M65.641 338.913L65.6422 327.092L57.2073 323.556L57.2061 335.378M65.6422 309.482L65.641 318.073L57.2061 314.537L57.2073 305.946V290.025L65.6422 293.561L65.641 309.482M89.1094 298.816L97.203 295.039L97.2018 310.147L97.2004 318.738L89.1068 322.515L89.1082 313.924L89.1094 298.816ZM89.1066 333.033L97.2001 329.256L97.1987 340.365L97.1976 352.955L89.104 356.732L89.1052 344.142L89.1066 333.033ZM99.9065 293.777L108 290L107.999 305.108L107.997 313.699L99.9039 317.476L99.905 308.886L99.9065 293.777ZM99.9036 327.994L107.997 324.217L107.996 335.326L107.995 347.916L99.901 351.693L99.9022 339.103L99.9036 327.994Z" stroke="#F5F5F5" stroke-width="0.5"/>
</g>
</svg>
