<svg width="315" height="430" viewBox="0 0 315 430" fill="none" xmlns="http://www.w3.org/2000/svg">
<mask id="mask0" mask-type="alpha" maskUnits="userSpaceOnUse" x="0" y="0" width="315" height="430">
<rect width="315" height="430" fill="#C4C4C4"/>
</mask>
<g mask="url(#mask0)">
<path d="M11.2393 2V198.997M11.2393 2H-5.65063M11.2393 2H28.1293M11.2393 198.997H-5.65063M11.2393 198.997H28.1293M-123.88 2V198.997M-123.88 2H-106.99M-123.88 2H-140.77M-123.88 198.997H-106.99M-123.88 198.997H-140.77M-56.3205 2V198.997M-56.3205 2H-39.4305M-56.3205 2H-73.2104M-56.3205 198.997H-39.4305M-56.3205 198.997H-73.2104M-90.1004 2V198.997M-90.1004 2H-73.2104M-90.1004 2H-106.99M-90.1004 198.997H-73.2104M-90.1004 198.997H-106.99M-22.5406 2V198.997M-22.5406 2H-39.4305M-22.5406 2H-5.65063M-22.5406 198.997H-39.4305M-22.5406 198.997H-5.65063M-39.4305 2V198.997M-5.65063 2V198.997M-73.2104 198.997V2M-106.99 2V198.997M-191.44 198.997V2M-191.44 198.997H-174.55M-191.44 198.997H-208.33M-191.44 2H-174.55M-191.44 2H-208.33M-157.66 2V198.997M-157.66 2H-140.77M-157.66 2H-174.55M-157.66 198.997H-140.77M-157.66 198.997H-174.55M-140.77 198.997V2M-174.55 2V198.997M-225.22 198.997V2M-225.22 198.997H-242.11M-225.22 198.997H-208.33M-225.22 2H-242.11M-225.22 2H-208.33M-242.11 2H-259V198.997H-242.11M-242.11 2V198.997M-208.33 198.997V2M146.359 2V198.997M146.359 2H163.249M146.359 2H129.469M146.359 198.997H163.249M146.359 198.997H129.469M213.919 2V198.997M213.919 2H230.809M213.919 2H197.029M213.919 198.997H230.809M213.919 198.997H197.029M180.139 2V198.997M180.139 2H197.029M180.139 2H163.249M180.139 198.997H197.029M180.139 198.997H163.249M247.699 2V198.997M247.699 2H230.809M247.699 2H264.589M247.699 2H205.474H163.249M247.699 198.997H230.809M247.699 198.997H264.589M230.809 2V198.997M264.589 2H281.479V198.997H264.589M264.589 2V198.997M197.029 198.997V2M163.249 2V198.997M78.7992 198.997V2M78.7992 198.997H95.6891M78.7992 198.997H61.9092M78.7992 2H95.6891M78.7992 2H61.9092M112.579 2V198.997M112.579 2H129.469M112.579 2H95.6891M112.579 198.997H129.469M112.579 198.997H95.6891M129.469 198.997V2M95.6891 2V198.997M45.0193 198.997V2M45.0193 198.997H28.1293M45.0193 198.997H61.9092M45.0193 2H28.1293M45.0193 2H61.9092M28.1293 2V198.997M61.9092 198.997V2" stroke="white" stroke-width="0.5"/>
<path d="M-259 2V198.997H-242.11H-225.22H-208.33H-191.44H-174.55H-157.66H-140.77H-123.88H-106.99H-90.1004H-73.2104H-56.3205H-39.4305H-22.5406H-5.65063H11.2393H28.1293H45.0193H61.9092H78.7992H95.6891H112.579H129.469H146.359H163.249H180.139H197.029H213.919H230.809H247.699H264.589H281.479V2H264.589H247.699H230.809H213.919H197.029H180.139H163.249H146.359H129.469H112.579H95.6891H78.7992H61.9092H45.0193H28.1293H11.2393H-5.65063H-22.5406H-39.4305H-56.3205H-73.2104H-90.1004H-106.99H-123.88H-140.77H-157.66H-174.55H-191.44H-208.33H-225.22H-242.11H-259Z" stroke="#FB6233"/>
<rect x="95.25" y="27.25" width="169.5" height="143.5" fill="#0D0D0D" stroke="#FF6F43" stroke-width="0.5"/>
<path d="M241.052 133.75L168.097 99.2923C167.911 99.2042 167.72 99.1267 167.528 99.0598C166.891 98.8389 166.223 98.7336 165.557 98.7446C164.862 98.7561 164.169 98.8939 163.511 99.1589L110.717 120.434C110.272 120.613 110.032 121.006 110.003 121.412M240.991 135.848L210.496 148.137M110.003 121.412C109.971 121.853 110.187 122.31 110.656 122.532L183.611 156.99C185.054 157.672 186.716 157.72 188.196 157.123L210.496 148.137M110.003 121.412V124.185M110.003 124.185C109.97 123.721 110.211 123.241 110.717 123.037L163.511 101.761C164.992 101.165 166.654 101.213 168.097 101.895L172.597 104.02M110.003 124.185C110.031 124.569 110.247 124.941 110.656 125.134L114.867 127.123L183.611 159.592C185.054 160.274 186.716 160.323 188.196 159.726L191.885 158.239L240.991 138.451C241.425 138.276 241.664 137.897 241.702 137.5C241.745 137.052 241.531 136.579 241.052 136.353L172.597 104.02M132.909 111.491L198.978 142.697M210.496 148.137L198.978 142.697M198.978 142.697L231.902 129.429L228.928 130.627M142.646 116.09L172.597 104.02M168.405 44.9663V89.0567C168.405 91.2717 169.682 93.2881 171.685 94.2341L236.913 125.043C237.673 125.402 238.547 124.848 238.547 124.007V79.917C238.547 77.702 237.27 75.6856 235.267 74.7396L170.039 43.9308C169.279 43.572 168.405 44.1261 168.405 44.9663Z" stroke="white" stroke-width="0.5" stroke-linecap="round" stroke-linejoin="round"/>
<path d="M168.004 36.1395C168.086 36.0949 168.174 36.0601 168.265 36.0364M168.004 36.1395L165.832 36.9866M168.004 36.1395L168.265 36.0364M168.265 36.0364C168.511 35.9727 168.781 35.9895 169.039 36.1111L241.71 70.4357C243.713 71.3818 244.991 73.3981 244.991 75.6132V133.736C244.991 134.268 244.64 134.685 244.19 134.829M244.19 134.829L241.704 135.85C241.935 135.74 242.326 135.427 242.442 135.191C242.515 135.041 242.558 134.87 242.558 134.686V76.5634C242.558 74.3483 241.28 72.332 239.277 71.386L166.605 37.0613C166.577 37.048 166.549 37.036 166.521 37.0252C165.782 36.7438 164.971 37.2876 164.971 38.0968V96.2193C164.971 97.1131 165.179 97.9744 165.559 98.7462M244.19 134.829L244.335 134.771M110.005 121.414C110.034 121.007 110.274 120.615 110.719 120.436L163.513 99.1604C164.171 98.8954 164.864 98.7577 165.559 98.7462M110.005 121.414C109.973 121.854 110.189 122.312 110.658 122.533L183.613 156.992C185.056 157.673 186.718 157.722 188.198 157.125L195.609 154.139L210.498 148.139L240.993 135.85C241.427 135.675 241.666 135.296 241.704 134.9M110.005 121.414V124.186C110.033 124.57 110.249 124.943 110.658 125.136L183.613 159.594C185.056 160.276 186.718 160.324 188.198 159.728L240.993 138.452C241.427 138.277 241.666 137.899 241.704 137.502V134.9M241.704 134.9C241.747 134.451 241.533 133.979 241.054 133.752L231.904 129.43L175.29 102.655L168.099 99.2939C167.297 98.9151 166.427 98.7318 165.559 98.7462M151.335 123.599L136.017 129.773C135.27 130.074 135.24 131.119 135.967 131.463L161.624 143.581C162.786 144.13 164.126 144.169 165.318 143.689L180.637 137.515C181.384 137.215 181.414 136.169 180.686 135.825L155.03 123.707C153.867 123.158 152.528 123.119 151.335 123.599Z" stroke="white" stroke-width="0.5" stroke-linecap="round" stroke-linejoin="round"/>
<path fill-rule="evenodd" clip-rule="evenodd" d="M204.16 84.3867L213.542 78.97L211.694 75.7689L202.312 81.1856L202.312 71.4185L199.698 69.9094L199.698 79.6765L190.316 63.425L188.468 64.4919L197.85 80.7434L189.392 75.8596L189.392 78.8775L197.85 83.7614L188.468 89.1781L190.317 92.3792L199.699 86.9625L199.699 96.7296L202.313 98.2387L202.312 88.4715L211.695 104.723L213.543 103.656L204.16 87.4046L212.619 92.2885L212.618 89.2705L204.16 84.3867Z" stroke="#FB6233" stroke-width="0.5" stroke-linecap="round" stroke-linejoin="round"/>
<path d="M-95.7607 199V395.997M-95.7607 199H-112.651M-95.7607 199H-78.8707M-95.7607 395.997H-112.651M-95.7607 395.997H-78.8707M-230.88 199V395.997M-230.88 199H-213.99M-230.88 199H-247.77M-230.88 395.997H-213.99M-230.88 395.997H-247.77M-163.32 199V395.997M-163.32 199H-146.431M-163.32 199H-180.21M-163.32 395.997H-146.431M-163.32 395.997H-180.21M-197.1 199V395.997M-197.1 199H-180.21M-197.1 199H-213.99M-197.1 395.997H-180.21M-197.1 395.997H-213.99M-129.541 199V395.997M-129.541 199H-146.431M-129.541 199H-112.651M-129.541 395.997H-146.431M-129.541 395.997H-112.651M-146.431 199V395.997M-112.651 199V395.997M-180.21 395.997V199M-213.99 199V395.997M-298.44 395.997V199M-298.44 395.997H-281.55M-298.44 395.997H-315.33M-298.44 199H-281.55M-298.44 199H-315.33M-264.66 199V395.997M-264.66 199H-247.77M-264.66 199H-281.55M-264.66 395.997H-247.77M-264.66 395.997H-281.55M-247.77 395.997V199M-281.55 199V395.997M-332.22 395.997V199M-332.22 395.997H-349.11M-332.22 395.997H-315.33M-332.22 199H-349.11M-332.22 199H-315.33M-349.11 199H-366V395.997H-349.11M-349.11 199V395.997M-315.33 395.997V199M39.359 199V395.997M39.359 199H56.249M39.359 199H22.4691M39.359 395.997H56.249M39.359 395.997H22.4691M106.919 199V395.997M106.919 199H123.809M106.919 199H90.0289M106.919 395.997H123.809M106.919 395.997H90.0289M73.1389 199V395.997M73.1389 199H90.0289M73.1389 199H56.249M73.1389 395.997H90.0289M73.1389 395.997H56.249M140.699 199V395.997M140.699 199H123.809M140.699 199H157.589M140.699 199H98.4738H56.249M140.699 395.997H123.809M140.699 395.997H157.589M123.809 199V395.997M157.589 199H174.479V395.997H157.589M157.589 199V395.997M90.0289 395.997V199M56.249 199V395.997M-28.2008 395.997V199M-28.2008 395.997H-11.3109M-28.2008 395.997H-45.0908M-28.2008 199H-11.3109M-28.2008 199H-45.0908M5.5791 199V395.997M5.5791 199H22.4691M5.5791 199H-11.3109M5.5791 395.997H22.4691M5.5791 395.997H-11.3109M22.4691 395.997V199M-11.3109 199V395.997M-61.9807 395.997V199M-61.9807 395.997H-78.8707M-61.9807 395.997H-45.0908M-61.9807 199H-78.8707M-61.9807 199H-45.0908M-78.8707 199V395.997M-45.0908 395.997V199" stroke="white" stroke-width="0.5"/>
<path d="M-366 199V395.997H-349.11H-332.22H-315.33H-298.44H-281.55H-264.66H-247.77H-230.88H-213.99H-197.1H-180.21H-163.32H-146.431H-129.541H-112.651H-95.7607H-78.8707H-61.9807H-45.0908H-28.2008H-11.3109H5.5791H22.4691H39.359H56.249H73.1389H90.0289H106.919H123.809H140.699H157.589H174.479V199H157.589H140.699H123.809H106.919H90.0289H73.1389H56.249H39.359H22.4691H5.5791H-11.3109H-28.2008H-45.0908H-61.9807H-78.8707H-95.7607H-112.651H-129.541H-146.431H-163.32H-180.21H-197.1H-213.99H-230.88H-247.77H-264.66H-281.55H-298.44H-315.33H-332.22H-349.11H-366Z" stroke="#FB6233"/>
<rect x="22.25" y="249.25" width="137.5" height="95.5" fill="#0D0D0D" stroke="#FF6F43" stroke-width="0.5"/>
<path d="M112 300.159C112 298.544 110.844 295.178 105.674 293.455C99.213 291.301 97.0591 285.916 94.9053 279.455C92.7514 272.993 91.136 270.301 88.4437 267.609C85.7514 264.916 80.3668 258.993 79.8284 261.686C79.5918 262.868 80.589 264.971 81.9821 267.013M87.9057 276.763C80.3667 275.147 80.9052 271.916 85.7513 271.378C85.4058 271.079 85.0443 270.732 84.6775 270.35M87.9057 276.763C75.3371 278.985 65.8312 280.532 55.0621 278.756M87.9057 276.763C84.7523 279.051 83.5529 280.514 88.4437 283.052M96.521 292.916C93.6301 292.175 91.8151 290.716 90.9161 289.147M96.521 292.916C90.062 298.84 81.9821 303.686 74.6646 303.686M96.521 292.916C94.5258 296.15 94.0018 298.193 97.6006 300.159M102.444 302.07C100.344 301.417 98.7587 300.792 97.6006 300.159M102.444 302.07C96.521 310.686 91.1364 318.224 84.6775 321.609M102.444 302.07C101.615 303.902 100.83 305.293 102.444 305.973M108.231 306.432C107.194 306.483 106.438 306.446 105.674 306.432M81.9821 267.013C67.9821 263.404 40.2004 260.024 51.8311 268.686M81.9821 267.013C82.8006 268.212 83.7556 269.391 84.6775 270.35M51.8311 268.686C58.2929 271.916 71.8394 271.12 84.6775 270.35M51.8311 268.686C46.8331 270.795 48.7888 274.679 55.0621 278.756M71.7544 293.455C61.5199 293.302 59.0058 290.378 61.7169 285.916M71.7544 293.455C79.3158 292.65 83.5052 291.591 90.9161 289.147M71.7544 293.455C67.1116 297.286 68.2326 300.813 74.6646 303.686M84.6775 321.609C79.169 320.981 77.3852 317.801 79.8284 315.002M84.6775 321.609C83.3525 326.428 85.2781 328.446 92.5495 327.378M99.2159 324.147C99.2159 324.147 97.9642 330.221 99.7544 331.686C102.068 333.578 104.462 326.84 104.462 326.84M99.2159 324.147C97.3093 328.868 93.2928 331.147 92.5495 327.378M99.2159 324.147C101.649 317.103 103.091 313.265 105.674 306.432M55.0621 278.756C51.8807 281.71 54.4449 284.158 61.7169 285.916M61.7169 285.916C70.6229 288.07 80.3697 285.916 88.4437 283.052M88.4437 283.052C89.1933 283.441 90.0859 283.855 91.1364 284.301C90.053 285.475 89.9033 287.381 90.9161 289.147M74.6646 303.686C71.2303 307.637 71.7726 311.62 79.8284 315.002M79.8284 315.002C84.6775 315.002 94.9053 305.301 97.6006 300.159M92.5495 327.378C97.6852 319.073 99.756 314.382 102.444 305.973M102.444 305.973C103.089 306.245 104.115 306.404 105.674 306.432" stroke="white"/>
<path d="M115.833 272.196C120.166 271.041 124.612 273.571 125.764 277.847L127.712 285.079L128.115 286.577C129.803 293.121 129.602 295.966 123.607 295.966L123.433 302.873C123.433 302.873 135.029 320.271 132.688 326.871C130.347 333.471 104.386 332.025 103.951 325.311C103.516 318.598 105.538 309.461 113.339 299.587C113.339 299.587 115.617 297.708 114.46 293.714C113.48 290.33 111.01 284.291 110.279 282.527C110.141 282.194 110.019 281.856 109.949 281.504C109.135 277.398 111.677 273.304 115.833 272.196Z" stroke="white"/>
</g>
</svg>
