<svg width="315" height="640" viewBox="0 0 315 640" fill="none" xmlns="http://www.w3.org/2000/svg">
<rect width="315" height="640" fill="#0D0D0D"/>
<mask id="mask0" mask-type="alpha" maskUnits="userSpaceOnUse" x="0" y="194" width="315" height="430">
<rect y="194" width="315" height="430" fill="#C4C4C4"/>
</mask>
<g mask="url(#mask0)">
<path d="M11.2393 212V408.997M11.2393 212H-5.65063M11.2393 212H28.1293M11.2393 408.997H-5.65063M11.2393 408.997H28.1293M-123.88 212V408.997M-123.88 212H-106.99M-123.88 212H-140.77M-123.88 408.997H-106.99M-123.88 408.997H-140.77M-56.3205 212V408.997M-56.3205 212H-39.4305M-56.3205 212H-73.2104M-56.3205 408.997H-39.4305M-56.3205 408.997H-73.2104M-90.1004 212V408.997M-90.1004 212H-73.2104M-90.1004 212H-106.99M-90.1004 408.997H-73.2104M-90.1004 408.997H-106.99M-22.5406 212V408.997M-22.5406 212H-39.4305M-22.5406 212H-5.65063M-22.5406 408.997H-39.4305M-22.5406 408.997H-5.65063M-39.4305 212V408.997M-5.65063 212V408.997M-73.2104 408.997V212M-106.99 212V408.997M-191.44 408.997V212M-191.44 408.997H-174.55M-191.44 408.997H-208.33M-191.44 212H-174.55M-191.44 212H-208.33M-157.66 212V408.997M-157.66 212H-140.77M-157.66 212H-174.55M-157.66 408.997H-140.77M-157.66 408.997H-174.55M-140.77 408.997V212M-174.55 212V408.997M-225.22 408.997V212M-225.22 408.997H-242.11M-225.22 408.997H-208.33M-225.22 212H-242.11M-225.22 212H-208.33M-242.11 212H-259V408.997H-242.11M-242.11 212V408.997M-208.33 408.997V212M146.359 212V408.997M146.359 212H163.249M146.359 212H129.469M146.359 408.997H163.249M146.359 408.997H129.469M213.919 212V408.997M213.919 212H230.809M213.919 212H197.029M213.919 408.997H230.809M213.919 408.997H197.029M180.139 212V408.997M180.139 212H197.029M180.139 212H163.249M180.139 408.997H197.029M180.139 408.997H163.249M247.699 212V408.997M247.699 212H230.809M247.699 212H264.589M247.699 212H205.474H163.249M247.699 408.997H230.809M247.699 408.997H264.589M230.809 212V408.997M264.589 212H281.479V408.997H264.589M264.589 212V408.997M197.029 408.997V212M163.249 212V408.997M78.7992 408.997V212M78.7992 408.997H95.6891M78.7992 408.997H61.9092M78.7992 212H95.6891M78.7992 212H61.9092M112.579 212V408.997M112.579 212H129.469M112.579 212H95.6891M112.579 408.997H129.469M112.579 408.997H95.6891M129.469 408.997V212M95.6891 212V408.997M45.0193 408.997V212M45.0193 408.997H28.1293M45.0193 408.997H61.9092M45.0193 212H28.1293M45.0193 212H61.9092M28.1293 212V408.997M61.9092 408.997V212" stroke="white" stroke-width="0.5"/>
<path d="M-259 212V408.997H-242.11H-225.22H-208.33H-191.44H-174.55H-157.66H-140.77H-123.88H-106.99H-90.1004H-73.2104H-56.3205H-39.4305H-22.5406H-5.65063H11.2393H28.1293H45.0193H61.9092H78.7992H95.6891H112.579H129.469H146.359H163.249H180.139H197.029H213.919H230.809H247.699H264.589H281.479V212H264.589H247.699H230.809H213.919H197.029H180.139H163.249H146.359H129.469H112.579H95.6891H78.7992H61.9092H45.0193H28.1293H11.2393H-5.65063H-22.5406H-39.4305H-56.3205H-73.2104H-90.1004H-106.99H-123.88H-140.77H-157.66H-174.55H-191.44H-208.33H-225.22H-242.11H-259Z" stroke="#FB6233"/>
<rect x="8.25" y="267.462" width="259.5" height="96.2883" fill="#0D0D0D" stroke="#FF6F43" stroke-width="0.5"/>
<path d="M20.9297 323.901H22.0759H23.2222V346.826H22.0759H20.9297V323.901Z" fill="#FB6233"/>
<path d="M22.0759 319.316V323.901M22.0759 323.901H20.9297V346.826H22.0759M22.0759 323.901H23.2222V346.826H22.0759M22.0759 346.826V351.411" stroke="#FB6233" stroke-width="0.5"/>
<path d="M124.12 310.152V305.567M124.12 305.567H122.974V282.642H124.12M124.12 305.567H125.266V282.642H124.12M124.12 282.642V278.057" stroke="#FB6233" stroke-width="0.5"/>
<path d="M32.2478 296.388V305.558M32.2478 305.558H31.1016V319.313H32.2478M32.2478 305.558H33.3941V319.313H32.2478M32.2478 319.313V328.483" stroke="white"/>
<path d="M134.328 333.07V323.9M134.328 323.9H133.182V310.145H134.328M134.328 323.9H135.474V310.145H134.328M134.328 310.145V300.975" stroke="#FB6233" stroke-width="0.5"/>
<path d="M42.4558 317.027V323.905M42.4558 323.905H41.3096V328.49H42.4558M42.4558 323.905H43.6021V328.49H42.4558M42.4558 328.49V335.367" stroke="#FB6233" stroke-width="0.5"/>
<path d="M144.535 312.441V305.563M144.535 305.563H143.389V300.978H144.535M144.535 305.563H145.681V300.978H144.535M144.535 300.978V294.101" stroke="#FB6233" stroke-width="0.5"/>
<path d="M52.6638 305.566V310.151M52.6638 310.151H51.5176V333.076H52.6638M52.6638 310.151H53.8101V333.076H52.6638M52.6638 333.076V337.661" stroke="#FB6233" stroke-width="0.5"/>
<path d="M62.8728 287.218V291.803M62.8728 291.803H61.7266V337.652H62.8728M62.8728 291.803H64.0191V337.652H62.8728M62.8728 337.652V342.237" stroke="#FB6233" stroke-width="0.5"/>
<path d="M154.743 342.245V337.66M154.743 337.66H153.597V291.81H154.743M154.743 337.66H155.889V291.81H154.743M154.743 291.81V287.225" stroke="#FB6233" stroke-width="0.5"/>
<path d="M236.406 342.245V337.66M236.406 337.66H235.26V291.81H236.406M236.406 337.66H237.552V291.81H236.406M236.406 291.81V287.225" stroke="white"/>
<path d="M246.614 353.7V349.115M246.614 349.115H245.468V335.361H246.614M246.614 349.115H247.76V335.361H246.614M246.614 335.361V330.776" stroke="#FB6233" stroke-width="0.5"/>
<path d="M255.677 337.66H256.823H257.969V291.81H256.823H255.677V337.66Z" fill="#FB6233"/>
<path d="M256.823 342.245V337.66M256.823 337.66H255.677V291.81H256.823M256.823 337.66H257.969V291.81H256.823M256.823 291.81V287.225" stroke="#FB6233" stroke-width="0.5"/>
<path d="M163.805 323.903H164.951H166.097V314.733H164.951H163.805V323.903Z" fill="#FB6233"/>
<path d="M164.951 335.366V323.903M164.951 323.903H163.805V314.733H164.951M164.951 323.903H166.097V314.733H164.951M164.951 314.733V303.271" stroke="#FB6233" stroke-width="0.5"/>
<path d="M71.9336 319.313H73.0798H74.2261V333.068H73.0798H71.9336V319.313Z" fill="#FB6233"/>
<path d="M73.0798 314.728V319.313M73.0798 319.313H71.9336V333.068H73.0798M73.0798 319.313H74.2261V333.068H73.0798M73.0798 333.068V337.653" stroke="#FB6233" stroke-width="0.5"/>
<path d="M83.2878 296.388V305.558M83.2878 305.558H82.1416V319.313H83.2878M83.2878 305.558H84.4341V319.313H83.2878M83.2878 319.313V328.483" stroke="#FB6233" stroke-width="0.5"/>
<path d="M175.159 333.07V323.9M175.159 323.9H174.013V310.145H175.159M175.159 323.9H176.305V310.145H175.159M175.159 310.145V300.975" stroke="white"/>
<path d="M185.367 349.117V344.532M185.367 344.532H184.221V321.608H185.367M185.367 344.532H186.513V321.608H185.367M185.367 321.608V317.023" stroke="#FB6233" stroke-width="0.5"/>
<path d="M93.4959 310.152V314.737M93.4959 314.737H92.3496V333.076H93.4959M93.4959 314.737H94.6421V333.076H93.4959M93.4959 333.076V337.661" stroke="white"/>
<path d="M194.429 314.731H195.575H196.721V296.392H195.575H194.429V314.731Z" fill="#FB6233"/>
<path d="M195.575 319.316V314.731M195.575 314.731H194.429V296.392H195.575M195.575 314.731H196.721V296.392H195.575M195.575 296.392V291.807" stroke="#FB6233" stroke-width="0.5"/>
<path d="M103.704 278.049V282.634M103.704 282.634H102.558V294.096H103.704M103.704 282.634H104.85V294.096H103.704M103.704 294.096V298.681" stroke="#FB6233" stroke-width="0.5"/>
<path d="M205.783 351.41V346.825M205.783 346.825H204.637V335.362H205.783M205.783 346.825H206.929V335.362H205.783M205.783 335.362V330.778" stroke="#FB6233" stroke-width="0.5"/>
<path d="M112.765 298.687H113.911H115.057V303.272H113.911H112.765V298.687Z" fill="#FB6233"/>
<path d="M113.911 294.102V298.687M113.911 298.687H112.765V303.272H113.911M113.911 298.687H115.057V303.272H113.911M113.911 303.272V307.857" stroke="#FB6233" stroke-width="0.5"/>
<path d="M215.991 335.366V330.781M215.991 330.781H214.845V326.196H215.991M215.991 330.781H217.137V326.196H215.991M215.991 326.196V321.611" stroke="#FB6233" stroke-width="0.5"/>
<path d="M226.198 310.152V305.567M226.198 305.567H225.052V282.642H226.198M226.198 305.567H227.344V282.642H226.198M226.198 282.642V278.057" stroke="#FB6233" stroke-width="0.5"/>
<path d="M-95.7607 409V605.997M-95.7607 409H-112.651M-95.7607 409H-78.8707M-95.7607 605.997H-112.651M-95.7607 605.997H-78.8707M-230.88 409V605.997M-230.88 409H-213.99M-230.88 409H-247.77M-230.88 605.997H-213.99M-230.88 605.997H-247.77M-163.32 409V605.997M-163.32 409H-146.431M-163.32 409H-180.21M-163.32 605.997H-146.431M-163.32 605.997H-180.21M-197.1 409V605.997M-197.1 409H-180.21M-197.1 409H-213.99M-197.1 605.997H-180.21M-197.1 605.997H-213.99M-129.541 409V605.997M-129.541 409H-146.431M-129.541 409H-112.651M-129.541 605.997H-146.431M-129.541 605.997H-112.651M-146.431 409V605.997M-112.651 409V605.997M-180.21 605.997V409M-213.99 409V605.997M-298.44 605.997V409M-298.44 605.997H-281.55M-298.44 605.997H-315.33M-298.44 409H-281.55M-298.44 409H-315.33M-264.66 409V605.997M-264.66 409H-247.77M-264.66 409H-281.55M-264.66 605.997H-247.77M-264.66 605.997H-281.55M-247.77 605.997V409M-281.55 409V605.997M-332.22 605.997V409M-332.22 605.997H-349.11M-332.22 605.997H-315.33M-332.22 409H-349.11M-332.22 409H-315.33M-349.11 409H-366V605.997H-349.11M-349.11 409V605.997M-315.33 605.997V409M39.359 409V605.997M39.359 409H56.249M39.359 409H22.4691M39.359 605.997H56.249M39.359 605.997H22.4691M106.919 409V605.997M106.919 409H123.809M106.919 409H90.0289M106.919 605.997H123.809M106.919 605.997H90.0289M73.1389 409V605.997M73.1389 409H90.0289M73.1389 409H56.249M73.1389 605.997H90.0289M73.1389 605.997H56.249M140.699 409V605.997M140.699 409H123.809M140.699 409H157.589M140.699 409H98.4738H56.249M140.699 605.997H123.809M140.699 605.997H157.589M123.809 409V605.997M157.589 409H174.479V605.997H157.589M157.589 409V605.997M90.0289 605.997V409M56.249 409V605.997M-28.2008 605.997V409M-28.2008 605.997H-11.3109M-28.2008 605.997H-45.0908M-28.2008 409H-11.3109M-28.2008 409H-45.0908M5.57911 409V605.997M5.57911 409H22.4691M5.57911 409H-11.3109M5.57911 605.997H22.4691M5.57911 605.997H-11.3109M22.4691 605.997V409M-11.3109 409V605.997M-61.9807 605.997V409M-61.9807 605.997H-78.8707M-61.9807 605.997H-45.0908M-61.9807 409H-78.8707M-61.9807 409H-45.0908M-78.8707 409V605.997M-45.0908 605.997V409" stroke="white" stroke-width="0.5"/>
<path d="M-366 409V605.997H-349.11H-332.22H-315.33H-298.44H-281.55H-264.66H-247.77H-230.88H-213.99H-197.1H-180.21H-163.32H-146.431H-129.541H-112.651H-95.7607H-78.8707H-61.9807H-45.0908H-28.2008H-11.3109H5.5791H22.4691H39.359H56.249H73.1389H90.0289H106.919H123.809H140.699H157.589H174.479V409H157.589H140.699H123.809H106.919H90.0289H73.1389H56.249H39.359H22.4691H5.5791H-11.3109H-28.2008H-45.0908H-61.9807H-78.8707H-95.7607H-112.651H-129.541H-146.431H-163.32H-180.21H-197.1H-213.99H-230.88H-247.77H-264.66H-281.55H-298.44H-315.33H-332.22H-349.11H-366Z" stroke="#FB6233"/>
<rect x="22.25" y="459.25" width="137.5" height="95.5" fill="#0D0D0D" stroke="#FF6F43" stroke-width="0.5"/>
<path d="M22 476.996H29.2632L36.5263 504.496H43.7895L51.0526 490.746H58.3158L65.5789 529.246H72.8421L80.1053 512.746H87.3684L94.6316 493.496H101.895L109.158 504.496H116.421L123.684 531.996H130.947L138.211 485.246H145.474L152.737 515.496H160" stroke="white" stroke-width="0.5"/>
</g>
</svg>
