<svg width="315" height="430" viewBox="0 0 315 430" fill="none" xmlns="http://www.w3.org/2000/svg">
<mask id="mask0" mask-type="alpha" maskUnits="userSpaceOnUse" x="0" y="0" width="315" height="430">
<rect width="315" height="430" fill="#C4C4C4"/>
</mask>
<g mask="url(#mask0)">
<path d="M-47.2229 199.66V3M-47.2229 199.66H-64.084M-47.2229 199.66H-30.3618M-47.2229 3H-64.084M-47.2229 3H-30.3618M-182.111 199.66V3M-182.111 199.66H-165.25M-182.111 199.66H-198.973M-182.111 3H-165.25M-182.111 3H-198.973M-114.667 199.66V3M-114.667 199.66H-97.8061M-114.667 199.66H-131.528M-114.667 3H-97.8061M-114.667 3H-131.528M-148.389 199.66V3M-148.389 199.66H-131.528M-148.389 199.66H-165.25M-148.389 3H-131.528M-148.389 3H-165.25M-80.945 199.66V3M-80.945 199.66L-97.8061 199.66M-80.945 199.66H-64.084M-80.945 3L-97.8061 3M-80.945 3H-64.084M-97.8061 199.66V3M-64.084 199.66V3M-131.528 3V199.66M-165.25 199.66V3M-249.556 3V199.66M-249.556 3H-232.695M-249.556 3H-266.417M-249.556 199.66H-232.695M-249.556 199.66H-266.417M-215.834 199.66V3M-215.834 199.66H-198.973M-215.834 199.66H-232.695M-215.834 3H-198.973M-215.834 3H-232.695M-198.973 3V199.66M-232.695 199.66V3M-283.278 3V199.66M-283.278 3H-300.139M-283.278 3H-266.417M-283.278 199.66H-300.139M-283.278 199.66H-266.417M-300.139 199.66H-317V3H-300.139M-300.139 199.66V3M-266.417 3V199.66M87.6657 199.66V3M87.6657 199.66H104.527M87.6657 199.66H70.8046M87.6657 3H104.527M87.6657 3H70.8046M155.11 199.66V3M155.11 199.66H171.971M155.11 199.66H138.249M155.11 3H171.971M155.11 3H138.249M121.388 199.66V3M121.388 199.66H138.249M121.388 199.66H104.527M121.388 3H138.249M121.388 3H104.527M188.832 199.66V3M188.832 199.66H171.971M188.832 199.66H205.693M188.832 199.66H146.679H104.527M188.832 3H171.971M188.832 3H205.693M171.971 199.66V3M205.693 199.66H222.554V3H205.693M205.693 199.66V3M138.249 3V199.66M104.527 199.66V3M20.2214 3V199.66M20.2214 3H37.0825M20.2214 3H3.36032M20.2214 199.66H37.0825M20.2214 199.66H3.36032M53.9435 199.66V3M53.9435 199.66H70.8046M53.9435 199.66H37.0825M53.9435 3H70.8046M53.9435 3H37.0825M70.8046 3V199.66M37.0825 199.66V3M-13.5008 3V199.66M-13.5008 3H-30.3618M-13.5008 3H3.36032M-13.5008 199.66H-30.3618M-13.5008 199.66H3.36032M-30.3618 199.66V3M3.36032 3V199.66" stroke="white" stroke-width="0.5"/>
<path d="M11.5 397V200M11.5 397H-5.34375M11.5 397H28.3437M11.5 200H-5.34375M11.5 200H28.3437M-123.25 397V200M-123.25 397H-106.406M-123.25 397H-140.094M-123.25 200H-106.406M-123.25 200H-140.094M-55.875 397V200M-55.875 397H-39.0312M-55.875 397H-72.7187M-55.875 200H-39.0312M-55.875 200H-72.7187M-89.5625 397V200M-89.5625 397H-72.7187M-89.5625 397H-106.406M-89.5625 200H-72.7187M-89.5625 200H-106.406M-22.1875 397V200M-22.1875 397H-39.0312M-22.1875 397H-5.34375M-22.1875 200L-39.0312 200M-22.1875 200H-5.34375M-39.0312 397V200M-5.34375 397V200M-72.7187 200V397M-106.406 397V200M-190.625 200V397M-190.625 200H-173.781M-190.625 200H-207.469M-190.625 397H-173.781M-190.625 397H-207.469M-156.937 397V200M-156.937 397H-140.094M-156.937 397H-173.781M-156.937 200H-140.094M-156.937 200H-173.781M-140.094 200V397M-173.781 397V200M-224.313 200V397M-224.313 200H-241.156M-224.313 200H-207.469M-224.313 397H-241.156M-224.313 397H-207.469M-241.156 397H-258V200H-241.156M-241.156 397V200M-207.469 200V397M146.25 397V200M146.25 397H163.094M146.25 397H129.406M146.25 200H163.094M146.25 200H129.406M213.625 397V200M213.625 397H230.469M213.625 397L196.781 397M213.625 200H230.469M213.625 200H196.781M179.938 397V200M179.938 397H196.781M179.938 397H163.094M179.938 200H196.781M179.938 200H163.094M247.312 397V200M247.312 397H230.469M247.312 397H264.156M247.312 397L205.203 397H163.094M247.312 200H230.469M247.312 200H264.156M230.469 397V200M264.156 397H281V200H264.156M264.156 397V200M196.781 200V397M163.094 397V200M78.875 200V397M78.875 200H95.7188M78.875 200H62.0313M78.875 397H95.7188M78.875 397H62.0313M112.563 397V200M112.563 397H129.406M112.563 397H95.7188M112.563 200H129.406M112.563 200H95.7188M129.406 200V397M95.7188 397V200M45.1875 200V397M45.1875 200H28.3437M45.1875 200H62.0313M45.1875 397H28.3437M45.1875 397H62.0313M28.3437 397V200M62.0313 200V397" stroke="white" stroke-width="0.5"/>
<path d="M-235 397V200H-218.875H-202.75H-186.625H-170.5H-154.375H-138.25H-122.125H-106H-89.875H-73.75H-57.625H-41.5H-25.375H-9.24997L6.87502 200H23H39.125H55.25H71.375H87.5H103.625H119.75H135.875H152H168.125H184.25H200.375H216.5H232.625H248.75H264.875H281V397H264.875H248.75H232.625L216.5 397H200.375H184.25H168.125H152H135.875H119.75H103.625H87.5H71.375H55.25H39.125H23H6.87502H-9.24997H-25.375H-41.5H-57.625H-73.75H-89.875H-106H-122.125H-138.25H-154.375H-170.5H-186.625H-202.75H-218.875H-235Z" stroke="#FB6233"/>
<rect x="-0.5" y="-0.5" width="122" height="250" transform="matrix(-4.37114e-08 -1 -1 4.37114e-08 267 360)" fill="#0D0D0D" stroke="#FF6F43"/>
<path d="M184.045 321.407L184.037 320.907L184.045 320.907L184.045 321.407ZM55.85 304.6L55.35 304.6C55.35 304.446 55.4208 304.3 55.5421 304.206C55.6634 304.111 55.8215 304.077 55.9708 304.115L55.85 304.6ZM55.85 311.803L55.9708 312.288C55.8215 312.325 55.6634 312.292 55.5421 312.197C55.4208 312.102 55.35 311.957 55.35 311.803L55.85 311.803ZM55.85 301.959L55.9708 302.444C55.8215 302.481 55.6634 302.447 55.5421 302.352C55.4208 302.258 55.35 302.112 55.35 301.959L55.85 301.959ZM118.502 322.365L118.494 321.865L118.502 322.365ZM37.8577 352.141L38.0603 352.598L37.3577 352.909L37.3577 352.141L37.8577 352.141ZM37.8577 345.898L37.3577 345.898L37.3577 345.681L37.5166 345.533L37.8577 345.898ZM37.8577 300.158L37.8577 300.658L37.3577 300.658L37.3577 300.158L37.8577 300.158ZM184.045 275.307L184.045 275.807L184.037 275.807L184.045 275.307ZM55.85 292.114L55.9708 292.599C55.8215 292.637 55.6634 292.603 55.5421 292.508C55.4208 292.413 55.35 292.268 55.35 292.114L55.85 292.114ZM55.85 284.911L55.35 284.911C55.35 284.757 55.4208 284.612 55.5421 284.517C55.6634 284.422 55.8215 284.389 55.9708 284.426L55.85 284.911ZM55.85 294.755L55.35 294.755C55.35 294.601 55.4208 294.456 55.5421 294.361C55.6634 294.267 55.8215 294.233 55.9708 294.27L55.85 294.755ZM37.8577 244.573L37.3577 244.573L37.3577 243.805L38.0602 244.116L37.8577 244.573ZM37.8577 250.816L37.5166 251.181L37.3577 251.033L37.3577 250.816L37.8577 250.816ZM37.8577 296.556L37.3577 296.556L37.3577 296.056L37.8577 296.056L37.8577 296.556ZM41.8417 342.181L41.5006 341.815C41.5045 341.812 41.5084 341.808 41.5124 341.805L41.8417 342.181ZM41.8417 254.533L41.5124 254.909C41.5084 254.906 41.5045 254.902 41.5006 254.899L41.8417 254.533ZM66.0139 323.132L66.0212 323.632L66.0139 323.132ZM66.0139 273.582L66.0212 273.082L66.0139 273.582ZM230.923 310.721L231.115 311.182L230.923 310.721ZM230.923 285.993L231.115 285.531L230.923 285.993ZM63.0609 323.168L63.0609 309.882L64.0609 309.882L64.0609 323.168L63.0609 323.168ZM63.0609 309.882L63.0609 306.521L64.0609 306.521L64.0609 309.882L63.0609 309.882ZM63.0609 306.521L63.0609 300.038L64.0609 300.038L64.0609 306.521L63.0609 306.521ZM63.4401 307.006L55.7291 305.085L55.9708 304.115L63.6818 306.035L63.4401 307.006ZM56.35 304.6L56.35 311.803L55.35 311.803L55.35 304.6L56.35 304.6ZM63.6818 310.367L55.9708 312.288L55.7291 311.318L63.4401 309.397L63.6818 310.367ZM63.6818 300.523L55.9708 302.444L55.7291 301.473L63.4401 299.552L63.6818 300.523ZM118.494 321.865L184.037 320.907L184.052 321.907L118.509 322.865L118.494 321.865ZM37.3577 352.141L37.3577 345.898L38.3577 345.898L38.3577 352.141L37.3577 352.141ZM56.35 300.158L56.35 301.959L55.35 301.959L55.35 300.158L56.35 300.158ZM55.85 300.658L41.8417 300.658L41.8417 299.658L55.85 299.658L55.85 300.658ZM41.8417 300.658L37.8577 300.658L37.8577 299.658L41.8417 299.658L41.8417 300.658ZM64.0609 273.546L64.0609 286.832L63.0609 286.832L63.0609 273.546L64.0609 273.546ZM64.0609 286.832L64.0609 290.193L63.0609 290.193L63.0609 286.832L64.0609 286.832ZM64.0609 290.193L64.0609 296.676L63.0609 296.676L63.0609 290.193L64.0609 290.193ZM63.6818 290.678L55.9708 292.599L55.7291 291.629L63.4401 289.708L63.6818 290.678ZM55.35 292.114L55.35 284.911L56.35 284.911L56.35 292.114L55.35 292.114ZM63.4401 287.317L55.7291 285.396L55.9708 284.426L63.6818 286.347L63.4401 287.317ZM63.4401 297.161L55.7291 295.24L55.9708 294.27L63.6818 296.191L63.4401 297.161ZM118.509 273.849L184.052 274.807L184.037 275.807L118.494 274.849L118.509 273.849ZM38.3577 244.573L38.3577 250.816L37.3577 250.816L37.3577 244.573L38.3577 244.573ZM55.35 296.556L55.35 294.755L56.35 294.755L56.35 296.556L55.35 296.556ZM55.85 297.056L41.8417 297.056L41.8417 296.056L55.85 296.056L55.85 297.056ZM41.8417 297.056L37.8577 297.056L37.8577 296.056L41.8417 296.056L41.8417 297.056ZM118.673 322.835L42.0133 350.846L41.6701 349.906L118.33 321.895L118.673 322.835ZM42.0443 350.833L38.0603 352.598L37.6552 351.684L41.6392 349.919L42.0443 350.833ZM37.5166 345.533L41.5006 341.815L42.1828 342.546L38.1988 346.264L37.5166 345.533ZM41.5124 341.805L63.2316 322.792L63.8903 323.544L42.1711 342.557L41.5124 341.805ZM41.3417 350.376L41.3417 342.181L42.3417 342.181L42.3417 350.376L41.3417 350.376ZM38.1988 250.45L42.1828 254.167L41.5006 254.899L37.5166 251.181L38.1988 250.45ZM42.1711 254.157L63.8903 273.17L63.2316 273.922L41.5124 254.909L42.1711 254.157ZM118.33 274.818L41.6701 246.808L42.0133 245.868L118.673 273.879L118.33 274.818ZM41.6392 246.795L37.6552 245.03L38.0602 244.116L42.0442 245.881L41.6392 246.795ZM41.3417 254.533L41.3417 246.338L42.3417 246.338L42.3417 254.533L41.3417 254.533ZM63.5536 322.668L66.0065 322.632L66.0212 323.632L63.5683 323.668L63.5536 322.668ZM66.0065 322.632L118.494 321.865L118.509 322.865L66.0212 323.632L66.0065 322.632ZM63.5682 273.046L66.0212 273.082L66.0065 274.082L63.5536 274.046L63.5682 273.046ZM66.0212 273.082L118.509 273.849L118.494 274.849L66.0065 274.082L66.0212 273.082ZM65.5139 323.132L65.5139 273.582L66.5139 273.582L66.5139 323.132L65.5139 323.132ZM41.3417 300.158L41.3417 296.556L42.3417 296.556L42.3417 300.158L41.3417 300.158ZM63.0609 300.038L63.0609 296.676L64.0609 296.676L64.0609 300.038L63.0609 300.038ZM56.35 296.556L56.35 300.158L55.35 300.158L55.35 296.556L56.35 296.556ZM37.3577 300.158L37.3577 296.556L38.3577 296.556L38.3577 300.158L37.3577 300.158ZM184.045 320.907C196.091 320.907 216.478 316.209 230.73 310.26L231.115 311.182C216.777 317.167 196.258 321.907 184.045 321.907L184.045 320.907ZM230.73 310.26C235.399 308.311 239.381 306.239 242.188 304.172C243.591 303.138 244.683 302.118 245.42 301.13C246.157 300.141 246.518 299.215 246.518 298.357L247.518 298.357C247.518 299.502 247.037 300.634 246.221 301.728C245.405 302.822 244.23 303.909 242.781 304.977C239.882 307.112 235.817 309.22 231.115 311.182L230.73 310.26ZM184.045 274.807C196.258 274.807 216.777 279.547 231.115 285.531L230.73 286.454C216.478 280.505 196.091 275.807 184.045 275.807L184.045 274.807ZM231.115 285.531C235.817 287.494 239.882 289.602 242.781 291.737C244.23 292.804 245.405 293.892 246.221 294.986C247.037 296.08 247.518 297.212 247.518 298.357L246.518 298.357C246.518 297.499 246.157 296.573 245.42 295.584C244.683 294.596 243.591 293.576 242.188 292.542C239.381 290.474 235.399 288.403 230.73 286.454L231.115 285.531ZM230.423 310.721L230.423 285.993L231.423 285.993L231.423 310.721L230.423 310.721Z" fill="white"/>
<path d="M127.496 267.487L127.496 257.527L170.324 257.527L170.324 267.487M129.488 259.519L125.504 255.535M172.316 259.519L168.332 255.535M237.056 275.455L257.972 275.455M257.972 275.455L257.972 321.271M257.972 275.455L259.964 277.447M257.972 275.455L255.98 273.463M237.056 321.271L257.972 321.271M257.972 321.271L259.964 323.263M257.972 321.271L255.98 319.279M131.48 298.363C131.48 303.531 135.673 307.72 140.846 307.72L157.927 307.72C163.1 307.72 167.293 303.531 167.293 298.363C167.293 293.196 163.1 289.007 157.927 289.007L140.846 289.007C135.673 289.007 131.48 293.196 131.48 298.363Z" stroke="#FF6F43" stroke-width="0.5"/>
<path d="M63.5589 323.168L63.2277 322.793C63.3172 322.714 63.4321 322.67 63.5516 322.668L63.5589 323.168ZM118.5 322.365L118.492 321.865C118.736 321.862 118.946 322.034 118.991 322.273C119.036 322.513 118.901 322.75 118.673 322.834L118.5 322.365ZM37.8557 352.141L38.0289 352.61L37.3557 352.858L37.3557 352.141L37.8557 352.141ZM37.8557 345.898L37.3557 345.898L37.3557 345.673L37.5245 345.524L37.8557 345.898ZM37.8557 300.158L37.8557 300.658L37.3557 300.658L37.3557 300.158L37.8557 300.158ZM63.5589 273.546L63.5516 274.046C63.4321 274.044 63.3172 274 63.2277 273.92L63.5589 273.546ZM118.5 274.349L118.673 273.88C118.901 273.964 119.036 274.201 118.991 274.44C118.946 274.68 118.736 274.852 118.492 274.849L118.5 274.349ZM37.8557 244.573L37.3557 244.573L37.3557 243.855L38.0289 244.104L37.8557 244.573ZM37.8557 250.816L37.5245 251.19L37.3557 251.041L37.3557 250.816L37.8557 250.816ZM37.8557 296.556L37.3557 296.556L37.3557 296.056L37.8557 296.056L37.8557 296.556ZM39.7121 351.455L39.539 350.986L39.539 350.986L39.7121 351.455ZM39.7121 344.256L39.3809 343.882L39.3809 343.882L39.7121 344.256ZM39.7121 252.457L39.3809 252.832L39.7121 252.457ZM39.7121 245.258L39.539 245.727L39.539 245.727L39.7121 245.258ZM37.3557 352.141L37.3557 345.898L38.3557 345.898L38.3557 352.141L37.3557 352.141ZM55.848 300.658L39.7121 300.658L39.7121 299.658L55.848 299.658L55.848 300.658ZM39.7121 300.658L37.8557 300.658L37.8557 299.658L39.7121 299.658L39.7121 300.658ZM38.3557 244.573L38.3557 250.816L37.3557 250.816L37.3557 244.573L38.3557 244.573ZM55.848 297.056L39.7121 297.056L39.7121 296.056L55.848 296.056L55.848 297.056ZM39.7121 297.056L37.8557 297.056L37.8557 296.056L39.7121 296.056L39.7121 297.056ZM118.673 322.834L39.8853 351.924L39.539 350.986L118.326 321.896L118.673 322.834ZM39.8853 351.924L38.0289 352.61L37.6825 351.672L39.539 350.986L39.8853 351.924ZM37.5245 345.524L39.3809 343.882L40.0434 344.631L38.1869 346.273L37.5245 345.524ZM39.3809 343.882L63.2277 322.793L63.8901 323.543L40.0434 344.631L39.3809 343.882ZM38.1869 250.441L40.0434 252.083L39.3809 252.832L37.5245 251.19L38.1869 250.441ZM40.0434 252.083L63.8901 273.171L63.2277 273.92L39.3809 252.832L40.0434 252.083ZM118.326 274.818L39.539 245.727L39.8853 244.789L118.673 273.88L118.326 274.818ZM39.539 245.727L37.6825 245.042L38.0289 244.104L39.8853 244.789L39.539 245.727ZM158.144 286.493L140.199 286.493L140.199 285.493L158.144 285.493L158.144 286.493ZM140.199 310.221L158.144 310.221L158.144 311.221L140.199 311.221L140.199 310.221ZM128.322 298.357C128.322 304.909 133.639 310.221 140.199 310.221L140.199 311.221C133.088 311.221 127.322 305.462 127.322 298.357L128.322 298.357ZM140.199 286.493C133.639 286.493 128.322 291.805 128.322 298.357L127.322 298.357C127.322 291.252 133.088 285.493 140.199 285.493L140.199 286.493ZM170.021 298.357C170.021 291.805 164.704 286.493 158.144 286.493L158.144 285.493C165.255 285.493 171.021 291.252 171.021 298.357L170.021 298.357ZM171.021 298.357C171.021 305.462 165.255 311.221 158.144 311.221L158.144 310.221C164.704 310.221 170.021 304.909 170.021 298.357L171.021 298.357ZM37.3557 300.158L37.3557 296.556L38.3557 296.556L38.3557 300.158L37.3557 300.158ZM63.5516 322.668L118.492 321.865L118.507 322.865L63.5662 323.668L63.5516 322.668ZM118.492 274.849L63.5516 274.046L63.5662 273.046L118.507 273.849L118.492 274.849Z" fill="white"/>
<rect x="0.323589" y="-0.323589" width="117.853" height="168.279" transform="matrix(1 0 0 -1 30 187.353)" fill="#0D0D0D" stroke="#FF6F43" stroke-width="0.647177"/>
<path d="M71.2008 59.6529C71.0191 60.382 70.3443 61.8402 69.0984 61.8402C67.541 61.8402 65.5164 63.7869 65.9836 63.9426C66.4508 64.0984 65.3607 65.3443 65.9836 65.2664C66.6066 65.1885 68.6311 62.6967 68.2418 63.709C67.8525 64.7213 64.5041 68.6926 65.5164 67.6803C66.5287 66.668 71.123 64.1762 70.6557 63.9426C70.1885 63.709 72.0574 61.6066 72.7582 61.6066C73.459 61.6066 73.7705 63.4754 72.9918 63.709C72.2131 63.9426 74.9385 63.4754 74.9385 63.709C74.9385 63.9426 74.7828 67.2131 75.4057 67.2131C76.0287 67.2131 70.8115 69.9385 70.3443 69.0041C69.877 68.0697 67.8525 71.5738 69.0984 71.3402C70.3443 71.1066 71.2008 70.4836 71.2008 71.0287C71.2008 71.5738 67.3074 73.0533 67.1516 72.8975C67.027 72.773 67.515 72.1708 67.7746 71.8852C67.0478 71.9891 65.4852 72.368 65.0492 73.0533C64.5041 73.9098 61.4672 75.9344 60.8443 75.9344C60.2213 75.9344 59.1311 79.2049 57.3402 79.2049C55.5492 79.2049 53.9139 86.1352 53.1352 86.0574C52.3566 85.9795 53.8361 83.332 53.7582 82.3975C53.6803 81.4631 52.8238 82.5533 52.8238 81.9303C52.8238 81.3074 51.5779 82.1639 51.1107 81.9303C50.7369 81.7434 50.5915 81.2295 50.5656 80.9959C49.4754 82.3456 47.2795 85.2787 47.2172 86.2131C47.1393 87.3811 45.7377 90.5738 46.5164 90.418C47.2951 90.2623 47.5287 90.418 47.6844 90.1066C47.8402 89.7951 48.3852 88.2377 48.8525 88.2377C49.3197 88.2377 49.7869 88.082 49.3197 89.25C48.8525 90.418 47.2951 92.832 47.8402 92.9877C48.3852 93.1434 49.4754 93.2213 49.4754 94.3115C49.4754 95.4016 48.4631 97.3484 48.6967 98.0492C48.9303 98.75 49.3975 99.918 49.7869 99.7623C50.1762 99.6066 50.4877 99.1393 51.0328 99.5287C51.5779 99.918 51.5 100.852 51.8893 100.385C52.2787 99.918 52.2008 98.5943 52.9016 98.5164C53.6025 98.4385 54.2254 97.3484 54.8484 97.5041C55.4713 97.6598 53.9918 98.75 54.5369 98.8279C55.082 98.9057 55.4713 97.8156 55.7828 97.8934C56.0943 97.9713 55.7049 98.75 56.25 98.75C56.7951 98.75 56.1721 99.5287 56.7172 99.5287C57.2623 99.5287 59.4426 97.7377 60.8443 99.5287C62.2459 101.32 62.4795 104.512 64.2705 104.512C66.0615 104.512 68.3975 105.525 68.9426 106.537C69.4877 107.549 69.7213 108.406 70.5 108.873C71.2787 109.34 70.5 110.664 71.2787 111.053C72.0574 111.443 72.8361 111.754 74.4713 112.766C76.1066 113.779 76.0287 113.234 77.1189 113.311C78.209 113.389 78.9098 113.467 79.6885 114.48C80.4672 115.492 81.2459 115.959 81.9467 115.648C82.6475 115.336 83.3484 118.295 82.0246 119.619C80.7008 120.943 78.9877 121.721 79.1434 122.889C79.2992 124.057 79.7664 126.783 78.4426 128.262C77.1189 129.742 75.7951 129.898 73.8484 130.676C71.9016 131.455 73.6148 132.389 72.7582 133.557C71.9016 134.725 70.7336 135.738 69.6434 136.205C68.5533 136.672 69.877 138.775 69.4877 139.008C69.0984 139.242 67.541 138.23 67.3852 138.619C67.2295 139.008 68.1639 140.643 67.3852 140.799C66.6066 140.955 66.7623 139.709 66.4508 140.02C66.1393 140.332 64.582 142.902 62.168 138.619C59.7541 134.336 57.418 129.82 57.3402 125.693C57.2623 121.566 52.9795 123.123 52.2008 118.84C51.4221 114.557 47.918 111.754 49.4754 110.352C49.1639 109.081 48.8369 106.506 50.0205 106.381C51.5 106.225 50.4098 104.123 50.7213 102.955C51.0328 101.787 51.0328 99.918 50.332 100.385C49.6311 100.852 49.2418 101.631 49.2418 101.008C49.2418 100.385 47.7623 98.75 47.7623 98.0492C47.7623 97.3484 48.2295 94.9344 47.373 95.0123C46.5164 95.0902 46.4385 92.9877 46.3607 92.0533C46.2828 91.1188 45.4262 93.5328 45.1148 91.8197C44.8033 90.1066 44.8033 87.6148 45.6598 86.2131C46.3451 85.0918 47.4481 81.9563 47.914 80.5287M71.2008 59.6529C61.2872 63.7951 53.0772 71.2014 47.914 80.5287M71.2008 59.6529C72.4217 59.1428 73.6685 58.6822 74.9385 58.2736M47.914 80.5287C44.1454 87.3365 42 95.1677 42 103.5C42 128.898 61.9329 149.64 87.0082 150.936M74.9385 58.2736C79.5272 56.7973 84.4205 56 89.5 56C91.0999 56 92.6814 56.0791 94.2407 56.2336M74.9385 58.2736C74.627 59.3067 74.0975 61.4508 74.4713 61.7623C74.9385 62.1516 74.627 61.7623 75.1721 61.373C75.7172 60.9836 76.2623 62.541 76.5738 62.0738C76.8852 61.6066 76.8074 59.7377 77.1967 60.127C77.5861 60.5164 78.209 61.6066 78.4426 61.373C78.6762 61.1393 76.8074 59.0369 78.9098 59.0369C81.0123 59.0369 82.4918 58.7254 81.4016 60.75C80.3115 62.7746 81.791 64.4098 82.959 63.8648C84.127 63.3197 86.3074 59.8156 88.4877 59.8156C90.668 59.8156 91.5246 63.0082 93.0041 62.7746C94.4836 62.541 95.0287 61.8402 94.5615 61.2951C94.0943 60.75 90.5902 61.1393 91.291 60.0492C91.9918 58.959 94.7172 60.6721 95.0287 60.3607C95.3402 60.0492 90.4158 56.7008 94.2407 56.2336M94.2407 56.2336C97.3806 56.5447 100.431 57.1616 103.361 58.0541M103.361 58.0541C105.126 59.0566 108.22 61.0615 106.475 61.0615C104.295 61.0615 101.881 63.0861 103.127 63.5533C104.373 64.0205 107.566 67.5246 106.475 68.0697C105.385 68.6148 106.242 70.0164 105.385 69.9385C104.529 69.8607 102.348 70.3279 103.361 70.4836C104.373 70.6393 107.643 73.2869 106.709 73.832C105.775 74.377 102.66 71.8074 102.426 73.2869C102.193 74.7664 103.127 76.0123 102.66 76.0123C102.193 76.0123 103.127 76.9467 103.127 77.8033C103.127 78.6598 104.84 78.0369 104.84 78.6598C104.84 79.2828 105.93 80.0615 105.152 80.5287C104.373 80.9959 103.361 81.541 103.127 84.3443C102.893 87.1475 101.492 84.5779 100.48 87.8484C99.4672 91.1189 97.832 91.041 99.1557 93.4549C100.48 95.8689 97.832 95.5574 99.1557 99.0615C100.48 102.566 104.684 104.434 106.164 106.537C107.643 108.639 107.488 105.992 110.057 105.992C112.627 105.992 114.73 106.381 114.652 104.279C114.574 102.176 115.82 104.59 117.299 104.746C118.779 104.902 116.91 106.303 118.389 106.303C119.869 106.303 120.648 104.98 120.648 106.848C120.648 108.717 119.791 111.598 121.193 112.922C122.594 114.246 122.439 115.18 122.205 118.139C121.971 121.098 120.102 123.045 120.648 126.939C121.193 130.832 119.557 127.873 119.947 132.078C120.336 136.283 117.299 135.893 119.246 135.893C121.193 135.893 124.697 133.324 125.943 130.598C127.189 127.873 130.459 127.406 130.459 125.303C130.459 123.201 134.119 120.32 134.119 117.127C134.119 113.934 135.598 110.508 135.598 106.848C135.598 103.189 136.528 100.152 136.258 95.0902M103.361 58.0541C110.589 60.2559 117.086 64.1349 122.399 69.2377M136.258 95.0902C136.745 97.8198 137 100.63 137 103.5C137 125.139 122.53 143.399 102.738 149.131M136.258 95.0902C135.595 91.3785 134.5 87.8161 133.029 84.4568M87.0082 150.936C87.8334 150.978 88.6642 151 89.5 151C94.0941 151 98.5358 150.348 102.738 149.131M87.0082 150.936C87.5273 150.386 89.2041 149.287 91.7582 149.287C94.9508 149.287 98.9221 148.041 100.246 148.975C101.305 149.723 102.348 149.391 102.738 149.131M131.341 80.9959C130.943 80.8142 130.319 80.6844 131.004 81.6189C131.689 82.5533 132.639 83.9002 133.029 84.4568M131.341 80.9959C131.949 82.123 132.512 83.2774 133.029 84.4568M131.341 80.9959C130.395 79.2394 129.34 77.5493 128.188 75.9344M128.188 75.9344C127.517 75.8825 126.176 75.5139 126.176 74.4549C126.176 73.1311 123.295 71.3402 123.217 70.873C123.155 70.4992 122.646 69.627 122.399 69.2377M128.188 75.9344C126.468 73.525 124.529 71.283 122.399 69.2377M50.6434 88.0041C50.877 87.6667 51.5467 87.1164 52.3566 87.6148C53.3689 88.2377 53.1352 89.7951 54.2254 89.9508C55.3156 90.1066 54.9262 90.5738 53.9139 90.5738C52.9016 90.5738 54.0697 90.1066 53.7582 90.1066C53.4467 90.1066 52.2787 88.7049 52.2008 88.2377C52.123 87.7705 50.0205 88.9385 50.6434 88.0041ZM55.4713 90.8852C55.627 91.7418 55.4713 92.0533 54.8484 92.0533C54.2254 92.0533 55.7049 92.5205 56.7172 92.4426C57.7295 92.3648 57.8852 92.3648 57.8852 92.1311C57.8852 91.8975 55.4189 90.2623 55.4713 90.8852ZM58.5082 92.5205C59.2869 92.4426 59.7541 92.5984 59.3648 92.9877C58.9754 93.377 57.8074 92.5984 58.5082 92.5205ZM52.9016 91.5861C53.2009 91.6399 53.4467 92.3648 52.9016 92.3648C52.3566 92.3648 52.3566 91.8975 52.5123 91.7418C52.6369 91.6172 52.7405 91.5571 52.9016 91.5861ZM128.746 83.7992C130.07 82.709 131.082 86.9918 131.705 87.8484C132.328 88.7049 133.885 90.3402 134.197 92.0533C134.508 93.7664 135.131 95.0902 134.664 94.7008C134.197 94.3115 133.418 92.1311 132.717 91.3525C132.016 90.5738 132.094 89.25 131.393 88.3934C130.693 87.5369 130.148 86.1352 129.447 85.2008C128.746 84.2664 128.279 84.3443 128.746 83.7992ZM121.348 75.9344C122.984 77.959 123.529 77.959 124.074 77.5697C124.619 77.1803 125.709 78.7377 125.787 77.3361C125.865 75.9344 126.098 79.5164 126.566 79.5164C127.033 79.5164 126.41 82.1639 125.553 81.8525C124.697 81.541 122.906 80.0615 122.127 80.4508C121.348 80.8402 122.594 80.918 122.127 82.1639C121.66 83.4098 120.258 83.4098 119.869 82.1639C119.48 80.918 118.156 81.541 117.299 80.9959C116.443 80.4508 116.287 81.1516 116.131 79.5164C115.975 77.8811 115.742 78.0369 114.652 78.0369C113.561 78.0369 111.148 77.7254 110.057 78.4262C108.967 79.127 107.721 79.6721 106.943 79.5164C106.164 79.3607 106.865 78.7377 108.189 78.0369C109.512 77.3361 112.16 75.7008 110.057 76.168C107.955 76.6352 108.033 74.7664 109.045 74.6885C110.057 74.6107 113.016 74.5328 113.016 75.9344C113.016 77.3361 112.783 75.0779 114.029 75.2336C115.275 75.3893 115.197 77.5697 116.131 77.5697C117.066 77.5697 118.311 77.1803 116.988 75.9344C115.664 74.6885 110.68 72.8197 111.148 72.1967C111.615 71.5738 114.496 72.7418 116.287 73.9877C118.078 75.2336 118 77.3361 119.402 77.3361C120.803 77.3361 118.078 75 119.324 74.8443C120.57 74.6885 122.205 74.8443 121.348 74.2213C120.492 73.5984 118.623 70.873 119.402 70.873C120.18 70.873 121.348 72.5082 121.348 71.8852C121.348 71.2623 119.713 70.3279 120.414 69.9385C121.115 69.5492 125.086 73.6762 124.385 73.832C123.684 73.9877 122.127 72.9754 122.127 73.832C122.127 74.6885 121.971 76.3238 121.348 75.9344ZM105.775 64.332C107.566 66.2008 108.811 65.7336 110.057 65.9672C111.303 66.2008 111.537 64.0205 110.057 63.5533C108.578 63.0861 108.955 65.1885 107.566 64.9549C106.454 64.768 105.909 64.4617 105.775 64.332ZM99.9344 65.9672C98.8598 65.9329 98.2213 68.6926 99.5451 68.6926C100.869 68.6926 101.959 68.3033 101.258 67.1352C100.698 66.2008 100.624 65.9892 99.9344 65.9672ZM100.635 63.9426C100.168 64.4617 99.3738 65.5 99.9344 65.5C100.635 65.5 101.258 65.3443 101.258 65.9672C101.258 66.5902 101.258 67.1352 101.959 67.1352C102.66 67.1352 102.66 67.6803 102.66 68.3811C102.66 69.082 103.75 68.9262 104.217 68.9262C104.684 68.9262 105.697 67.6025 104.529 67.3689C103.361 67.1352 103.672 65.9672 102.66 65.9672C101.648 65.9672 101.725 64.7992 101.414 64.7992C101.165 64.7992 100.791 64.2281 100.635 63.9426ZM71.7459 70.4057C72.9918 69.627 74.7049 67.9918 75.6393 68.0697C76.5738 68.1475 74.2377 69.3934 74.9385 70.6393C75.6393 71.8852 74.2377 70.6393 73.2254 70.6393C72.2131 70.6393 70.9672 70.9442 71.7459 70.4057Z" stroke="white" stroke-width="0.3"/>
<circle cx="55.0376" cy="105.323" r="0.513196" stroke="#FF6F43" stroke-width="0.25"/>
<circle cx="54.4898" cy="100.947" r="0.513196" stroke="#FF6F43" stroke-width="0.25"/>
<circle cx="72.9068" cy="122.828" r="0.513196" stroke="#FF6F43" stroke-width="0.25"/>
<circle cx="66.3423" cy="130.487" r="0.513196" stroke="#FF6F43" stroke-width="0.25"/>
<circle cx="59.9605" cy="72.3196" r="0.513196" stroke="#FF6F43" stroke-width="0.25"/>
<circle cx="65.6138" cy="69.7669" r="0.513196" stroke="#FF6F43" stroke-width="0.25"/>
<circle cx="67.9829" cy="70.4961" r="0.513196" stroke="#FF6F43" stroke-width="0.25"/>
<circle cx="62.6948" cy="73.9606" r="0.513196" stroke="#FF6F43" stroke-width="0.25"/>
<circle cx="59.9605" cy="75.2371" r="0.513196" stroke="#FF6F43" stroke-width="0.25"/>
<circle cx="49.5669" cy="80.525" r="0.513196" stroke="#FF6F43" stroke-width="0.25"/>
<circle cx="51.938" cy="76.5134" r="0.513196" stroke="#FF6F43" stroke-width="0.25"/>
<circle cx="57.2251" cy="70.4961" r="0.513196" stroke="#FF6F43" stroke-width="0.25"/>
<circle cx="83.1177" cy="57.5499" r="0.513196" stroke="#FF6F43" stroke-width="0.25"/>
<circle cx="106.64" cy="88.7304" r="0.513196" stroke="#FF6F43" stroke-width="0.25"/>
<circle cx="102.264" cy="91.6478" r="0.513196" stroke="#FF6F43" stroke-width="0.25"/>
<circle cx="80.7476" cy="91.6478" r="0.513196" stroke="#FF6F43" stroke-width="0.25"/>
<circle cx="107.917" cy="70.3139" r="0.513196" stroke="#FF6F43" stroke-width="0.25"/>
<circle cx="131.074" cy="102.953" r="0.513196" stroke="#FF6F43" stroke-width="0.25"/>
<circle cx="126.15" cy="115.534" r="0.513196" stroke="#FF6F43" stroke-width="0.25"/>
<circle cx="124.874" cy="129.21" r="0.513196" stroke="#FF6F43" stroke-width="0.25"/>
<circle cx="128.338" cy="79.9779" r="0.513196" stroke="#FF6F43" stroke-width="0.25"/>
</g>
</svg>
