<svg width="315" height="430" viewBox="0 0 315 430" fill="none" xmlns="http://www.w3.org/2000/svg">
<mask id="mask0" mask-type="alpha" maskUnits="userSpaceOnUse" x="0" y="0" width="315" height="430">
<rect width="315" height="430" fill="#C4C4C4"/>
</mask>
<g mask="url(#mask0)">
<path d="M-27.9442 199V397.092M-27.9442 199H-11.0032M-27.9442 199H-44.8852M-27.9442 397.092H-11.0032M-27.9442 397.092H-44.8852M107.584 199V397.092M107.584 199H90.6426M107.584 199H124.525M107.584 397.092H90.6426M107.584 397.092H124.525M39.8197 199V397.092M39.8197 199H22.8787M39.8197 199H56.7606M39.8197 397.092H22.8787M39.8197 397.092H56.7606M73.7016 199V397.092M73.7016 199H56.7606M73.7016 199H90.6426M73.7016 397.092H56.7606M73.7016 397.092H90.6426M5.93771 199V397.092M5.93771 199H22.8787M5.93771 199H-11.0032M5.93771 397.092H22.8787M5.93771 397.092H-11.0032M22.8787 199V397.092M-11.0032 199V397.092M56.7606 397.092V199M90.6426 199V397.092M175.347 397.092V199M175.347 397.092H158.406M175.347 397.092H192.288M175.347 199H158.406M175.347 199H192.288M141.465 199V397.092M141.465 199H124.525M141.465 199H158.406M141.465 397.092H124.525M141.465 397.092H158.406M124.525 397.092V199M158.406 199V397.092M209.229 397.092V199M209.229 397.092H226.17M209.229 397.092H192.288M209.229 199H226.17M209.229 199H192.288M226.17 199H243.111V397.092H226.17M226.17 199V397.092M192.288 397.092V199M-163.472 199V397.092M-163.472 199H-180.413M-163.472 199H-146.531M-163.472 397.092H-180.413M-163.472 397.092H-146.531M-231.236 199V397.092M-231.236 199H-248.177M-231.236 199H-214.295M-231.236 397.092H-248.177M-231.236 397.092H-214.295M-197.354 199V397.092M-197.354 199H-214.295M-197.354 199H-180.413M-197.354 397.092H-214.295M-197.354 397.092H-180.413M-265.118 199V397.092M-265.118 199H-248.177M-265.118 199H-282.059M-265.118 199H-222.765H-180.413M-265.118 397.092H-248.177M-265.118 397.092H-282.059M-248.177 199V397.092M-282.059 199H-299V397.092H-282.059M-282.059 199V397.092M-214.295 397.092V199M-180.413 199V397.092M-95.7081 397.092V199M-95.7081 397.092H-112.649M-95.7081 397.092H-78.7672M-95.7081 199H-112.649M-95.7081 199H-78.7672M-129.59 199V397.092M-129.59 199H-146.531M-129.59 199H-112.649M-129.59 397.092H-146.531M-129.59 397.092H-112.649M-146.531 397.092V199M-112.649 199V397.092M-61.8262 397.092V199M-61.8262 397.092H-44.8852M-61.8262 397.092H-78.7672M-61.8262 199H-44.8852M-61.8262 199H-78.7672M-44.8852 199V397.092M-78.7672 397.092V199" stroke="white" stroke-width="0.5"/>
<path d="M10.4034 2V199.592M10.4034 2H27.3444M10.4034 2H-6.53755M10.4034 199.592H27.3444M10.4034 199.592H-6.53755M145.931 2V199.592M145.931 2H128.99M145.931 2H162.872M145.931 199.592H128.99M145.931 199.592H162.872M78.1673 2V199.592M78.1673 2H61.2263M78.1673 2H95.1083M78.1673 199.592H61.2263M78.1673 199.592H95.1083M112.049 2V199.592M112.049 2H95.1083M112.049 2H128.99M112.049 199.592H95.1083M112.049 199.592H128.99M44.2854 2V199.592M44.2854 2H61.2263M44.2854 2H27.3444M44.2854 199.592H61.2263M44.2854 199.592H27.3444M61.2263 2V199.592M27.3444 2V199.592M95.1083 199.592V2M128.99 2V199.592M213.695 199.592V2M213.695 199.592H196.754M213.695 199.592H230.636M213.695 2H196.754M213.695 2H230.636M179.813 2V199.592M179.813 2H162.872M179.813 2H196.754M179.813 199.592H162.872M179.813 199.592H196.754M162.872 199.592V2M196.754 2V199.592M247.577 199.592V2M247.577 199.592H264.518M247.577 199.592H230.636M247.577 2H264.518M247.577 2H230.636M264.518 2H281.459V199.592H264.518M264.518 2V199.592M230.636 199.592V2M-125.124 2V199.592M-125.124 2H-142.065M-125.124 2H-108.183M-125.124 199.592H-142.065M-125.124 199.592H-108.183M-192.888 2V199.592M-192.888 2H-209.829M-192.888 2H-175.947M-192.888 199.592H-209.829M-192.888 199.592H-175.947M-159.006 2V199.592M-159.006 2H-175.947M-159.006 2H-142.065M-159.006 199.592H-175.947M-159.006 199.592H-142.065M-226.77 2V199.592M-226.77 2H-209.829M-226.77 2H-243.711M-226.77 2H-184.418H-142.065M-226.77 199.592H-209.829M-226.77 199.592H-243.711M-209.829 2V199.592M-243.711 2H-260.652V199.592H-243.711M-243.711 2V199.592M-175.947 199.592V2M-142.065 2V199.592M-57.3605 199.592V2M-57.3605 199.592H-74.3015M-57.3605 199.592H-40.4195M-57.3605 2H-74.3015M-57.3605 2H-40.4195M-91.2424 2V199.592M-91.2424 2H-108.183M-91.2424 2H-74.3015M-91.2424 199.592H-108.183M-91.2424 199.592H-74.3015M-108.183 199.592V2M-74.3015 2V199.592M-23.4785 199.592V2M-23.4785 199.592H-6.53755M-23.4785 199.592H-40.4195M-23.4785 2H-6.53755M-23.4785 2H-40.4195M-6.53755 2V199.592M-40.4195 199.592V2" stroke="white" stroke-width="0.5"/>
<path d="M243 199.5V397H228.75H214.5H200.25H186H171.75H157.5H143.25H129H114.75H100.5H86.25H72H57.75H43.5H29.25H15H0.75H-13.5H-27.75H-42H-56.25H-70.5H-84.75H-99H-113.25H-127.5H-141.75H-156H-170.25H-184.5H-198.75H-213" stroke="#FB6233" stroke-width="1.3"/>
<path d="M281.459 2V199.592H264.518H247.577H230.636H213.695H196.754H179.813H162.872H145.931H128.99H112.049H95.1083H78.1673H61.2263H44.2854H27.3444H10.4034H-6.53754H-23.4785H-40.4195H-57.3605H-74.3015H-91.2424H-108.183H-125.124H-142.065H-159.006H-175.947H-192.888H-209.829H-226.77H-243.711H-260.652V2H-243.711H-226.77H-209.829H-192.888H-175.947H-159.006H-142.065H-125.124H-108.183H-91.2424H-74.3015H-57.3605H-40.4195H-23.4785H-6.53754H10.4034H27.3444H44.2854H61.2263H78.1673H95.1083H112.049H128.99H145.931H162.872H179.813H196.754H213.695H230.636H247.577H264.518H281.459Z" stroke="#FB6233" stroke-width="1.3"/>
<rect x="-0.65" y="0.65" width="144.7" height="163.7" transform="matrix(-1 0 0 1 231.7 216)" fill="#0D0D0D" stroke="#FF6F43" stroke-width="1.3"/>
<path d="M172.151 257.947L176.434 259.223L173.93 269.611M172.151 257.947L174.655 247.558M172.151 257.947L163.584 255.395M163.584 255.395L159.301 254.119L150.537 290.48L153.652 291.408M163.584 255.395L166.088 245.006M166.088 245.006L174.655 247.558M166.088 245.006L163.363 244.194L164.615 239L178.632 243.175L177.38 248.37L174.655 247.558M164.555 294.655L167.67 295.583L171.843 278.269M164.555 294.655L162.051 305.044M164.555 294.655L153.652 291.408M162.051 305.044L160.799 310.239L149.896 306.991L151.148 301.797M162.051 305.044L151.148 301.797M153.652 291.408L151.148 301.797M173.93 269.611L184.832 272.859C191.714 274.909 195.798 282.772 193.954 290.422L186.107 322.978M173.93 269.611L171.843 278.269M171.843 278.269L176.516 279.661C181.677 281.198 184.74 287.095 183.357 292.833L176.762 320.195M169.92 327.802C171.303 322.064 176.608 318.659 181.769 320.197C186.93 321.734 189.993 327.632 188.61 333.369C187.683 337.215 184.995 340.012 181.769 340.976M169.92 327.802L138.77 318.523M169.92 327.802C168.993 331.647 170.063 335.564 172.424 338.193M172.424 338.193C173.585 339.486 175.059 340.467 176.761 340.974C178.463 341.481 180.181 341.451 181.769 340.976M172.424 338.193L170.837 344.777L135.014 334.106L130.827 348.284M178.632 348.284L181.769 340.976M149.896 316.315L132.841 299.26L112.904 299.26M184.832 262.877L189.762 257.947L205 257.947M205 357.246L116.315 357.246L116.315 348.284L205 348.284L205 357.246Z" stroke="#FB6233" stroke-width="0.450955"/>
<path d="M169.92 327.802L138.77 318.523M150.537 290.48L159.301 254.119L163.584 255.395L172.15 257.947L176.433 259.223L173.929 269.611L171.843 278.269L167.669 295.583L164.554 294.655L153.652 291.408L150.537 290.48ZM166.088 245.006L174.654 247.558L177.38 248.37L178.632 243.175L164.614 239L163.362 244.194L166.088 245.006ZM205 348.15L205 357.246L116.315 357.246L116.315 348.15L205 348.15Z" stroke="white"/>
<rect x="-0.5" y="0.5" width="142" height="164" transform="matrix(-1 0 0 1 161 17)" fill="#0D0D0D" stroke="#FF6F43"/>
<path d="M32 56H52.5V60H36.5V76.5H32V56Z" stroke="#FF6F43" stroke-width="0.5"/>
<path d="M32 140H52.5V136H36.5V119.5H32V140Z" stroke="#FF6F43" stroke-width="0.5"/>
<path d="M149 56H128.5V60H144.5V76.5H149V56Z" stroke="#FF6F43" stroke-width="0.5"/>
<path d="M149 140H128.5V136H144.5V119.5H149V140Z" stroke="#FF6F43" stroke-width="0.5"/>
<path d="M74.5 100H90.75M107 100H98.875H90.75M90.75 100V81.5M90.75 100V118.5" stroke="white" stroke-width="0.5"/>
<path d="M40 22H24V38.5M40 177H24V160.5M141 22H157V38.5M141 177H157V160.5" stroke="white"/>
<path d="M112.588 229H98V244.116M112.588 371H98V355.884M207.412 229H222V244.116M207.412 371H222V355.884" stroke="white"/>
</g>
</svg>
