<svg width="140" height="140" viewBox="0 0 140 140" fill="none" xmlns="http://www.w3.org/2000/svg">
<rect x="0.5" y="0.5" width="139" height="139" stroke="#F2693F"/>
<path d="M41.9091 61.5C41.5909 60.3939 41.1439 59.4167 40.5682 58.5682C39.9924 57.7045 39.2879 56.9773 38.4545 56.3864C37.6364 55.7803 36.697 55.3182 35.6364 55C34.5909 54.6818 33.4318 54.5227 32.1591 54.5227C29.7803 54.5227 27.6894 55.1136 25.8864 56.2955C24.0985 57.4773 22.7045 59.197 21.7045 61.4545C20.7045 63.697 20.2045 66.4394 20.2045 69.6818C20.2045 72.9242 20.697 75.6818 21.6818 77.9545C22.6667 80.2273 24.0606 81.9621 25.8636 83.1591C27.6667 84.3409 29.7955 84.9318 32.25 84.9318C34.4773 84.9318 36.3788 84.5379 37.9545 83.75C39.5455 82.947 40.7576 81.8182 41.5909 80.3636C42.4394 78.9091 42.8636 77.1894 42.8636 75.2045L44.8636 75.5H32.8636V68.0909H52.3409V73.9545C52.3409 78.0455 51.4773 81.5606 49.75 84.5C48.0227 87.4242 45.6439 89.6818 42.6136 91.2727C39.5833 92.8485 36.1136 93.6364 32.2045 93.6364C27.8409 93.6364 24.0076 92.6742 20.7045 90.75C17.4015 88.8106 14.8258 86.0606 12.9773 82.5C11.1439 78.9242 10.2273 74.6818 10.2273 69.7727C10.2273 66 10.7727 62.6364 11.8636 59.6818C12.9697 56.7121 14.5152 54.197 16.5 52.1364C18.4848 50.0758 20.7955 48.5076 23.4318 47.4318C26.0682 46.3561 28.9242 45.8182 32 45.8182C34.6364 45.8182 37.0909 46.2045 39.3636 46.9773C41.6364 47.7348 43.6515 48.8106 45.4091 50.2045C47.1818 51.5985 48.6288 53.2576 49.75 55.1818C50.8712 57.0909 51.5909 59.197 51.9091 61.5H41.9091ZM59.733 46.4545H71.8693L84.6875 77.7273H85.233L98.0511 46.4545H110.188V93H100.642V62.7045H100.256L88.2102 92.7727H81.7102L69.6648 62.5909H69.2784V93H59.733V46.4545ZM128.136 46.4545V93H118.295V46.4545H128.136Z" fill="#F2693F"/>
</svg>
