<svg width="203" height="634" viewBox="0 0 203 634" fill="none" xmlns="http://www.w3.org/2000/svg">
<path d="M108.712 513.852C79.608 513.852 57.352 504.864 41.944 486.888C26.8213 468.912 18.404 444.231 16.692 412.844L59.492 401.288C60.9187 423.544 65.1987 441.52 72.332 455.216C79.7507 468.912 91.8773 475.76 108.712 475.76C121.267 475.76 130.683 472.336 136.96 465.488C143.523 458.355 146.804 448.225 146.804 435.1C146.804 420.833 143.808 408.992 137.816 399.576C131.824 390.16 122.265 379.745 109.14 368.332L50.932 316.972C39.2333 306.7 30.6733 295.715 25.252 284.016C20.116 272.032 17.548 257.48 17.548 240.36C17.548 214.965 24.824 195.277 39.376 181.296C53.928 167.315 73.7587 160.324 98.868 160.324C126.26 160.324 146.947 167.6 160.928 182.152C174.909 196.704 183.327 219.245 186.18 249.776L145.092 260.904C143.665 240.645 139.671 225.095 133.108 214.252C126.831 203.124 115.417 197.56 98.868 197.56C86.5987 197.56 77.1827 200.841 70.62 207.404C64.0573 213.681 60.776 223.097 60.776 235.652C60.776 245.924 62.488 254.627 65.912 261.76C69.336 268.608 75.1853 275.599 83.46 282.732L142.096 334.092C157.219 347.503 169.203 362.055 178.048 377.748C187.179 393.441 191.744 411.275 191.744 431.248C191.744 456.643 184.04 476.759 168.632 491.596C153.224 506.433 133.251 513.852 108.712 513.852Z" fill="#F7931A"/>
<path d="M41.944 486.888L41.1787 487.532L41.1847 487.539L41.944 486.888ZM16.692 412.844L16.4313 411.879L15.6494 412.09L15.6935 412.898L16.692 412.844ZM59.492 401.288L60.49 401.224L60.4117 400.004L59.2313 400.323L59.492 401.288ZM72.332 455.216L71.4451 455.678L71.4488 455.685L71.4527 455.692L72.332 455.216ZM136.96 465.488L136.224 464.811L136.223 464.812L136.96 465.488ZM137.816 399.576L138.66 399.039L138.66 399.039L137.816 399.576ZM109.14 368.332L108.478 369.082L108.484 369.087L109.14 368.332ZM50.932 316.972L51.5936 316.222L51.5918 316.221L50.932 316.972ZM25.252 284.016L24.3329 284.41L24.3386 284.423L24.3447 284.436L25.252 284.016ZM39.376 181.296L40.0688 182.017L40.0688 182.017L39.376 181.296ZM186.18 249.776L186.441 250.741L187.254 250.521L187.176 249.683L186.18 249.776ZM145.092 260.904L144.094 260.974L144.18 262.187L145.353 261.869L145.092 260.904ZM133.108 214.252L132.237 214.743L132.245 214.757L132.253 214.77L133.108 214.252ZM70.62 207.404L71.3112 208.127L71.3193 208.119L71.3271 208.111L70.62 207.404ZM65.912 261.76L65.0105 262.193L65.014 262.2L65.0176 262.207L65.912 261.76ZM83.46 282.732L84.1189 281.98L84.1129 281.975L83.46 282.732ZM142.096 334.092L142.76 333.344L142.755 333.34L142.096 334.092ZM178.048 377.748L177.177 378.239L177.184 378.251L178.048 377.748ZM168.632 491.596L169.326 492.316L169.326 492.316L168.632 491.596ZM108.712 512.852C79.827 512.852 57.8785 503.942 42.7033 486.237L41.1847 487.539C56.8255 505.786 79.389 514.852 108.712 514.852V512.852ZM42.7092 486.244C27.7667 468.482 19.3947 444.032 17.6905 412.79L15.6935 412.898C17.4133 444.429 25.876 469.342 41.1788 487.532L42.7092 486.244ZM16.9527 413.809L59.7527 402.253L59.2313 400.323L16.4313 411.879L16.9527 413.809ZM58.4941 401.352C59.926 423.69 64.2255 441.816 71.4451 455.678L73.2189 454.754C66.1718 441.224 61.9114 423.398 60.49 401.224L58.4941 401.352ZM71.4527 455.692C75.2407 462.685 80.2534 467.968 86.4993 471.495C92.7411 475.02 100.158 476.76 108.712 476.76V474.76C100.431 474.76 93.3676 473.076 87.4827 469.753C81.602 466.432 76.842 461.443 73.2113 454.74L71.4527 455.692ZM108.712 476.76C121.444 476.76 131.171 473.284 137.697 466.164L136.223 464.812C130.195 471.388 121.089 474.76 108.712 474.76V476.76ZM137.696 466.165C144.481 458.79 147.804 448.386 147.804 435.1H145.804C145.804 448.065 142.564 457.919 136.224 464.811L137.696 466.165ZM147.804 435.1C147.804 420.696 144.779 408.655 138.66 399.039L136.972 400.113C142.837 409.329 145.804 420.971 145.804 435.1H147.804ZM138.66 399.039C132.596 389.51 122.958 379.023 109.796 367.577L108.484 369.087C121.572 380.468 131.052 390.81 136.972 400.113L138.66 399.039ZM109.802 367.582L51.5936 316.222L50.2704 317.722L108.478 369.082L109.802 367.582ZM51.5918 316.221C39.9765 306.022 31.5113 295.144 26.1593 283.596L24.3447 284.436C29.8354 296.285 38.4902 307.378 50.2722 317.723L51.5918 316.221ZM26.1711 283.622C21.1024 271.795 18.548 257.385 18.548 240.36H16.548C16.548 257.575 19.1296 272.269 24.3329 284.41L26.1711 283.622ZM18.548 240.36C18.548 215.163 25.761 195.764 40.0688 182.017L38.6832 180.575C23.887 194.791 16.548 214.768 16.548 240.36H18.548ZM40.0688 182.017C54.3917 168.256 73.9506 161.324 98.868 161.324V159.324C73.5667 159.324 53.4643 166.373 38.6832 180.575L40.0688 182.017ZM98.868 161.324C126.088 161.324 146.474 168.551 160.207 182.845L161.649 181.459C147.419 166.649 126.432 159.324 98.868 159.324V161.324ZM160.207 182.845C173.968 197.168 182.342 219.452 185.184 249.869L187.176 249.683C184.312 219.038 175.85 196.24 161.649 181.459L160.207 182.845ZM185.919 248.811L144.831 259.939L145.353 261.869L186.441 250.741L185.919 248.811ZM146.09 260.834C144.658 240.502 140.643 224.771 133.964 213.734L132.253 214.77C138.698 225.419 142.673 240.789 144.094 260.974L146.09 260.834ZM133.979 213.761C127.471 202.224 115.655 196.56 98.868 196.56V198.56C115.18 198.56 126.19 204.024 132.237 214.743L133.979 213.761ZM98.868 196.56C86.4219 196.56 76.7176 199.892 69.9129 206.697L71.3271 208.111C77.6478 201.79 86.7754 198.56 98.868 198.56V196.56ZM69.9288 206.681C63.1029 213.21 59.776 222.932 59.776 235.652H61.776C61.776 223.263 65.0117 214.152 71.3112 208.127L69.9288 206.681ZM59.776 235.652C59.776 246.031 61.5053 254.89 65.0105 262.193L66.8135 261.327C63.4707 254.363 61.776 245.817 61.776 235.652H59.776ZM65.0176 262.207C68.5203 269.213 74.4717 276.304 82.8071 283.489L84.1129 281.975C75.899 274.894 70.1517 268.003 66.8064 261.313L65.0176 262.207ZM82.8011 283.484L141.437 334.844L142.755 333.34L84.1189 281.98L82.8011 283.484ZM141.433 334.84C156.482 348.186 168.392 362.653 177.177 378.239L178.919 377.257C170.013 361.456 157.955 346.819 142.759 333.344L141.433 334.84ZM177.184 378.251C186.217 393.777 190.744 411.433 190.744 431.248H192.744C192.744 411.116 188.141 393.106 178.912 377.245L177.184 378.251ZM190.744 431.248C190.744 456.426 183.114 476.262 167.938 490.876L169.326 492.316C184.966 477.255 192.744 456.859 192.744 431.248H190.744ZM167.938 490.876C152.744 505.507 133.033 512.852 108.712 512.852V514.852C133.468 514.852 153.704 507.36 169.326 492.316L167.938 490.876Z" fill="white"/>
<path d="M63 337C63 325.954 71.9543 317 83 317H103V407C103 412.523 98.5228 417 93 417H73C67.4772 417 63 412.523 63 407V337Z" fill="white"/>
<rect x="185" y="269" width="20" height="80" rx="10" transform="rotate(90 185 269)" fill="white"/>
<rect x="63" y="269" width="40" height="40" rx="20" fill="white"/>
<path d="M125 297C125 285.954 133.954 277 145 277H165V407C165 412.523 160.523 417 155 417H135C129.477 417 125 412.523 125 407V297Z" fill="white"/>
</svg>
