<svg width="629" height="629" viewBox="0 0 629 629" fill="none" xmlns="http://www.w3.org/2000/svg">
<path d="M193.725 25.1093C192.526 29.9212 188.072 39.5451 179.849 39.5451C169.57 39.5451 156.208 52.3934 159.292 53.4213C162.375 54.4492 155.18 62.6721 159.292 62.1582C163.403 61.6443 176.766 45.1984 174.196 51.8795C171.626 58.5607 149.527 84.7713 156.208 78.0902C162.889 71.409 193.211 54.9631 190.128 53.4213C187.044 51.8795 199.379 38.0033 204.004 38.0033C208.63 38.0033 210.685 50.3377 205.546 51.8795C200.407 53.4213 218.394 50.3377 218.394 51.8795C218.394 53.4213 217.366 75.0066 221.478 75.0066C225.589 75.0066 191.156 92.9943 188.072 86.8271C184.989 80.6598 171.626 103.787 179.849 102.245C188.072 100.703 193.725 96.5918 193.725 100.189C193.725 103.787 168.029 113.552 167.001 112.524C166.179 111.701 169.399 107.727 171.112 105.843C166.316 106.528 156.003 109.029 153.125 113.552C149.527 119.205 129.484 132.567 125.372 132.567C121.261 132.567 114.066 154.152 102.245 154.152C90.4246 154.152 79.632 199.893 74.4926 199.379C69.3533 198.865 79.118 181.391 78.6041 175.224C78.0902 169.057 72.4369 176.252 72.4369 172.14C72.4369 168.029 64.2139 173.682 61.1303 172.14C58.6634 170.907 57.7041 167.515 57.5328 165.973C50.3377 174.881 35.8448 194.239 35.4336 200.407C34.9197 208.116 25.6689 229.187 30.8082 228.159C35.9475 227.131 37.4893 228.159 38.5172 226.103C39.5451 224.048 43.1426 213.769 46.2262 213.769C49.3098 213.769 52.3934 212.741 49.3098 220.45C46.2262 228.159 35.9475 244.091 39.5451 245.119C43.1426 246.147 50.3377 246.661 50.3377 253.856C50.3377 261.051 43.6566 273.899 45.1984 278.525C46.7402 283.15 49.8238 290.859 52.3934 289.831C54.9631 288.803 57.0189 285.72 60.6164 288.289C64.2139 290.859 63.7 297.026 66.2697 293.943C68.8393 290.859 68.3254 282.122 72.9508 281.608C77.5762 281.094 81.6877 273.899 85.7992 274.927C89.9107 275.955 80.1459 283.15 83.7434 283.664C87.341 284.178 89.9107 276.983 91.9664 277.497C94.0221 278.011 91.4525 283.15 95.05 283.15C98.6475 283.15 94.5361 288.289 98.1336 288.289C101.731 288.289 116.121 276.469 125.372 288.289C134.623 300.11 136.165 321.181 147.985 321.181C159.806 321.181 175.224 327.862 178.821 334.543C182.419 341.225 183.961 346.878 189.1 349.961C194.239 353.045 189.1 361.782 194.239 364.352C199.379 366.921 204.518 368.977 215.311 375.658C226.103 382.339 225.589 378.742 232.784 379.256C239.98 379.77 244.605 380.284 249.744 386.965C254.884 393.646 260.023 396.73 264.648 394.674C269.274 392.618 273.899 412.148 265.162 420.884C256.425 429.621 245.119 434.761 246.147 442.47C247.175 450.179 250.258 468.166 241.521 477.931C232.784 487.696 224.048 488.724 211.199 493.863C198.351 499.002 209.657 505.17 204.004 512.879C198.351 520.588 190.642 527.269 183.447 530.352C176.252 533.436 184.989 547.312 182.419 548.854C179.849 550.396 169.57 543.715 168.543 546.284C167.515 548.854 173.682 559.647 168.543 560.675C163.403 561.702 164.431 553.48 162.375 555.535C160.32 557.591 150.041 574.551 134.109 546.284C118.177 518.018 102.759 488.21 102.245 460.971C101.731 433.733 73.4648 444.011 68.3254 415.745C63.1861 387.479 40.059 368.977 50.3377 359.726C48.282 351.332 46.1234 334.338 53.9352 333.516C63.7 332.488 56.5049 318.611 58.5607 310.902C60.6164 303.193 60.6164 290.859 55.991 293.943C51.3656 297.026 48.7959 302.166 48.7959 298.054C48.7959 293.943 39.0311 283.15 39.0311 278.525C39.0311 273.899 42.1148 257.967 36.4615 258.481C30.8082 258.995 30.2943 245.119 29.7803 238.952C29.2664 232.784 23.6131 248.716 21.5574 237.41C19.5016 226.103 19.5016 209.657 25.1549 200.407C29.6775 193.006 36.9575 172.311 40.0321 162.889M193.725 25.1093C128.295 52.4478 74.1092 101.329 40.0321 162.889M193.725 25.1093C201.783 21.7425 210.012 18.7024 218.394 16.0056M40.0321 162.889C15.1597 207.821 1 259.507 1 314.5C1 482.125 132.557 619.023 298.054 627.576M218.394 16.0056C248.68 6.26217 280.975 1 314.5 1C325.06 1 335.497 1.52207 345.788 2.5418M218.394 16.0056C216.339 22.8242 212.844 36.9754 215.311 39.0311C218.394 41.6008 216.339 39.0311 219.936 36.4615C223.534 33.8918 227.131 44.1705 229.187 41.0869C231.243 38.0033 230.729 25.6689 233.298 28.2385C235.868 30.8082 239.98 38.0033 241.521 36.4615C243.063 34.9197 230.729 21.0434 244.605 21.0434C258.481 21.0434 268.246 18.9877 261.051 32.35C253.856 45.7123 263.62 56.5049 271.33 52.9074C279.039 49.3098 293.429 26.1828 307.819 26.1828C322.209 26.1828 327.862 47.2541 337.627 45.7123C347.392 44.1705 350.989 39.5451 347.906 35.9475C344.822 32.35 321.695 34.9197 326.32 27.7246C330.946 20.5295 348.934 31.8361 350.989 29.7803C353.045 27.7246 320.544 5.62541 345.788 2.5418M345.788 2.5418C366.512 4.59527 386.643 8.66683 405.98 14.5572M405.98 14.5572C417.63 21.1734 438.05 34.4057 426.538 34.4057C412.148 34.4057 396.216 47.768 404.439 50.8516C412.661 53.9352 433.733 77.0623 426.538 80.6598C419.343 84.2574 424.996 93.5082 419.343 92.9943C413.689 92.4803 399.299 95.5639 405.98 96.5918C412.661 97.6197 434.247 115.093 428.08 118.691C421.912 122.289 401.355 105.329 399.813 115.093C398.271 124.858 404.439 133.081 401.355 133.081C398.271 133.081 404.439 139.248 404.439 144.902C404.439 150.555 415.745 146.443 415.745 150.555C415.745 154.666 422.94 159.806 417.801 162.889C412.661 165.973 405.98 169.57 404.439 188.072C402.897 206.574 393.646 189.614 386.965 211.199C380.284 232.784 369.491 232.27 378.228 248.202C386.965 264.134 369.491 262.079 378.228 285.206C386.965 308.333 414.717 320.667 424.482 334.543C434.247 348.42 433.219 330.946 450.179 330.946C467.139 330.946 481.015 333.516 480.501 319.639C479.987 305.763 488.21 321.695 497.975 322.723C507.739 323.751 495.405 333.002 505.17 333.002C514.934 333.002 520.074 324.265 520.074 336.599C520.074 348.934 514.42 367.949 523.671 376.686C532.922 385.423 531.894 391.59 530.352 411.12C528.811 430.649 516.476 443.498 520.074 469.194C523.671 494.891 512.879 475.361 515.448 503.114C518.018 530.866 497.975 528.297 510.823 528.297C523.671 528.297 546.798 511.337 555.021 493.349C563.244 475.361 584.83 472.278 584.83 458.402C584.83 444.525 608.984 425.51 608.984 404.439C608.984 383.367 618.749 360.754 618.749 336.599C618.749 312.444 624.884 292.401 623.102 258.995M405.98 14.5572C453.687 29.0888 496.569 54.6901 531.634 88.3689M623.102 258.995C626.32 277.011 628 295.559 628 314.5C628 457.32 532.497 577.835 401.869 615.664M623.102 258.995C618.725 234.498 611.503 210.986 601.789 188.815M298.054 627.576C303.5 627.858 308.984 628 314.5 628C344.821 628 374.136 623.696 401.869 615.664M298.054 627.576C301.48 623.949 312.547 616.693 329.404 616.693C350.475 616.693 376.686 608.471 385.423 614.638C392.412 619.571 399.299 617.378 401.869 615.664M590.652 165.973C588.026 164.774 583.904 163.917 588.427 170.084C592.95 176.252 599.22 185.141 601.789 188.815M590.652 165.973C594.662 173.412 598.379 181.031 601.789 188.815M590.652 165.973C584.404 154.38 577.447 143.225 569.839 132.567M569.839 132.567C565.414 132.225 556.563 129.792 556.563 122.802C556.563 114.066 537.548 102.245 537.034 99.1615C536.622 96.6946 533.263 90.9385 531.634 88.3689M569.839 132.567C558.488 116.665 545.689 101.868 531.634 88.3689M58.0467 212.227C59.5885 210 64.0084 206.368 69.3533 209.657C76.0344 213.769 74.4926 224.048 81.6877 225.075C88.8828 226.103 86.3131 229.187 79.632 229.187C72.9508 229.187 80.6598 226.103 78.6041 226.103C76.5484 226.103 68.8393 216.852 68.3254 213.769C67.8115 210.685 53.9352 218.394 58.0467 212.227ZM89.9107 231.243C90.9385 236.896 89.9107 238.952 85.7992 238.952C81.6877 238.952 91.4525 242.035 98.1336 241.521C104.815 241.007 105.843 241.007 105.843 239.466C105.843 237.924 89.5647 227.131 89.9107 231.243ZM109.954 242.035C115.093 241.521 118.177 242.549 115.607 245.119C113.038 247.689 105.329 242.549 109.954 242.035ZM72.9508 235.868C74.9261 236.224 76.5484 241.007 72.9508 241.007C69.3533 241.007 69.3533 237.924 70.3811 236.896C71.2034 236.074 71.8871 235.677 72.9508 235.868ZM573.523 184.475C582.26 177.28 588.941 205.546 593.052 211.199C597.164 216.852 607.443 227.645 609.498 238.952C611.554 250.258 615.666 258.995 612.582 256.425C609.498 253.856 604.359 239.466 599.734 234.326C595.108 229.187 595.622 220.45 590.997 214.797C586.371 209.143 582.774 199.893 578.148 193.725C573.523 187.558 570.439 188.072 573.523 184.475ZM524.699 132.567C535.492 145.93 539.089 145.93 542.687 143.36C546.284 140.79 553.48 151.069 553.993 141.818C554.507 132.567 556.049 156.208 559.133 156.208C562.216 156.208 558.105 173.682 552.452 171.626C546.798 169.57 534.978 159.806 529.839 162.375C524.699 164.945 532.922 165.459 529.839 173.682C526.755 181.905 517.504 181.905 514.934 173.682C512.365 165.459 503.628 169.57 497.975 165.973C492.321 162.375 491.293 167.001 490.266 156.208C489.238 145.416 487.696 146.443 480.501 146.443C473.306 146.443 457.374 144.388 450.179 149.013C442.984 153.639 434.761 157.236 429.621 156.208C424.482 155.18 429.107 151.069 437.844 146.443C446.581 141.818 464.055 131.025 450.179 134.109C436.302 137.193 436.816 124.858 443.498 124.344C450.179 123.83 469.708 123.316 469.708 132.567C469.708 141.818 468.166 126.914 476.389 127.942C484.612 128.97 484.098 143.36 490.266 143.36C496.433 143.36 504.656 140.79 495.919 132.567C487.182 124.344 454.29 112.01 457.374 107.898C460.457 103.787 479.473 111.496 491.293 119.719C503.114 127.942 502.6 141.818 511.851 141.818C521.102 141.818 503.114 126.4 511.337 125.372C519.56 124.344 530.352 125.372 524.699 121.261C519.046 117.149 506.711 99.1615 511.851 99.1615C516.99 99.1615 524.699 109.954 524.699 105.843C524.699 101.731 513.907 95.5639 518.532 92.9943C523.157 90.4246 549.368 117.663 544.743 118.691C540.117 119.719 529.839 113.038 529.839 118.691C529.839 124.344 528.811 135.137 524.699 132.567ZM421.912 55.991C433.733 68.3254 441.956 65.2418 450.179 66.7836C458.402 68.3254 459.943 53.9352 450.179 50.8516C440.414 47.768 442.901 61.6443 433.733 60.1025C426.398 58.869 422.796 56.8475 421.912 55.991ZM383.367 66.7836C376.275 66.5573 372.061 84.7713 380.798 84.7713C389.534 84.7713 396.73 82.2016 392.104 74.4926C388.404 68.3254 387.915 66.9287 383.367 66.7836ZM387.993 53.4213C384.909 56.8475 379.667 63.7 383.367 63.7C387.993 63.7 392.104 62.6721 392.104 66.7836C392.104 70.8951 392.104 74.4926 396.73 74.4926C401.355 74.4926 401.355 78.0902 401.355 82.7156C401.355 87.341 408.55 86.3131 411.634 86.3131C414.717 86.3131 421.398 77.5762 413.689 76.0344C405.98 74.4926 408.036 66.7836 401.355 66.7836C394.674 66.7836 395.188 59.0746 393.132 59.0746C391.487 59.0746 389.02 55.3057 387.993 53.4213ZM197.323 96.0779C205.546 90.9385 216.852 80.1459 223.02 80.6598C229.187 81.1738 213.769 89.3967 218.394 97.6197C223.02 105.843 213.769 97.6197 207.088 97.6197C200.407 97.6197 192.184 99.6316 197.323 96.0779Z" stroke="#C4C4C4"/>
<circle cx="87.0471" cy="326.535" r="3.71209" stroke="#FF6F43"/>
<circle cx="83.4367" cy="297.652" r="3.71209" stroke="#FF6F43"/>
<circle cx="204.986" cy="442.066" r="3.71209" stroke="#FF6F43"/>
<circle cx="161.661" cy="492.611" r="3.71209" stroke="#FF6F43"/>
<circle cx="119.54" cy="108.709" r="3.71209" stroke="#FF6F43"/>
<circle cx="156.848" cy="91.8609" r="3.71209" stroke="#FF6F43"/>
<circle cx="172.492" cy="96.6746" r="3.71209" stroke="#FF6F43"/>
<circle cx="137.592" cy="119.54" r="3.71209" stroke="#FF6F43"/>
<circle cx="119.54" cy="127.965" r="3.71209" stroke="#FF6F43"/>
<circle cx="50.9435" cy="162.865" r="3.71209" stroke="#FF6F43"/>
<circle cx="66.5881" cy="136.389" r="3.71209" stroke="#FF6F43"/>
<circle cx="101.488" cy="96.6746" r="3.71209" stroke="#FF6F43"/>
<circle cx="272.379" cy="11.2294" r="3.71209" stroke="#FF6F43"/>
<circle cx="427.625" cy="217.02" r="3.71209" stroke="#FF6F43"/>
<circle cx="398.741" cy="236.275" r="3.71209" stroke="#FF6F43"/>
<circle cx="256.735" cy="236.275" r="3.71209" stroke="#FF6F43"/>
<circle cx="436.049" cy="95.4712" r="3.71209" stroke="#FF6F43"/>
<circle cx="588.888" cy="310.89" r="3.71209" stroke="#FF6F43"/>
<circle cx="556.395" cy="393.928" r="3.71209" stroke="#FF6F43"/>
<circle cx="547.97" cy="484.187" r="3.71209" stroke="#FF6F43"/>
<circle cx="570.836" cy="159.254" r="3.71209" stroke="#FF6F43"/>
</svg>
