<svg width="1261" height="273" viewBox="0 0 1261 273" fill="none" xmlns="http://www.w3.org/2000/svg">
<path d="M1111 52H204V272H1111V52Z" stroke="#FB6233" stroke-width="0.5"/>
<path d="M298.729 118.356L275.82 107.535L252.141 117.078M275.05 156.035L298.729 146.492V118.356L275.05 156.035ZM275.05 156.035V127.898V156.035ZM275.05 156.035L252.141 145.214V117.078L275.05 156.035ZM275.05 127.898L298.729 118.356L275.05 127.898ZM275.05 127.898L252.141 117.078L275.05 127.898Z" stroke="white"/>
<path d="M355.196 104.664L343.742 99.2539L320.062 108.796M331.517 164.432L355.196 154.89V104.664L331.517 164.432ZM331.517 164.432V114.207V164.432ZM331.517 164.432L320.062 159.022V108.796L331.517 164.432ZM331.517 114.207L355.196 104.664L331.517 114.207ZM331.517 114.207L320.062 108.796L331.517 114.207Z" stroke="white"/>
<path d="M352.093 186.539L299.413 161.656L244.961 183.6M297.641 219.728V208.482V219.728ZM297.641 219.728L244.961 194.845V183.6L297.641 219.728ZM297.641 219.728L352.093 197.784V186.539L297.641 219.728ZM297.641 208.482L352.093 186.539L297.641 208.482ZM297.641 208.482L244.961 183.6L297.641 208.482Z" stroke="white"/>
<path d="M357.198 200.242L302.746 222.186" stroke="#FB6233" stroke-width="0.5"/>
<path d="M359.625 153.03V102.777" stroke="#FB6233" stroke-width="0.5"/>
<path d="M247.523 143.089V114.926" stroke="#FB6233" stroke-width="0.5"/>
<path d="M343.74 99.2526L340.781 100.445M355.195 154.888L331.515 164.431L355.195 154.888ZM355.195 154.888V104.663V154.888ZM355.195 154.888V157.715V154.888ZM355.195 154.888L358.058 156.241L355.195 154.888ZM355.195 154.888L358.155 153.695L361.115 152.503L355.195 154.888ZM355.195 154.888V152.062V154.888ZM355.195 154.888L352.235 156.081L355.195 154.888ZM331.515 164.431V114.205V164.431ZM331.515 164.431L320.061 159.02L331.515 164.431ZM331.515 164.431V167.258V164.431ZM331.515 164.431L334.379 165.783L331.515 164.431ZM331.515 164.431L334.475 163.238L331.515 164.431ZM331.515 164.431L331.516 161.604L331.515 164.431ZM331.515 164.431L328.652 163.078L331.515 164.431ZM331.515 164.431L328.556 165.624L331.515 164.431ZM331.515 114.205L355.195 104.663L331.515 114.205ZM331.515 114.205L320.061 108.795L331.515 114.205ZM331.515 114.205V117.032V114.205ZM331.515 114.205L334.379 115.558L331.515 114.205ZM331.515 114.205L334.475 113.013L331.515 114.205ZM331.515 114.205L331.516 111.379L331.515 114.205ZM331.515 114.205L328.652 112.853L331.515 114.205ZM331.515 114.205L328.556 115.398L331.515 114.205ZM355.195 104.663L343.74 99.2526L355.195 104.663ZM355.195 104.663V107.49V104.663ZM355.195 104.663L358.058 106.015L355.195 104.663ZM355.195 104.663L358.155 103.47L361.115 102.277L355.195 104.663ZM355.195 104.663V101.836V104.663ZM355.195 104.663L352.332 103.31L355.195 104.663ZM355.195 104.663L352.235 105.856L355.195 104.663ZM320.061 159.02V108.795V159.02ZM320.061 159.02V161.847V159.02ZM320.061 159.02L322.925 160.373L320.061 159.02ZM320.061 159.02V156.194V159.02ZM320.061 159.02L317.198 157.668L320.061 159.02ZM320.061 159.02L317.102 160.213L320.061 159.02ZM320.061 108.795L343.74 99.2526L320.061 108.795ZM320.061 108.795V105.968V108.795ZM320.061 108.795L317.198 107.442L320.061 108.795ZM320.061 108.795L317.102 109.988L320.061 108.795ZM343.74 99.2526L346.604 100.605L343.74 99.2526ZM343.74 99.2526L346.7 98.0597L343.74 99.2526ZM343.74 99.2526L343.741 96.4258L343.74 99.2526ZM343.74 99.2526L340.877 97.9L343.74 99.2526Z" stroke="white" stroke-width="0.5"/>
<path d="M275.818 107.538L272.954 106.185M298.727 146.495L275.047 156.037L298.727 146.495ZM298.727 146.495V118.358V146.495ZM298.727 146.495V149.322V146.495ZM298.727 146.495L301.59 147.847L298.727 146.495ZM298.727 146.495L301.687 145.302L298.727 146.495ZM275.047 156.037V127.901V156.037ZM275.047 156.037L252.138 145.217L275.047 156.037ZM275.047 156.037L277.911 157.39L275.047 156.037ZM275.047 156.037V158.864V156.037ZM275.047 156.037L272.087 157.23L275.047 156.037ZM275.047 127.901L298.727 118.358L275.047 127.901ZM275.047 127.901L252.138 117.08L275.047 127.901ZM275.047 127.901L272.087 129.094L275.047 127.901ZM275.047 127.901L277.911 129.253L275.047 127.901ZM298.727 118.358L287.272 112.948L281.545 110.243L275.818 107.538L298.727 118.358ZM298.727 118.358L301.59 119.711L298.727 118.358ZM298.727 118.358L301.687 117.165L298.727 118.358ZM298.727 118.358V115.532V118.358ZM252.138 145.217V117.08V145.217ZM252.138 145.217L249.274 143.864L246.41 142.511L252.138 145.217ZM252.138 145.217L249.178 146.409L252.138 145.217ZM252.138 145.217V148.043V145.217ZM252.138 117.08L275.818 107.538L252.138 117.08ZM252.138 117.08V114.253V117.08ZM252.138 117.08L249.274 115.728L246.41 114.375L252.138 117.08ZM252.138 117.08L249.178 118.273L252.138 117.08ZM275.818 107.538L278.777 106.345L275.818 107.538ZM275.818 107.538V104.711V107.538Z" stroke="white" stroke-width="0.5"/>
<path d="M244.96 194.844L242.001 196.037M352.091 197.783V186.537V197.783ZM352.091 197.783L297.639 219.726L352.091 197.783ZM352.091 197.783V200.61V197.783ZM352.091 197.783L354.955 199.135L357.819 200.488L352.091 197.783ZM352.091 197.783L355.051 196.59L352.091 197.783ZM352.091 197.783L352.092 194.956L352.091 197.783ZM352.091 197.783L349.132 198.976L352.091 197.783ZM297.639 219.726V208.481V219.726ZM297.639 219.726L244.959 194.844V183.598L297.639 219.726ZM297.639 219.726V222.553V219.726ZM297.639 219.726L300.503 221.079L303.367 222.431L297.639 219.726ZM297.639 219.726L300.599 218.533L297.639 219.726ZM297.639 219.726L297.64 216.899L297.639 219.726ZM297.639 219.726L294.776 218.374L297.639 219.726ZM297.639 219.726L294.68 220.919L297.639 219.726ZM297.639 208.481L352.091 186.537L297.639 208.481ZM297.639 208.481L244.959 183.598L297.639 208.481ZM297.639 208.481V211.307V208.481ZM297.639 208.481L300.503 209.833L297.639 208.481ZM297.639 208.481L300.599 207.288L297.639 208.481ZM297.639 208.481L297.64 205.654L297.639 208.481ZM297.639 208.481L294.776 207.128L297.639 208.481ZM297.639 208.481L294.68 209.673L297.639 208.481ZM352.091 186.537L299.411 161.655L352.091 186.537ZM352.091 186.537V189.364V186.537ZM352.091 186.537L354.955 187.89L352.091 186.537ZM352.091 186.537L355.051 185.344L352.091 186.537ZM352.091 186.537L352.092 183.71L352.091 186.537ZM352.091 186.537L349.228 185.185L352.091 186.537ZM352.091 186.537L349.132 187.73L352.091 186.537ZM244.959 183.598L299.411 161.655L244.959 183.598ZM244.959 183.598V186.425V183.598ZM244.959 183.598L247.823 184.951L244.959 183.598ZM244.959 183.598L247.919 182.405L244.959 183.598ZM244.959 183.598L244.96 180.771L244.959 183.598ZM244.959 183.598L242.096 182.246L244.959 183.598ZM244.959 183.598L242 184.791L244.959 183.598ZM299.411 161.655L302.275 163.007L299.411 161.655ZM299.411 161.655L302.371 160.462L299.411 161.655ZM299.411 161.655L299.412 158.828L299.411 161.655ZM299.411 161.655L296.548 160.302L299.411 161.655ZM299.411 161.655L296.452 162.848L299.411 161.655ZM244.96 194.844V197.671V194.844ZM244.96 194.844L247.824 196.196L244.96 194.844ZM244.96 194.844L244.961 192.017L244.96 194.844ZM244.96 194.844L242.097 193.491L244.96 194.844Z" stroke="white" stroke-width="0.5"/>
<path d="M1063.76 197.329L1051.31 203.211L1038.85 209.092L1026.4 214.973L1013.95 220.855L1001.5 226.736L989.047 232.618M1023.29 216.444V183.502V216.444ZM1023.29 216.444L1035.74 210.562L1023.29 216.444ZM1023.29 216.444L1010.84 222.325L1023.29 216.444ZM1073.1 159.977V192.918L1060.65 198.8L1073.1 159.977ZM1073.1 159.977L1046.62 149.305L1073.1 159.977ZM1073.1 159.977L1069.98 161.447L1066.87 162.917L1073.1 159.977ZM1046.62 149.305L996.807 172.83L946.999 196.356L1046.62 149.305ZM1046.62 149.305L1003.03 169.889L946.999 196.356L1046.62 149.305ZM1023.29 183.502L1029.52 180.562L1023.29 183.502ZM1023.29 183.502L1017.06 186.443L1023.29 183.502ZM973.482 239.969V207.028V239.969ZM973.482 239.969L960.241 234.633L973.482 239.969ZM973.482 239.969L985.934 234.088L973.482 239.969ZM973.482 207.028L960.241 201.692L973.482 207.028ZM973.482 207.028L979.708 204.087L973.482 207.028ZM946.999 196.356V229.297L960.241 234.633L946.999 196.356ZM946.999 196.356L960.241 201.692L946.999 196.356ZM960.241 201.692V234.633V201.692ZM998.386 195.265V228.206V195.265ZM998.386 195.265L1004.61 192.324L998.386 195.265ZM998.386 195.265L992.16 198.206L998.386 195.265ZM998.386 228.206L1010.84 222.325L998.386 228.206ZM998.386 228.206L985.934 234.088L998.386 228.206ZM1048.19 171.739V204.681V171.739ZM1048.19 171.739L1054.42 168.799L1048.19 171.739ZM1048.19 171.739L1041.97 174.68L1048.19 171.739ZM1048.19 204.681L1060.65 198.8L1048.19 204.681ZM1048.19 204.681L1035.74 210.562L1048.19 204.681ZM1060.65 165.858V198.8V165.858ZM1060.65 165.858L1066.87 162.917L1060.65 165.858ZM1060.65 165.858L1054.42 168.799L1060.65 165.858ZM1035.74 177.621V210.562V177.621ZM1035.74 177.621L1041.97 174.68L1035.74 177.621ZM1035.74 177.621L1029.52 180.562L1035.74 177.621ZM1010.84 189.384V222.325V189.384ZM1010.84 189.384L1017.06 186.443L1010.84 189.384ZM1010.84 189.384L1004.61 192.324L1010.84 189.384ZM985.934 201.146V234.088V201.146ZM985.934 201.146L992.16 198.206L985.934 201.146ZM985.934 201.146L979.708 204.087L985.934 201.146ZM1066.87 162.917V195.859L1054.42 201.74L1066.87 162.917ZM1066.87 162.917L1063.76 164.388L1057.53 167.328L1051.31 170.269L1045.08 173.21L1038.85 176.151L1032.63 179.091L1026.4 182.032L1020.18 184.973L1013.95 187.913L1007.72 190.854L1001.5 193.795L995.273 196.735L989.047 199.676L982.821 202.617L976.595 205.557L1066.87 162.917ZM1054.42 168.799V201.74V168.799ZM1041.97 174.68V207.622V174.68ZM1029.52 180.562V213.503V180.562ZM1017.06 186.443V219.384V186.443ZM1004.61 192.324V225.266V192.324ZM992.16 198.206V231.147L1004.61 225.266L992.16 198.206ZM979.708 204.087V237.029V204.087ZM1029.52 213.503L1041.97 207.622L1029.52 213.503ZM1029.52 213.503L1017.06 219.384L1029.52 213.503ZM1004.61 225.266L1017.06 219.384L1004.61 225.266ZM1054.42 201.74L1041.97 207.622L1054.42 201.74ZM1069.98 194.389L1057.53 200.27L1045.08 206.151L1032.63 212.033L1020.18 217.914L1007.72 223.795L995.273 229.677L982.821 235.558L1069.98 194.389Z" stroke="#FB6233" stroke-width="0.5"/>
<path d="M958.225 222.511V214.276M1073.1 159.977V192.918L1060.65 198.8L1048.19 204.681L1035.74 210.562L1023.29 216.444L1010.84 222.325L998.386 228.206L985.934 234.088L973.482 239.969L1073.1 159.977ZM1073.1 159.977L1046.62 149.305L996.807 172.83L946.999 196.356L1073.1 159.977ZM1073.1 159.977L1060.65 165.858L1048.19 171.739L1035.74 177.621L1023.29 183.502L1010.84 189.384L998.386 195.265L985.934 201.146L973.482 207.028L1073.1 159.977ZM973.482 239.969L960.241 234.633L946.999 229.297V196.356L973.482 239.969ZM973.482 239.969V223.498V215.263V207.028V239.969ZM973.482 207.028L960.241 201.692L946.999 196.356L973.482 207.028ZM962.246 224.132V215.897V224.132Z" stroke="#FB6233"/>
<path d="M1046.61 104.831L1049.49 107.677M1046.61 148.719V104.831V148.719ZM1046.61 104.831L1043.73 107.677L1046.61 104.831Z" stroke="white" stroke-width="0.5"/>
<path d="M1009.13 121.784L1012.04 124.973M1009.13 166.816V121.784V166.816ZM1009.13 121.784L1006.21 124.973L1009.13 121.784Z" stroke="white" stroke-width="0.5"/>
<path d="M972.434 135.961L975.353 139.15M972.434 184.746V135.961V184.746ZM972.434 135.961L969.516 139.15L972.434 135.961Z" stroke="white" stroke-width="0.5"/>
<path d="M971.223 104.244H972.041V103.438H967.748V104.244M975.769 125.024H965.344V117.358L969.44 117.35L975.769 125.024ZM975.769 125.024L975.777 117.35H969.44L975.769 125.024ZM975.769 125.024H983.333V113.727H969.432L969.44 117.35L975.769 125.024ZM967.388 117.358L968.565 104.244L967.388 117.358ZM968.565 104.244H971.223H968.565ZM968.565 104.244H967.748H968.565ZM972.041 113.727L971.223 104.244L972.041 113.727ZM971.223 104.244H967.748H971.223Z" stroke="white" stroke-width="0.5"/>
<path d="M1047.76 78.0766L1040.56 79.6267V82.394L1047.76 78.0766ZM1058.55 76.7485H1055.67H1054.46H1052.79H1058.55ZM1047.76 76.7485H1050.28H1052.79H1047.76ZM1040.56 80.3463H1047.76H1040.56ZM1058.55 83.8331V75.918H1054.46H1047.76V82.394L1058.55 83.8331ZM1058.55 83.8331V88.6212H1051.36H1044.7L1058.55 83.8331ZM1058.55 83.8331H1047.76H1058.55ZM1058.55 82.394H1055.67H1052.79H1058.55ZM1047.76 82.394H1050.28H1051.36H1052.79H1047.76ZM1047.76 82.394V84.1929V88.6212H1044.7L1047.76 82.394ZM1052.79 76.7485V82.394V76.7485ZM1040.56 82.394V88.6212H1044.7L1040.56 82.394ZM1040.56 82.394H1039.12H1040.56ZM1039.12 82.394H1033.73V84.1929H1039.12V82.394ZM1044.7 88.6212H1043.8H1041.64H1044.7Z" stroke="white" stroke-width="0.5"/>
<path d="M411.997 139.128L412.994 138.131L413.991 137.134M451.208 160.062C457.264 160.062 462.174 155.153 462.174 149.097C462.174 143.04 457.264 138.131 451.208 138.131V160.062ZM451.208 160.062C445.152 160.062 440.242 155.153 440.242 149.097C440.242 143.04 445.152 138.131 451.208 138.131V160.062ZM451.208 160.062H412.994H451.208ZM451.208 138.131H411H451.208ZM411 160.062H412.994H411ZM412.994 135.805V160.062V135.805ZM412.994 162.721V160.062V162.721ZM412.994 160.062L411.997 161.059L412.994 160.062ZM412.994 160.062L413.991 159.065L412.994 160.062Z" stroke="white" stroke-width="0.5"/>
<path d="M550.234 174.354L549.237 173.357L548.24 172.36M500.721 192.631H549.237H500.721ZM500.721 173.357H551.23H500.721ZM551.23 192.631H549.237H551.23ZM549.237 171.031V192.631V171.031ZM549.237 195.289V192.631V195.289ZM549.237 192.631L550.234 193.627L549.237 192.631ZM549.237 192.631L548.24 191.634L549.237 192.631Z" stroke="white" stroke-width="0.5"/>
<path d="M502.383 192.629C507.705 192.629 512.02 188.314 512.02 182.992C512.02 177.67 507.705 173.355 502.383 173.355C497.061 173.355 492.746 177.67 492.746 182.992C492.746 188.314 497.061 192.629 502.383 192.629Z" stroke="white"/>
<path d="M484.554 218.954L486.173 221.344L487.433 218.746L484.554 218.954ZM520.102 148.586C520.487 148.781 520.867 148.981 521.243 149.186L521.483 148.747C521.102 148.539 520.717 148.337 520.328 148.14L520.102 148.586ZM523.457 150.49C524.186 150.952 524.895 151.435 525.584 151.937L525.879 151.533C525.181 151.024 524.463 150.536 523.725 150.068L523.457 150.49ZM527.611 153.521C528.271 154.072 528.911 154.644 529.528 155.233L529.873 154.871C529.248 154.274 528.6 153.696 527.931 153.137L527.611 153.521ZM531.329 157.068C531.911 157.702 532.469 158.352 533.005 159.019L533.395 158.706C532.852 158.031 532.286 157.372 531.697 156.73L531.329 157.068ZM534.549 161.075C535.042 161.778 535.511 162.496 535.955 163.228L536.382 162.968C535.932 162.227 535.458 161.5 534.958 160.788L534.549 161.075ZM537.217 165.469C537.614 166.229 537.985 167.002 538.331 167.786L538.788 167.585C538.438 166.791 538.062 166.008 537.661 165.237L537.217 165.469ZM539.291 170.172C539.585 170.977 539.853 171.792 540.094 172.615L540.574 172.474C540.33 171.641 540.059 170.816 539.761 170.001L539.291 170.172ZM540.737 175.105C540.924 175.941 541.084 176.784 541.216 177.632L541.71 177.554C541.576 176.696 541.414 175.843 541.225 174.996L540.737 175.105ZM541.529 180.184C541.606 181.037 541.655 181.893 541.675 182.752L542.175 182.74C542.154 181.87 542.105 181.003 542.027 180.139L541.529 180.184ZM541.652 185.322C541.617 186.177 541.553 187.032 541.46 187.887L541.958 187.941C542.051 187.075 542.116 186.209 542.152 185.343L541.652 185.322ZM541.1 190.433C540.953 191.274 540.777 192.113 540.573 192.949L541.059 193.068C541.265 192.221 541.443 191.371 541.593 190.52L541.1 190.433ZM539.881 195.426C539.624 196.239 539.34 197.049 539.028 197.853L539.494 198.034C539.81 197.22 540.098 196.4 540.358 195.576L539.881 195.426ZM538.019 200.217C537.839 200.605 537.651 200.991 537.457 201.376L537.903 201.602C538.1 201.212 538.29 200.821 538.472 200.428L538.019 200.217ZM537.457 201.376C537.262 201.761 537.062 202.141 536.857 202.517L537.296 202.757C537.504 202.376 537.706 201.991 537.903 201.602L537.457 201.376ZM535.553 204.731C535.091 205.46 534.608 206.169 534.106 206.858L534.51 207.153C535.019 206.455 535.507 205.737 535.975 204.999L535.553 204.731ZM532.522 208.885C531.971 209.545 531.399 210.185 530.81 210.802L531.172 211.147C531.769 210.522 532.347 209.874 532.906 209.205L532.522 208.885ZM528.975 212.603C528.341 213.185 527.691 213.743 527.024 214.279L527.337 214.669C528.012 214.126 528.671 213.56 529.313 212.971L528.975 212.603ZM524.968 215.823C524.265 216.316 523.547 216.785 522.815 217.229L523.075 217.656C523.816 217.206 524.543 216.732 525.255 216.232L524.968 215.823ZM520.575 218.491C519.814 218.888 519.041 219.259 518.257 219.605L518.458 220.062C519.252 219.712 520.035 219.336 520.806 218.935L520.575 218.491ZM515.871 220.565C515.066 220.859 514.251 221.127 513.428 221.368L513.569 221.848C514.402 221.604 515.227 221.333 516.043 221.035L515.871 220.565ZM510.938 222.011C510.102 222.198 509.259 222.358 508.411 222.49L508.489 222.984C509.347 222.85 510.2 222.688 511.047 222.499L510.938 222.011ZM505.859 222.803C505.006 222.88 504.15 222.929 503.291 222.949L503.303 223.449C504.173 223.428 505.04 223.379 505.904 223.301L505.859 222.803ZM500.721 222.926C499.866 222.891 499.011 222.827 498.156 222.734L498.102 223.232C498.968 223.325 499.834 223.39 500.7 223.426L500.721 222.926ZM495.61 222.374C494.769 222.227 493.93 222.051 493.094 221.847L492.975 222.333C493.822 222.539 494.672 222.717 495.524 222.867L495.61 222.374ZM490.617 221.155C489.804 220.898 488.994 220.614 488.19 220.302L488.009 220.768C488.823 221.084 489.643 221.372 490.467 221.632L490.617 221.155Z" fill="#FB6233"/>
<path d="M422.963 129.247L423.097 126.363L425.527 127.921L422.963 129.247ZM425.059 125.804C425.618 125.094 426.201 124.412 426.807 123.757L427.174 124.096C426.577 124.741 426.003 125.414 425.452 126.113L425.059 125.804ZM428.711 121.853C429.373 121.242 430.056 120.659 430.758 120.107L431.068 120.5C430.376 121.044 429.702 121.618 429.05 122.22L428.711 121.853ZM432.939 118.527C433.688 118.028 434.454 117.561 435.236 117.125L435.48 117.561C434.709 117.991 433.954 118.452 433.216 118.943L432.939 118.527ZM437.637 115.907C438.454 115.532 439.284 115.19 440.126 114.881L440.298 115.35C439.469 115.655 438.65 115.992 437.845 116.361L437.637 115.907ZM442.687 114.053C443.551 113.81 444.424 113.601 445.305 113.427L445.402 113.917C444.534 114.089 443.674 114.295 442.822 114.534L442.687 114.053ZM447.964 113.007C448.854 112.902 449.749 112.831 450.647 112.796L450.667 113.296C449.782 113.331 448.9 113.4 448.022 113.504L447.964 113.007ZM453.339 112.796C454.234 112.831 455.129 112.902 456.023 113.008L455.964 113.504C455.083 113.4 454.201 113.33 453.319 113.296L453.339 112.796ZM458.682 113.43C459.558 113.605 460.431 113.815 461.298 114.061L461.161 114.542C460.307 114.3 459.447 114.093 458.584 113.921L458.682 113.43ZM463.857 114.898C464.693 115.208 465.522 115.553 466.341 115.933L466.131 116.386C465.324 116.012 464.507 115.672 463.683 115.367L463.857 114.898ZM468.738 117.159C469.128 117.379 469.515 117.606 469.9 117.842L469.638 118.269C469.259 118.036 468.877 117.811 468.493 117.595L468.738 117.159ZM469.9 117.842C470.265 118.067 470.625 118.297 470.979 118.533L470.702 118.949C470.353 118.717 469.998 118.49 469.638 118.269L469.9 117.842ZM473.058 120.031C473.737 120.56 474.39 121.11 475.02 121.68L474.684 122.05C474.064 121.488 473.419 120.946 472.751 120.426L473.058 120.031ZM476.852 123.471C477.442 124.094 478.006 124.735 478.544 125.395L478.156 125.711C477.627 125.061 477.071 124.429 476.489 123.815L476.852 123.471ZM480.087 127.441C480.576 128.144 481.038 128.863 481.471 129.597L481.041 129.851C480.614 129.128 480.159 128.42 479.676 127.727L480.087 127.441ZM482.69 131.851C483.069 132.618 483.418 133.398 483.738 134.189L483.274 134.376C482.959 133.597 482.615 132.828 482.242 132.072L482.69 131.851ZM484.608 136.599C484.869 137.413 485.099 138.236 485.298 139.066L484.811 139.183C484.615 138.364 484.389 137.553 484.132 136.751L484.608 136.599ZM485.802 141.579C485.938 142.421 486.044 143.269 486.118 144.121L485.62 144.164C485.547 143.325 485.443 142.489 485.308 141.659L485.802 141.579ZM486.244 146.68C486.249 147.107 486.246 147.534 486.235 147.962L485.735 147.949C485.746 147.528 485.749 147.107 485.744 146.686L486.244 146.68Z" fill="#FB6233"/>
<path d="M451.209 156.739C455.43 156.739 458.852 153.317 458.852 149.096C458.852 144.875 455.43 141.453 451.209 141.453C446.988 141.453 443.566 144.875 443.566 149.096C443.566 153.317 446.988 156.739 451.209 156.739Z" stroke="white"/>
<path d="M470.812 187.148V178.84L479.785 174.52L480.411 173.008L477.121 163.609L482.996 157.735L492.394 161.024L493.907 160.398L498.227 151.426H506.534L510.854 160.398L512.367 161.024L521.765 157.735L527.64 163.609L524.35 173.008L524.977 174.52L533.949 178.84V187.148L524.977 191.468L524.35 192.98L527.64 202.379L521.765 208.253L512.367 204.964L510.854 205.59L506.534 214.562H498.227L493.907 205.59L492.394 204.964L482.996 208.253L477.121 202.379L480.411 192.98L479.785 191.468L470.812 187.148Z" stroke="white"/>
<path d="M440.33 131.693L446.594 129.095L449.538 118.859L452.881 118.862L455.876 129.083L462.116 131.739M431.204 144.485L433.802 138.221L428.645 128.901L431.007 126.535L440.353 131.644L446.644 129.114L431.204 144.485ZM471.208 153.714L468.616 159.98L473.772 169.3L471.406 171.662L462.06 166.552L455.771 169.087L471.208 153.714ZM455.822 129.094L462.086 131.691L471.406 126.535L473.772 128.897L468.663 138.243L471.193 144.534L455.822 129.094ZM446.593 169.098L440.327 166.505L431.007 171.662L428.645 169.296L433.754 159.95L431.22 153.661L446.593 169.098ZM468.615 138.216L471.208 144.482L481.444 147.425L481.447 150.769L471.226 153.764L468.566 160.002L468.615 138.216ZM433.802 159.976L431.205 153.712L420.969 150.769L420.972 147.425L431.193 144.43L433.848 138.19L433.802 159.976ZM462.09 166.506L455.825 169.099L452.881 179.335L449.538 179.337L446.542 169.116L440.304 166.457L462.09 166.506Z" stroke="white"/>
<path d="M647.723 166.008H698.846" stroke="#F96133"/>
<path d="M647.723 174.391H698.846" stroke="#F96133" stroke-width="0.5"/>
<path d="M647.723 178.582H698.846" stroke="#F96133" stroke-width="0.5"/>
<path d="M647.723 182.77H698.846" stroke="#F96133" stroke-width="0.5"/>
<path d="M647.723 186.961H698.846" stroke="#F96133" stroke-width="0.5"/>
<path d="M647.723 191.152H698.846" stroke="#F96133" stroke-width="0.5"/>
<path d="M647.723 195.344H698.846" stroke="#F96133" stroke-width="0.5"/>
<path d="M647.723 199.531H698.846" stroke="#F96133" stroke-width="0.5"/>
<path d="M647.723 203.723H698.846" stroke="#F96133" stroke-width="0.5"/>
<path d="M647.723 207.914H698.846" stroke="#F96133" stroke-width="0.5"/>
<path d="M647.723 212.105H691.304" stroke="#F96133" stroke-width="0.5"/>
<path d="M700.106 140.029V142.124M638.087 231.381V140.029V231.381ZM638.087 231.381H708.906H638.087ZM638.087 231.381H635.992H638.087ZM638.087 231.381V229.286V231.381ZM638.087 231.381H640.183H638.087ZM638.087 231.381V233.476V231.381ZM638.087 140.029H700.106H638.087ZM638.087 140.029H635.992H638.087ZM638.087 140.029V137.934V140.029ZM700.106 148.829H708.906H700.106ZM700.106 148.829V140.029V148.829ZM700.106 148.829H698.011H700.106ZM700.106 148.829V146.734V148.829ZM700.106 148.829H702.202H700.106ZM700.106 148.829V150.924V148.829ZM708.906 231.381V148.829V231.381ZM708.906 231.381H706.811H708.906ZM708.906 231.381V229.286V231.381ZM708.906 231.381H711.002H708.906ZM708.906 231.381V233.476V231.381ZM708.906 148.829L700.106 140.029L708.906 148.829ZM708.906 148.829H706.811H708.906ZM708.906 148.829V146.734V148.829ZM708.906 148.829H711.002H708.906ZM708.906 148.829V150.924V148.829ZM700.106 140.029H698.011H700.106ZM700.106 140.029V137.934V140.029ZM700.106 140.029H702.202H700.106Z" stroke="white" stroke-width="0.5"/>
<path d="M695.914 126.619V140.028M625.095 217.971V126.619V217.971ZM625.095 217.971H623H625.095ZM625.095 217.971V215.876V217.971ZM625.095 217.971H627.19H625.095ZM625.095 217.971V220.066V217.971ZM625.095 217.971H638.505H625.095ZM625.095 126.619H687.114H695.914H625.095ZM625.095 126.619H623H625.095ZM625.095 126.619V124.523V126.619ZM695.914 126.619V124.523V126.619ZM695.914 126.619H698.01H695.914Z" stroke="white" stroke-width="0.5"/>
<path d="M704.297 135.419H706.392M633.478 226.772V135.419V226.772ZM633.478 226.772H631.383H633.478ZM633.478 226.772V224.677V226.772ZM633.478 226.772H635.573H633.478ZM633.478 226.772V228.867V226.772ZM633.478 226.772H638.088H633.478ZM633.478 135.419H695.497H704.297H633.478ZM633.478 135.419H631.383H633.478ZM633.478 135.419V133.324V135.419ZM704.297 135.419V134.162V143.8V135.419ZM704.297 135.419V133.324V135.419Z" stroke="white" stroke-width="0.5"/>
<path d="M700.106 131.228H702.201M629.287 222.58V131.228V222.58ZM629.287 222.58H627.191H629.287ZM629.287 222.58V220.485V222.58ZM629.287 222.58H631.382H629.287ZM629.287 222.58V224.676V222.58ZM629.287 222.58H638.506H629.287ZM629.287 131.228H691.306H700.106H629.287ZM629.287 131.228H627.191H629.287ZM629.287 131.228V129.133V131.228ZM700.106 145.057V131.228V145.057ZM700.106 131.228V129.133V131.228Z" stroke="white" stroke-width="0.5"/>
<path d="M638.504 140.027V231.38H709.323V148.827L700.523 140.027H638.504Z" stroke="white"/>
<path d="M793.658 232.789V240.672H825.19V232.789M794.488 239.842L792.828 241.502L794.488 239.842ZM826.02 239.842L824.36 241.502L826.02 239.842Z" stroke="#FB6233" stroke-width="0.5"/>
<path d="M794.864 114.957L797.728 117.789M794.864 171.243V114.957V171.243ZM794.864 114.957L792 117.789L794.864 114.957Z" stroke="#F96133" stroke-width="0.5"/>
<path d="M804.739 105L807.603 107.832M804.739 169.584V105V169.584ZM804.739 105L801.875 107.832L804.739 105Z" stroke="#F96133" stroke-width="0.5"/>
<path d="M814.618 105L817.482 107.832M814.618 169.584V105V169.584ZM814.618 105L811.754 107.832L814.618 105Z" stroke="#F96133" stroke-width="0.5"/>
<path d="M824.493 114.957L827.357 117.789M824.493 171.243V114.957V171.243ZM824.493 114.957L821.629 117.789L824.493 114.957Z" stroke="#F96133" stroke-width="0.5"/>
<path d="M870.829 178.435V185.903C870.829 188.424 863.77 190.467 855.063 190.467C846.356 190.467 839.297 188.424 839.297 185.903V178.435M863.361 182.356V189.637V182.356ZM870.829 178.435C870.829 180.955 863.77 182.999 855.063 182.999C846.356 182.999 839.297 180.955 839.297 178.435H870.829ZM870.829 178.435C870.829 175.914 863.77 173.871 855.063 173.871C846.356 173.871 839.297 175.914 839.297 178.435H870.829Z" stroke="white" stroke-width="0.5"/>
<path d="M870.829 120.564V128.032C870.829 130.552 863.77 132.596 855.063 132.596C846.356 132.596 839.297 130.552 839.297 128.032V120.564M863.361 124.485V131.766V124.485ZM870.829 120.564C870.829 123.084 863.77 125.128 855.063 125.128C846.356 125.128 839.297 123.084 839.297 120.564H870.829ZM870.829 120.564C870.829 118.043 863.77 116 855.063 116C846.356 116 839.297 118.043 839.297 120.564H870.829Z" stroke="white" stroke-width="0.5"/>
<path d="M825.532 179.564V187.032C825.532 189.552 818.473 191.596 809.766 191.596C801.059 191.596 794 189.552 794 187.032V179.564M818.064 183.485V190.766V183.485ZM825.532 179.564C825.532 182.084 818.473 184.128 809.766 184.128C801.059 184.128 794 182.084 794 179.564H825.532ZM825.532 179.564C825.532 177.043 818.473 175 809.766 175C801.059 175 794 177.043 794 179.564H825.532Z" stroke="white" stroke-width="0.5"/>
<path d="M825.532 218.564V226.032C825.532 228.552 818.473 230.596 809.766 230.596C801.059 230.596 794 228.552 794 226.032V218.564M818.064 222.485V229.766V222.485ZM825.532 218.564C825.532 221.084 818.473 223.128 809.766 223.128C801.059 223.128 794 221.084 794 218.564H825.532ZM825.532 218.564C825.532 216.043 818.473 214 809.766 214C801.059 214 794 216.043 794 218.564H825.532Z" stroke="white" stroke-width="0.5"/>
<path d="M870.829 198.564V206.032C870.829 208.552 863.77 210.596 855.063 210.596C846.356 210.596 839.297 208.552 839.297 206.032V198.564M863.361 202.485V209.766V202.485ZM870.829 198.564C870.829 201.084 863.77 203.128 855.063 203.128C846.356 203.128 839.297 201.084 839.297 198.564H870.829ZM870.829 198.564C870.829 196.043 863.77 194 855.063 194C846.356 194 839.297 196.043 839.297 198.564H870.829Z" stroke="white" stroke-width="0.5"/>
<path d="M870.829 218.693V226.161C870.829 228.681 863.77 230.725 855.063 230.725C846.356 230.725 839.297 228.681 839.297 226.161V218.693M863.361 222.614V229.895V222.614ZM870.829 218.693C870.829 221.213 863.77 223.257 855.063 223.257C846.356 223.257 839.297 221.213 839.297 218.693H870.829ZM870.829 218.693C870.829 216.172 863.77 214.129 855.063 214.129C846.356 214.129 839.297 216.172 839.297 218.693H870.829Z" stroke="white" stroke-width="0.5"/>
<path d="M870.829 159.353V166.821C870.829 169.342 863.77 171.385 855.063 171.385C846.356 171.385 839.297 169.342 839.297 166.821V159.353M870.829 159.353C870.829 161.873 863.77 163.917 855.063 163.917C846.356 163.917 839.297 161.873 839.297 159.353H870.829ZM870.829 159.353C870.829 156.832 863.77 154.789 855.063 154.789C846.356 154.789 839.297 156.832 839.297 159.353H870.829Z" stroke="white" stroke-width="0.5"/>
<path d="M870.829 140.267V147.735C870.829 150.256 863.77 152.299 855.063 152.299C846.356 152.299 839.297 150.256 839.297 147.735V140.267M870.829 140.267C870.829 142.787 863.77 144.831 855.063 144.831C846.356 144.831 839.297 142.787 839.297 140.267H870.829ZM870.829 140.267C870.829 137.746 863.77 135.703 855.063 135.703C846.356 135.703 839.297 137.746 839.297 140.267H870.829Z" stroke="white" stroke-width="0.5"/>
<path d="M825.532 199.267V206.735C825.532 209.256 818.473 211.299 809.766 211.299C801.059 211.299 794 209.256 794 206.735V199.267M825.532 199.267C825.532 201.787 818.473 203.831 809.766 203.831C801.059 203.831 794 201.787 794 199.267H825.532ZM825.532 199.267C825.532 196.746 818.473 194.703 809.766 194.703C801.059 194.703 794 196.746 794 199.267H825.532Z" stroke="white" stroke-width="0.5"/>
<path d="M870.829 178.435V185.903C870.829 188.424 863.77 190.467 855.063 190.467C846.356 190.467 839.297 188.424 839.297 185.903V178.435M870.829 178.435C870.829 180.955 863.77 182.999 855.063 182.999C846.356 182.999 839.297 180.955 839.297 178.435H870.829ZM870.829 178.435C870.829 175.914 863.77 173.871 855.063 173.871C846.356 173.871 839.297 175.914 839.297 178.435H870.829Z" stroke="white"/>
<path d="M870.829 120.564V128.032C870.829 130.552 863.77 132.596 855.063 132.596C846.356 132.596 839.297 130.552 839.297 128.032V120.564M870.829 120.564C870.829 123.084 863.77 125.128 855.063 125.128C846.356 125.128 839.297 123.084 839.297 120.564H870.829ZM870.829 120.564C870.829 118.043 863.77 116 855.063 116C846.356 116 839.297 118.043 839.297 120.564H870.829Z" stroke="white"/>
<path d="M825.532 179.564V187.032C825.532 189.552 818.473 191.596 809.766 191.596C801.059 191.596 794 189.552 794 187.032V179.564M825.532 179.564C825.532 182.084 818.473 184.128 809.766 184.128C801.059 184.128 794 182.084 794 179.564H825.532ZM825.532 179.564C825.532 177.043 818.473 175 809.766 175C801.059 175 794 177.043 794 179.564H825.532Z" stroke="white"/>
<path d="M825.532 218.564V226.032C825.532 228.552 818.473 230.596 809.766 230.596C801.059 230.596 794 228.552 794 226.032V218.564M825.532 218.564C825.532 221.084 818.473 223.128 809.766 223.128C801.059 223.128 794 221.084 794 218.564H825.532ZM825.532 218.564C825.532 216.043 818.473 214 809.766 214C801.059 214 794 216.043 794 218.564H825.532Z" stroke="white"/>
<path d="M870.829 198.564V206.032C870.829 208.552 863.77 210.596 855.063 210.596C846.356 210.596 839.297 208.552 839.297 206.032V198.564M870.829 198.564C870.829 201.084 863.77 203.128 855.063 203.128C846.356 203.128 839.297 201.084 839.297 198.564H870.829ZM870.829 198.564C870.829 196.043 863.77 194 855.063 194C846.356 194 839.297 196.043 839.297 198.564H870.829Z" stroke="white"/>
<path d="M870.829 218.693V226.161C870.829 228.681 863.77 230.725 855.063 230.725C846.356 230.725 839.297 228.681 839.297 226.161V218.693M870.829 218.693C870.829 221.213 863.77 223.257 855.063 223.257C846.356 223.257 839.297 221.213 839.297 218.693H870.829ZM870.829 218.693C870.829 216.172 863.77 214.129 855.063 214.129C846.356 214.129 839.297 216.172 839.297 218.693H870.829Z" stroke="white"/>
<path d="M881.204 166.819L882.241 167.857M874.98 158.522H881.204H874.98ZM881.204 158.522L880.167 157.484L881.204 158.522ZM881.204 158.522L882.241 159.559L881.204 158.522ZM881.204 158.522V166.819V158.522ZM874.98 166.819H881.204H874.98ZM881.204 166.819L880.167 165.782L881.204 166.819Z" stroke="#FB6233" stroke-width="0.5"/>
<path d="M157 177.75H204" stroke="#FB6233" stroke-width="0.5"/>
<path d="M1111 177.75H1153" stroke="#FB6233" stroke-width="0.5"/>
<path d="M1000.87 85.4626H1008.07M1008.07 105.97H1018.86V81.7539H1014.77H1008.07V105.97ZM1008.07 105.97H1000.87V84.7431H1008.07V105.97ZM1018.86 82.5844H1014.77H1008.07H1018.86Z" stroke="white" stroke-width="0.5"/>
<path d="M1004.25 87V104" stroke="white" stroke-width="0.5"/>
<path d="M1011.25 87V104" stroke="white" stroke-width="0.5"/>
<path d="M1015.25 87V104" stroke="white" stroke-width="0.5"/>
<path d="M118.766 148.282L92.2833 132.991M118.766 132.992L92.2839 148.281L118.766 132.992ZM105.525 155.927L105.524 125.347L105.525 155.927ZM92.2827 117.701L118.767 163.573L92.2827 117.701Z" stroke="#FB6233" stroke-width="4"/>
<path d="M150.484 195.457L67.3011 156.168C67.0885 156.068 66.8717 155.979 66.6517 155.903C65.9256 155.651 65.1647 155.531 64.4046 155.544C63.613 155.557 62.8223 155.714 62.0725 156.016L1.87631 180.274C1.36911 180.478 1.0955 180.926 1.06208 181.389L150.484 195.457ZM150.415 197.849L115.644 211.861L150.415 197.849ZM1.06208 181.389C1.02589 181.892 1.27131 182.413 1.8067 182.666L84.9897 221.955C86.6352 222.732 88.5304 222.788 90.2183 222.107L115.644 211.861L1.06208 181.389ZM1.06208 181.389V184.551V181.389ZM1.06208 184.551C1.02397 184.022 1.29862 183.474 1.87631 183.241L62.0725 158.983C63.7604 158.303 65.6556 158.358 67.3011 159.135L72.4321 161.559L1.06208 184.551ZM1.06208 184.551C1.09366 184.988 1.34002 185.413 1.8067 185.633L6.60802 187.901L84.9897 224.923C86.6352 225.7 88.5304 225.755 90.2183 225.075L94.4241 223.38L150.415 200.817C150.91 200.617 151.183 200.185 151.226 199.733C151.275 199.221 151.031 198.683 150.484 198.425L72.4321 161.559L1.06208 184.551ZM27.1799 170.077L102.511 205.658L27.1799 170.077ZM115.644 211.861L102.511 205.658L115.644 211.861ZM102.511 205.658L140.051 190.53L136.661 191.896L102.511 205.658ZM38.282 175.321L72.4321 161.559L38.282 175.321ZM67.6517 94.2253V144.497C67.6517 147.023 69.1085 149.322 71.3922 150.401L145.765 185.529C146.632 185.938 147.629 185.306 147.629 184.348V134.076C147.629 131.551 146.172 129.252 143.888 128.173L69.5152 93.0446C68.649 92.6355 67.6517 93.2674 67.6517 94.2253Z" stroke="white" stroke-width="0.5"/>
<path d="M67.193 84.1591C67.2868 84.1082 67.3867 84.0685 67.4907 84.0415L67.193 84.1591ZM67.193 84.1591L64.7164 85.1249L67.193 84.1591ZM67.193 84.1591L67.4907 84.0415L67.193 84.1591ZM67.4907 84.0415C67.7704 83.9689 68.079 83.988 68.3725 84.1267L151.233 123.264C153.517 124.342 154.974 126.642 154.974 129.167V195.439C154.974 196.045 154.574 196.521 154.06 196.685L67.4907 84.0415ZM154.06 196.685L151.226 197.849C151.489 197.724 151.935 197.367 152.067 197.098C152.151 196.927 152.199 196.732 152.199 196.522V130.251C152.199 127.725 150.742 125.426 148.459 124.347L65.5979 85.2101C65.5659 85.195 65.5338 85.1813 65.5015 85.169C64.6595 84.848 63.7345 85.4682 63.7345 86.3907V152.662C63.7345 153.681 63.9717 154.663 64.4046 155.543L154.06 196.685ZM154.06 196.685L154.226 196.619L154.06 196.685ZM1.06208 181.389C1.0955 180.926 1.36911 180.478 1.87631 180.274L62.0725 156.016C62.8223 155.714 63.613 155.557 64.4046 155.543L1.06208 181.389ZM1.06208 181.389C1.02589 181.892 1.27131 182.413 1.8067 182.666L84.9898 221.955C86.6353 222.732 88.5305 222.788 90.2184 222.107L98.6684 218.702L115.644 211.861L150.415 197.849C150.91 197.649 151.183 197.218 151.226 196.766L1.06208 181.389ZM1.06208 181.389V184.55C1.09366 184.988 1.34002 185.413 1.8067 185.633L84.9898 224.923C86.6353 225.7 88.5305 225.755 90.2184 225.075L150.415 200.817C150.91 200.617 151.183 200.185 151.226 199.733V196.766L1.06208 181.389ZM151.226 196.766C151.275 196.254 151.031 195.716 150.484 195.457L140.051 190.53L75.5 160L67.3011 156.168C66.3866 155.736 65.3949 155.527 64.4046 155.543L151.226 196.766ZM48.1872 183.881L30.7206 190.92C29.8695 191.263 29.8348 192.455 30.6645 192.847L59.918 206.664C61.2437 207.291 62.7706 207.335 64.1305 206.787L81.5971 199.748C82.4482 199.405 82.4829 198.213 81.6532 197.821L52.3998 184.004C51.074 183.378 49.5471 183.333 48.1872 183.881Z" stroke="white"/>
<path d="M1206.61 229.845C1236.22 229.845 1260.22 205.841 1260.22 176.231C1260.22 146.621 1236.22 122.617 1206.61 122.617C1177 122.617 1153 146.621 1153 176.231C1153 205.841 1177 229.845 1206.61 229.845Z" stroke="white"/>
<path d="M1180.18 129.576C1163.95 138.792 1153 156.233 1153 176.231C1153 199.015 1167.21 218.479 1187.25 226.243L1180.18 129.576ZM1180.18 129.576C1187.98 125.147 1197 122.617 1206.61 122.617C1208.63 122.617 1210.62 122.728 1212.57 122.944L1180.18 129.576ZM1180.18 129.576C1179.68 131.476 1178.24 135.648 1176.46 137.138C1174.22 138.999 1172.73 149.052 1174.97 150.169C1177.2 151.286 1177.2 151.658 1180.18 155.754C1183.16 159.849 1185.76 157.615 1188.37 158.36C1190.98 159.105 1189.12 162.455 1193.21 162.455C1197.31 162.455 1194.7 167.668 1200.66 167.668C1206.61 167.668 1206.24 171.391 1204.38 172.136C1202.52 172.88 1200.66 178.093 1200.66 180.327C1200.66 182.561 1206.24 195.22 1210.71 196.337C1215.18 197.453 1210.55 202.948 1209.96 207.134C1209.18 212.757 1203.26 219.048 1206.61 221.282C1209.29 223.069 1211.7 222.771 1212.57 222.399C1211.83 221.282 1210.78 219.122 1212.57 219.42C1214.81 219.793 1214.43 214.953 1215.92 214.953C1217.41 214.953 1223 210.857 1224.86 208.995C1226.72 207.134 1236.4 201.921 1236.4 198.198C1236.4 194.475 1241.61 196.337 1241.61 190.007C1241.61 183.678 1248.31 189.262 1246.82 183.305C1245.34 177.348 1233.42 178.093 1233.79 175.114C1234.17 172.136 1231.56 168.04 1227.09 168.413C1222.62 168.785 1221.88 164.317 1215.92 163.945C1209.96 163.572 1208.48 163.945 1205.12 165.062C1201.77 166.179 1193.58 162.828 1196.56 160.594C1199.54 158.36 1190.23 161.338 1192.84 158.732C1195.44 156.126 1196.93 151.286 1194.7 152.403C1192.47 153.52 1189.12 158.732 1187.25 155.754C1185.39 152.775 1183.53 149.052 1188 146.818C1192.47 144.584 1198.8 143.467 1199.54 145.701C1200.28 147.935 1201.4 149.797 1202.52 149.424C1203.64 149.052 1199.91 144.212 1201.4 143.839C1204.75 141.978 1212.2 141.605 1212.57 137.138C1212.94 132.67 1217.04 136.393 1218.53 134.159C1220.02 131.925 1223 136.765 1222.25 131.925C1221.51 127.085 1215.18 128.202 1215.18 125.968C1215.18 124.181 1213.44 123.208 1212.57 122.944L1180.18 129.576ZM1212.57 122.944C1227.56 124.601 1240.68 132.433 1249.34 143.839L1212.57 122.944ZM1249.34 143.839C1249.49 147.19 1250.25 154.264 1252.04 155.754C1254.27 157.615 1258.74 162.455 1255.39 165.062C1252.04 167.668 1249.8 169.529 1252.78 169.529C1255.76 169.529 1256.5 172.136 1256.5 172.88C1256.5 173.476 1258.89 172.762 1260.09 172.33L1249.34 143.839ZM1249.34 143.839C1255.44 151.868 1259.32 161.667 1260.09 172.33L1249.34 143.839ZM1260.09 172.33C1260.18 173.618 1260.23 174.919 1260.23 176.231C1260.23 204.083 1238.99 226.974 1211.83 229.595L1260.09 172.33ZM1187.25 226.243C1193.26 228.569 1199.79 229.845 1206.61 229.845C1208.37 229.845 1210.11 229.761 1211.83 229.595L1187.25 226.243ZM1187.25 226.243C1193.21 226.036 1206.47 226.416 1211.83 229.595L1187.25 226.243ZM1198.8 152.03C1201.4 151.658 1202.15 151.286 1205.12 152.775C1208.1 154.264 1208.48 155.009 1205.5 155.009C1202.52 155.009 1195.44 152.328 1198.8 152.03ZM1209.59 155.009C1209.59 154.264 1213.32 153.52 1213.69 154.264C1214.06 155.009 1209.59 155.754 1209.59 155.009ZM1218.53 161.711C1217.04 160.594 1217.41 159.477 1218.53 159.477C1219.65 159.477 1220.02 162.828 1218.53 161.711ZM1226.35 130.808C1228.58 132.298 1237.52 132.298 1232.68 130.808C1228.8 129.617 1226.84 130.312 1226.35 130.808ZM1177.95 172.136C1179.06 172.136 1179.14 173.923 1177.95 173.625C1177.95 173.625 1176.83 172.136 1177.95 172.136ZM1160.45 155.009C1158.58 155.009 1157.54 168.115 1159.33 163.945C1161.56 158.732 1164.54 161.338 1164.17 159.477C1163.87 157.988 1162.31 155.009 1160.45 155.009Z" stroke="white" stroke-width="0.5"/>
<path d="M1189.24 173.254C1189.24 173.938 1188.68 174.493 1188 174.493C1187.31 174.493 1186.76 173.938 1186.76 173.254C1186.76 172.569 1187.31 172.014 1188 172.014C1188.68 172.014 1189.24 172.569 1189.24 173.254ZM1222 187.402C1222 188.086 1221.45 188.641 1220.76 188.641C1220.08 188.641 1219.52 188.086 1219.52 187.402C1219.52 186.717 1220.08 186.162 1220.76 186.162C1221.45 186.162 1222 186.717 1222 187.402ZM1201.15 139.745C1201.15 140.429 1200.6 140.984 1199.91 140.984C1199.23 140.984 1198.67 140.429 1198.67 139.745C1198.67 139.06 1199.23 138.506 1199.91 138.506C1200.6 138.506 1201.15 139.06 1201.15 139.745ZM1184.77 143.468C1184.77 144.152 1184.21 144.707 1183.53 144.707C1182.84 144.707 1182.29 144.152 1182.29 143.468C1182.29 142.784 1182.84 142.229 1183.53 142.229C1184.21 142.229 1184.77 142.784 1184.77 143.468ZM1192.21 128.575C1192.21 129.26 1191.66 129.814 1190.98 129.814C1190.29 129.814 1189.74 129.26 1189.74 128.575C1189.74 127.891 1190.29 127.336 1190.98 127.336C1191.66 127.336 1192.21 127.891 1192.21 128.575ZM1258.49 168.786C1258.49 169.47 1257.93 170.025 1257.25 170.025C1256.56 170.025 1256.01 169.47 1256.01 168.786C1256.01 168.101 1256.56 167.546 1257.25 167.546C1257.93 167.546 1258.49 168.101 1258.49 168.786ZM1224.98 221.655C1224.98 222.34 1224.42 222.894 1223.74 222.894C1223.05 222.894 1222.5 222.34 1222.5 221.655C1222.5 220.971 1223.05 220.416 1223.74 220.416C1224.42 220.416 1224.98 220.971 1224.98 221.655ZM1181.79 207.507C1181.79 208.191 1181.23 208.746 1180.55 208.746C1179.87 208.746 1179.31 208.191 1179.31 207.507C1179.31 206.823 1179.87 206.268 1180.55 206.268C1181.23 206.268 1181.79 206.823 1181.79 207.507ZM1162.73 158.501C1162.73 159.185 1162.17 159.74 1161.49 159.74C1160.8 159.74 1160.25 159.185 1160.25 158.501C1160.25 157.817 1160.8 157.262 1161.49 157.262C1162.17 157.262 1162.73 157.817 1162.73 158.501Z" stroke="#FB6233" stroke-width="0.5"/>
<path d="M83.375 11.6797H80.4922L80.4766 10.4688H83.0938C83.526 10.4688 83.9036 10.3958 84.2266 10.25C84.5495 10.1042 84.7995 9.89583 84.9766 9.625C85.1589 9.34896 85.25 9.02083 85.25 8.64062C85.25 8.22396 85.1693 7.88542 85.0078 7.625C84.8516 7.35938 84.6094 7.16667 84.2812 7.04688C83.9583 6.92188 83.5469 6.85938 83.0469 6.85938H80.8281V17H79.3203V5.625H83.0469C83.6302 5.625 84.151 5.6849 84.6094 5.80469C85.0677 5.91927 85.4557 6.10156 85.7734 6.35156C86.0964 6.59635 86.3411 6.90885 86.5078 7.28906C86.6745 7.66927 86.7578 8.125 86.7578 8.65625C86.7578 9.125 86.638 9.54948 86.3984 9.92969C86.1589 10.3047 85.8255 10.612 85.3984 10.8516C84.9766 11.0911 84.4818 11.2448 83.9141 11.3125L83.375 11.6797ZM83.3047 17H79.8984L80.75 15.7734H83.3047C83.7839 15.7734 84.1901 15.6901 84.5234 15.5234C84.862 15.3568 85.1198 15.1224 85.2969 14.8203C85.474 14.513 85.5625 14.151 85.5625 13.7344C85.5625 13.3125 85.487 12.9479 85.3359 12.6406C85.1849 12.3333 84.9479 12.0964 84.625 11.9297C84.3021 11.763 83.8854 11.6797 83.375 11.6797H81.2266L81.2422 10.4688H84.1797L84.5 10.9062C85.0469 10.9531 85.5104 11.1094 85.8906 11.375C86.2708 11.6354 86.5599 11.9688 86.7578 12.375C86.9609 12.7812 87.0625 13.2292 87.0625 13.7188C87.0625 14.4271 86.9062 15.026 86.5938 15.5156C86.2865 16 85.8516 16.3698 85.2891 16.625C84.7266 16.875 84.0651 17 83.3047 17ZM94.0547 15.5547V11.2031C94.0547 10.8698 93.987 10.5807 93.8516 10.3359C93.7214 10.0859 93.5234 9.89323 93.2578 9.75781C92.9922 9.6224 92.6641 9.55469 92.2734 9.55469C91.9089 9.55469 91.5885 9.61719 91.3125 9.74219C91.0417 9.86719 90.8281 10.0312 90.6719 10.2344C90.5208 10.4375 90.4453 10.6562 90.4453 10.8906H89C89 10.5885 89.0781 10.2891 89.2344 9.99219C89.3906 9.69531 89.6146 9.42708 89.9062 9.1875C90.2031 8.94271 90.5573 8.75 90.9688 8.60938C91.3854 8.46354 91.849 8.39062 92.3594 8.39062C92.974 8.39062 93.5156 8.49479 93.9844 8.70312C94.4583 8.91146 94.8281 9.22656 95.0938 9.64844C95.3646 10.0651 95.5 10.5885 95.5 11.2188V15.1562C95.5 15.4375 95.5234 15.737 95.5703 16.0547C95.6224 16.3724 95.6979 16.6458 95.7969 16.875V17H94.2891C94.2161 16.8333 94.1589 16.612 94.1172 16.3359C94.0755 16.0547 94.0547 15.7943 94.0547 15.5547ZM94.3047 11.875L94.3203 12.8906H92.8594C92.4479 12.8906 92.0807 12.9245 91.7578 12.9922C91.4349 13.0547 91.1641 13.151 90.9453 13.2812C90.7266 13.4115 90.5599 13.5755 90.4453 13.7734C90.3307 13.9661 90.2734 14.1927 90.2734 14.4531C90.2734 14.7188 90.3333 14.9609 90.4531 15.1797C90.5729 15.3984 90.7526 15.5729 90.9922 15.7031C91.237 15.8281 91.5365 15.8906 91.8906 15.8906C92.3333 15.8906 92.724 15.7969 93.0625 15.6094C93.401 15.4219 93.6693 15.1927 93.8672 14.9219C94.0703 14.651 94.1797 14.388 94.1953 14.1328L94.8125 14.8281C94.776 15.0469 94.6771 15.2891 94.5156 15.5547C94.3542 15.8203 94.138 16.0755 93.8672 16.3203C93.6016 16.5599 93.2839 16.7604 92.9141 16.9219C92.5495 17.0781 92.138 17.1562 91.6797 17.1562C91.1068 17.1562 90.6042 17.0443 90.1719 16.8203C89.7448 16.5964 89.4115 16.2969 89.1719 15.9219C88.9375 15.5417 88.8203 15.1172 88.8203 14.6484C88.8203 14.1953 88.9089 13.7969 89.0859 13.4531C89.263 13.1042 89.5182 12.8151 89.8516 12.5859C90.1849 12.3516 90.5859 12.1745 91.0547 12.0547C91.5234 11.9349 92.0469 11.875 92.625 11.875H94.3047ZM101.156 15.9688C101.5 15.9688 101.818 15.8984 102.109 15.7578C102.401 15.6172 102.641 15.4245 102.828 15.1797C103.016 14.9297 103.122 14.6458 103.148 14.3281H104.523C104.497 14.8281 104.328 15.2943 104.016 15.7266C103.708 16.1536 103.305 16.5 102.805 16.7656C102.305 17.026 101.755 17.1562 101.156 17.1562C100.521 17.1562 99.9661 17.0443 99.4922 16.8203C99.0234 16.5964 98.6328 16.2891 98.3203 15.8984C98.013 15.5078 97.7812 15.0599 97.625 14.5547C97.474 14.0443 97.3984 13.5052 97.3984 12.9375V12.6094C97.3984 12.0417 97.474 11.5052 97.625 11C97.7812 10.4896 98.013 10.0391 98.3203 9.64844C98.6328 9.25781 99.0234 8.95052 99.4922 8.72656C99.9661 8.5026 100.521 8.39062 101.156 8.39062C101.818 8.39062 102.396 8.52604 102.891 8.79688C103.385 9.0625 103.773 9.42708 104.055 9.89062C104.341 10.349 104.497 10.8698 104.523 11.4531H103.148C103.122 11.1042 103.023 10.7891 102.852 10.5078C102.685 10.2266 102.456 10.0026 102.164 9.83594C101.878 9.66406 101.542 9.57812 101.156 9.57812C100.714 9.57812 100.341 9.66667 100.039 9.84375C99.7422 10.0156 99.5052 10.25 99.3281 10.5469C99.1562 10.8385 99.0312 11.1641 98.9531 11.5234C98.8802 11.8776 98.8438 12.2396 98.8438 12.6094V12.9375C98.8438 13.3073 98.8802 13.6719 98.9531 14.0312C99.026 14.3906 99.1484 14.7161 99.3203 15.0078C99.4974 15.2995 99.7344 15.5339 100.031 15.7109C100.333 15.8828 100.708 15.9688 101.156 15.9688ZM107.602 5V17H106.148V5H107.602ZM112.766 8.54688L109.078 12.4922L107.016 14.6328L106.898 13.0938L108.375 11.3281L111 8.54688H112.766ZM111.445 17L108.43 12.9688L109.18 11.6797L113.148 17H111.445ZM117.609 17.1562C117.021 17.1562 116.487 17.0573 116.008 16.8594C115.534 16.6562 115.125 16.3724 114.781 16.0078C114.443 15.6432 114.182 15.2109 114 14.7109C113.818 14.2109 113.727 13.6641 113.727 13.0703V12.7422C113.727 12.0547 113.828 11.4427 114.031 10.9062C114.234 10.3646 114.51 9.90625 114.859 9.53125C115.208 9.15625 115.604 8.8724 116.047 8.67969C116.49 8.48698 116.948 8.39062 117.422 8.39062C118.026 8.39062 118.547 8.49479 118.984 8.70312C119.427 8.91146 119.789 9.20312 120.07 9.57812C120.352 9.94792 120.56 10.3854 120.695 10.8906C120.831 11.3906 120.898 11.9375 120.898 12.5312V13.1797H114.586V12H119.453V11.8906C119.432 11.5156 119.354 11.151 119.219 10.7969C119.089 10.4427 118.88 10.151 118.594 9.92188C118.307 9.69271 117.917 9.57812 117.422 9.57812C117.094 9.57812 116.792 9.64844 116.516 9.78906C116.24 9.92448 116.003 10.1276 115.805 10.3984C115.607 10.6693 115.453 11 115.344 11.3906C115.234 11.7812 115.18 12.2318 115.18 12.7422V13.0703C115.18 13.4714 115.234 13.849 115.344 14.2031C115.458 14.5521 115.622 14.8594 115.836 15.125C116.055 15.3906 116.318 15.599 116.625 15.75C116.938 15.901 117.292 15.9766 117.688 15.9766C118.198 15.9766 118.63 15.8724 118.984 15.6641C119.339 15.4557 119.648 15.1771 119.914 14.8281L120.789 15.5234C120.607 15.7995 120.375 16.0625 120.094 16.3125C119.812 16.5625 119.466 16.7656 119.055 16.9219C118.648 17.0781 118.167 17.1562 117.609 17.1562ZM124.031 10.3516V17H122.586V8.54688H123.953L124.031 10.3516ZM123.688 12.4531L123.086 12.4297C123.091 11.8516 123.177 11.3177 123.344 10.8281C123.51 10.3333 123.745 9.90365 124.047 9.53906C124.349 9.17448 124.708 8.89323 125.125 8.69531C125.547 8.49219 126.013 8.39062 126.523 8.39062C126.94 8.39062 127.315 8.44792 127.648 8.5625C127.982 8.67188 128.266 8.84896 128.5 9.09375C128.74 9.33854 128.922 9.65625 129.047 10.0469C129.172 10.4323 129.234 10.9036 129.234 11.4609V17H127.781V11.4453C127.781 11.0026 127.716 10.6484 127.586 10.3828C127.456 10.112 127.266 9.91667 127.016 9.79688C126.766 9.67188 126.458 9.60938 126.094 9.60938C125.734 9.60938 125.406 9.6849 125.109 9.83594C124.818 9.98698 124.565 10.1953 124.352 10.4609C124.143 10.7266 123.979 11.0312 123.859 11.375C123.745 11.7135 123.688 12.0729 123.688 12.4531ZM136.758 15.3594V5H138.211V17H136.883L136.758 15.3594ZM131.07 12.8672V12.7031C131.07 12.0573 131.148 11.4714 131.305 10.9453C131.466 10.4141 131.693 9.95833 131.984 9.57812C132.281 9.19792 132.633 8.90625 133.039 8.70312C133.451 8.49479 133.909 8.39062 134.414 8.39062C134.945 8.39062 135.409 8.48438 135.805 8.67188C136.206 8.85417 136.544 9.1224 136.82 9.47656C137.102 9.82552 137.323 10.2474 137.484 10.7422C137.646 11.237 137.758 11.7969 137.82 12.4219V13.1406C137.763 13.7604 137.651 14.3177 137.484 14.8125C137.323 15.3073 137.102 15.7292 136.82 16.0781C136.544 16.4271 136.206 16.6953 135.805 16.8828C135.404 17.0651 134.935 17.1562 134.398 17.1562C133.904 17.1562 133.451 17.0495 133.039 16.8359C132.633 16.6224 132.281 16.3229 131.984 15.9375C131.693 15.5521 131.466 15.099 131.305 14.5781C131.148 14.0521 131.07 13.4818 131.07 12.8672ZM132.523 12.7031V12.8672C132.523 13.2891 132.565 13.6849 132.648 14.0547C132.737 14.4245 132.872 14.75 133.055 15.0312C133.237 15.3125 133.469 15.5339 133.75 15.6953C134.031 15.8516 134.367 15.9297 134.758 15.9297C135.237 15.9297 135.63 15.8281 135.938 15.625C136.25 15.4219 136.5 15.1536 136.688 14.8203C136.875 14.487 137.021 14.125 137.125 13.7344V11.8516C137.062 11.5651 136.971 11.2891 136.852 11.0234C136.737 10.7526 136.586 10.513 136.398 10.3047C136.216 10.0911 135.99 9.92188 135.719 9.79688C135.453 9.67188 135.138 9.60938 134.773 9.60938C134.378 9.60938 134.036 9.69271 133.75 9.85938C133.469 10.0208 133.237 10.2448 133.055 10.5312C132.872 10.8125 132.737 11.1406 132.648 11.5156C132.565 11.8854 132.523 12.2812 132.523 12.7031Z" fill="#B9B9B9"/>
<path d="M290.828 5.625V17H289.32V5.625H290.828ZM295.594 10.7422V11.9766H290.5V10.7422H295.594ZM296.367 5.625V6.85938H290.5V5.625H296.367ZM299.188 9.875V17H297.742V8.54688H299.148L299.188 9.875ZM301.828 8.5L301.82 9.84375C301.701 9.81771 301.586 9.80208 301.477 9.79688C301.372 9.78646 301.253 9.78125 301.117 9.78125C300.784 9.78125 300.49 9.83333 300.234 9.9375C299.979 10.0417 299.763 10.1875 299.586 10.375C299.409 10.5625 299.268 10.7865 299.164 11.0469C299.065 11.3021 299 11.5833 298.969 11.8906L298.562 12.125C298.562 11.6146 298.612 11.1354 298.711 10.6875C298.815 10.2396 298.974 9.84375 299.188 9.5C299.401 9.15104 299.672 8.88021 300 8.6875C300.333 8.48958 300.729 8.39062 301.188 8.39062C301.292 8.39062 301.411 8.40365 301.547 8.42969C301.682 8.45052 301.776 8.47396 301.828 8.5ZM302.625 12.8672V12.6875C302.625 12.0781 302.714 11.513 302.891 10.9922C303.068 10.4661 303.323 10.0104 303.656 9.625C303.99 9.23438 304.393 8.93229 304.867 8.71875C305.341 8.5 305.872 8.39062 306.461 8.39062C307.055 8.39062 307.589 8.5 308.062 8.71875C308.542 8.93229 308.948 9.23438 309.281 9.625C309.62 10.0104 309.878 10.4661 310.055 10.9922C310.232 11.513 310.32 12.0781 310.32 12.6875V12.8672C310.32 13.4766 310.232 14.0417 310.055 14.5625C309.878 15.0833 309.62 15.5391 309.281 15.9297C308.948 16.3151 308.544 16.6172 308.07 16.8359C307.602 17.0495 307.07 17.1562 306.477 17.1562C305.883 17.1562 305.349 17.0495 304.875 16.8359C304.401 16.6172 303.995 16.3151 303.656 15.9297C303.323 15.5391 303.068 15.0833 302.891 14.5625C302.714 14.0417 302.625 13.4766 302.625 12.8672ZM304.07 12.6875V12.8672C304.07 13.2891 304.12 13.6875 304.219 14.0625C304.318 14.4323 304.466 14.7604 304.664 15.0469C304.867 15.3333 305.12 15.5599 305.422 15.7266C305.724 15.888 306.076 15.9688 306.477 15.9688C306.872 15.9688 307.219 15.888 307.516 15.7266C307.818 15.5599 308.068 15.3333 308.266 15.0469C308.464 14.7604 308.612 14.4323 308.711 14.0625C308.815 13.6875 308.867 13.2891 308.867 12.8672V12.6875C308.867 12.2708 308.815 11.8776 308.711 11.5078C308.612 11.1328 308.461 10.8021 308.258 10.5156C308.06 10.224 307.81 9.99479 307.508 9.82812C307.211 9.66146 306.862 9.57812 306.461 9.57812C306.065 9.57812 305.716 9.66146 305.414 9.82812C305.117 9.99479 304.867 10.224 304.664 10.5156C304.466 10.8021 304.318 11.1328 304.219 11.5078C304.12 11.8776 304.07 12.2708 304.07 12.6875ZM313.578 10.3516V17H312.133V8.54688H313.5L313.578 10.3516ZM313.234 12.4531L312.633 12.4297C312.638 11.8516 312.724 11.3177 312.891 10.8281C313.057 10.3333 313.292 9.90365 313.594 9.53906C313.896 9.17448 314.255 8.89323 314.672 8.69531C315.094 8.49219 315.56 8.39062 316.07 8.39062C316.487 8.39062 316.862 8.44792 317.195 8.5625C317.529 8.67188 317.812 8.84896 318.047 9.09375C318.286 9.33854 318.469 9.65625 318.594 10.0469C318.719 10.4323 318.781 10.9036 318.781 11.4609V17H317.328V11.4453C317.328 11.0026 317.263 10.6484 317.133 10.3828C317.003 10.112 316.812 9.91667 316.562 9.79688C316.312 9.67188 316.005 9.60938 315.641 9.60938C315.281 9.60938 314.953 9.6849 314.656 9.83594C314.365 9.98698 314.112 10.1953 313.898 10.4609C313.69 10.7266 313.526 11.0312 313.406 11.375C313.292 11.7135 313.234 12.0729 313.234 12.4531ZM324.516 8.54688V9.65625H319.945V8.54688H324.516ZM321.492 6.49219H322.938V14.9062C322.938 15.1927 322.982 15.4089 323.07 15.5547C323.159 15.7005 323.273 15.7969 323.414 15.8438C323.555 15.8906 323.706 15.9141 323.867 15.9141C323.987 15.9141 324.112 15.9036 324.242 15.8828C324.378 15.8568 324.479 15.8359 324.547 15.8203L324.555 17C324.44 17.0365 324.289 17.0703 324.102 17.1016C323.919 17.138 323.698 17.1562 323.438 17.1562C323.083 17.1562 322.758 17.0859 322.461 16.9453C322.164 16.8047 321.927 16.5703 321.75 16.2422C321.578 15.9089 321.492 15.4609 321.492 14.8984V6.49219ZM329.719 17.1562C329.13 17.1562 328.596 17.0573 328.117 16.8594C327.643 16.6562 327.234 16.3724 326.891 16.0078C326.552 15.6432 326.292 15.2109 326.109 14.7109C325.927 14.2109 325.836 13.6641 325.836 13.0703V12.7422C325.836 12.0547 325.938 11.4427 326.141 10.9062C326.344 10.3646 326.62 9.90625 326.969 9.53125C327.318 9.15625 327.714 8.8724 328.156 8.67969C328.599 8.48698 329.057 8.39062 329.531 8.39062C330.135 8.39062 330.656 8.49479 331.094 8.70312C331.536 8.91146 331.898 9.20312 332.18 9.57812C332.461 9.94792 332.669 10.3854 332.805 10.8906C332.94 11.3906 333.008 11.9375 333.008 12.5312V13.1797H326.695V12H331.562V11.8906C331.542 11.5156 331.464 11.151 331.328 10.7969C331.198 10.4427 330.99 10.151 330.703 9.92188C330.417 9.69271 330.026 9.57812 329.531 9.57812C329.203 9.57812 328.901 9.64844 328.625 9.78906C328.349 9.92448 328.112 10.1276 327.914 10.3984C327.716 10.6693 327.562 11 327.453 11.3906C327.344 11.7812 327.289 12.2318 327.289 12.7422V13.0703C327.289 13.4714 327.344 13.849 327.453 14.2031C327.568 14.5521 327.732 14.8594 327.945 15.125C328.164 15.3906 328.427 15.599 328.734 15.75C329.047 15.901 329.401 15.9766 329.797 15.9766C330.307 15.9766 330.74 15.8724 331.094 15.6641C331.448 15.4557 331.758 15.1771 332.023 14.8281L332.898 15.5234C332.716 15.7995 332.484 16.0625 332.203 16.3125C331.922 16.5625 331.576 16.7656 331.164 16.9219C330.758 17.0781 330.276 17.1562 329.719 17.1562ZM336.141 10.3516V17H334.695V8.54688H336.062L336.141 10.3516ZM335.797 12.4531L335.195 12.4297C335.201 11.8516 335.286 11.3177 335.453 10.8281C335.62 10.3333 335.854 9.90365 336.156 9.53906C336.458 9.17448 336.818 8.89323 337.234 8.69531C337.656 8.49219 338.122 8.39062 338.633 8.39062C339.049 8.39062 339.424 8.44792 339.758 8.5625C340.091 8.67188 340.375 8.84896 340.609 9.09375C340.849 9.33854 341.031 9.65625 341.156 10.0469C341.281 10.4323 341.344 10.9036 341.344 11.4609V17H339.891V11.4453C339.891 11.0026 339.826 10.6484 339.695 10.3828C339.565 10.112 339.375 9.91667 339.125 9.79688C338.875 9.67188 338.568 9.60938 338.203 9.60938C337.844 9.60938 337.516 9.6849 337.219 9.83594C336.927 9.98698 336.674 10.1953 336.461 10.4609C336.253 10.7266 336.089 11.0312 335.969 11.375C335.854 11.7135 335.797 12.0729 335.797 12.4531ZM348.867 15.3594V5H350.32V17H348.992L348.867 15.3594ZM343.18 12.8672V12.7031C343.18 12.0573 343.258 11.4714 343.414 10.9453C343.576 10.4141 343.802 9.95833 344.094 9.57812C344.391 9.19792 344.742 8.90625 345.148 8.70312C345.56 8.49479 346.018 8.39062 346.523 8.39062C347.055 8.39062 347.518 8.48438 347.914 8.67188C348.315 8.85417 348.654 9.1224 348.93 9.47656C349.211 9.82552 349.432 10.2474 349.594 10.7422C349.755 11.237 349.867 11.7969 349.93 12.4219V13.1406C349.872 13.7604 349.76 14.3177 349.594 14.8125C349.432 15.3073 349.211 15.7292 348.93 16.0781C348.654 16.4271 348.315 16.6953 347.914 16.8828C347.513 17.0651 347.044 17.1562 346.508 17.1562C346.013 17.1562 345.56 17.0495 345.148 16.8359C344.742 16.6224 344.391 16.3229 344.094 15.9375C343.802 15.5521 343.576 15.099 343.414 14.5781C343.258 14.0521 343.18 13.4818 343.18 12.8672ZM344.633 12.7031V12.8672C344.633 13.2891 344.674 13.6849 344.758 14.0547C344.846 14.4245 344.982 14.75 345.164 15.0312C345.346 15.3125 345.578 15.5339 345.859 15.6953C346.141 15.8516 346.477 15.9297 346.867 15.9297C347.346 15.9297 347.74 15.8281 348.047 15.625C348.359 15.4219 348.609 15.1536 348.797 14.8203C348.984 14.487 349.13 14.125 349.234 13.7344V11.8516C349.172 11.5651 349.081 11.2891 348.961 11.0234C348.846 10.7526 348.695 10.513 348.508 10.3047C348.326 10.0911 348.099 9.92188 347.828 9.79688C347.562 9.67188 347.247 9.60938 346.883 9.60938C346.487 9.60938 346.146 9.69271 345.859 9.85938C345.578 10.0208 345.346 10.2448 345.164 10.5312C344.982 10.8125 344.846 11.1406 344.758 11.5156C344.674 11.8854 344.633 12.2812 344.633 12.7031Z" fill="#B9B9B9"/>
<path d="M470.398 17H468.023L468.039 15.7734H470.398C471.211 15.7734 471.888 15.6042 472.43 15.2656C472.971 14.9219 473.378 14.4427 473.648 13.8281C473.924 13.2083 474.062 12.4844 474.062 11.6562V10.9609C474.062 10.3099 473.984 9.73177 473.828 9.22656C473.672 8.71615 473.443 8.28646 473.141 7.9375C472.839 7.58333 472.469 7.3151 472.031 7.13281C471.599 6.95052 471.102 6.85938 470.539 6.85938H467.977V5.625H470.539C471.284 5.625 471.964 5.75 472.578 6C473.193 6.24479 473.721 6.60156 474.164 7.07031C474.612 7.53385 474.956 8.09635 475.195 8.75781C475.435 9.41406 475.555 10.1536 475.555 10.9766V11.6562C475.555 12.4792 475.435 13.2214 475.195 13.8828C474.956 14.5391 474.609 15.099 474.156 15.5625C473.708 16.026 473.167 16.3828 472.531 16.6328C471.901 16.8776 471.19 17 470.398 17ZM468.828 5.625V17H467.32V5.625H468.828ZM481.109 17.1562C480.521 17.1562 479.987 17.0573 479.508 16.8594C479.034 16.6562 478.625 16.3724 478.281 16.0078C477.943 15.6432 477.682 15.2109 477.5 14.7109C477.318 14.2109 477.227 13.6641 477.227 13.0703V12.7422C477.227 12.0547 477.328 11.4427 477.531 10.9062C477.734 10.3646 478.01 9.90625 478.359 9.53125C478.708 9.15625 479.104 8.8724 479.547 8.67969C479.99 8.48698 480.448 8.39062 480.922 8.39062C481.526 8.39062 482.047 8.49479 482.484 8.70312C482.927 8.91146 483.289 9.20312 483.57 9.57812C483.852 9.94792 484.06 10.3854 484.195 10.8906C484.331 11.3906 484.398 11.9375 484.398 12.5312V13.1797H478.086V12H482.953V11.8906C482.932 11.5156 482.854 11.151 482.719 10.7969C482.589 10.4427 482.38 10.151 482.094 9.92188C481.807 9.69271 481.417 9.57812 480.922 9.57812C480.594 9.57812 480.292 9.64844 480.016 9.78906C479.74 9.92448 479.503 10.1276 479.305 10.3984C479.107 10.6693 478.953 11 478.844 11.3906C478.734 11.7812 478.68 12.2318 478.68 12.7422V13.0703C478.68 13.4714 478.734 13.849 478.844 14.2031C478.958 14.5521 479.122 14.8594 479.336 15.125C479.555 15.3906 479.818 15.599 480.125 15.75C480.438 15.901 480.792 15.9766 481.188 15.9766C481.698 15.9766 482.13 15.8724 482.484 15.6641C482.839 15.4557 483.148 15.1771 483.414 14.8281L484.289 15.5234C484.107 15.7995 483.875 16.0625 483.594 16.3125C483.312 16.5625 482.966 16.7656 482.555 16.9219C482.148 17.0781 481.667 17.1562 481.109 17.1562ZM488.547 15.6953L490.859 8.54688H492.336L489.297 17H488.328L488.547 15.6953ZM486.617 8.54688L489 15.7344L489.164 17H488.195L485.133 8.54688H486.617ZM502.703 10.9531V11.6719C502.703 12.526 502.596 13.2917 502.383 13.9688C502.169 14.6458 501.862 15.2214 501.461 15.6953C501.06 16.1693 500.578 16.5312 500.016 16.7812C499.458 17.0312 498.833 17.1562 498.141 17.1562C497.469 17.1562 496.852 17.0312 496.289 16.7812C495.732 16.5312 495.247 16.1693 494.836 15.6953C494.43 15.2214 494.115 14.6458 493.891 13.9688C493.667 13.2917 493.555 12.526 493.555 11.6719V10.9531C493.555 10.099 493.664 9.33594 493.883 8.66406C494.107 7.98698 494.422 7.41146 494.828 6.9375C495.234 6.45833 495.716 6.09375 496.273 5.84375C496.836 5.59375 497.453 5.46875 498.125 5.46875C498.818 5.46875 499.443 5.59375 500 5.84375C500.562 6.09375 501.044 6.45833 501.445 6.9375C501.852 7.41146 502.161 7.98698 502.375 8.66406C502.594 9.33594 502.703 10.099 502.703 10.9531ZM501.211 11.6719V10.9375C501.211 10.2604 501.141 9.66146 501 9.14062C500.865 8.61979 500.664 8.18229 500.398 7.82812C500.133 7.47396 499.807 7.20573 499.422 7.02344C499.042 6.84115 498.609 6.75 498.125 6.75C497.656 6.75 497.232 6.84115 496.852 7.02344C496.477 7.20573 496.154 7.47396 495.883 7.82812C495.617 8.18229 495.411 8.61979 495.266 9.14062C495.12 9.66146 495.047 10.2604 495.047 10.9375V11.6719C495.047 12.3542 495.12 12.9583 495.266 13.4844C495.411 14.0052 495.62 14.4453 495.891 14.8047C496.167 15.1589 496.492 15.4271 496.867 15.6094C497.247 15.7917 497.672 15.8828 498.141 15.8828C498.63 15.8828 499.065 15.7917 499.445 15.6094C499.826 15.4271 500.146 15.1589 500.406 14.8047C500.672 14.4453 500.872 14.0052 501.008 13.4844C501.143 12.9583 501.211 12.3542 501.211 11.6719ZM506.188 10.1719V20.25H504.734V8.54688H506.062L506.188 10.1719ZM511.883 12.7031V12.8672C511.883 13.4818 511.81 14.0521 511.664 14.5781C511.518 15.099 511.305 15.5521 511.023 15.9375C510.747 16.3229 510.406 16.6224 510 16.8359C509.594 17.0495 509.128 17.1562 508.602 17.1562C508.065 17.1562 507.591 17.0677 507.18 16.8906C506.768 16.7135 506.419 16.4557 506.133 16.1172C505.846 15.7786 505.617 15.3724 505.445 14.8984C505.279 14.4245 505.164 13.8906 505.102 13.2969V12.4219C505.164 11.7969 505.281 11.237 505.453 10.7422C505.625 10.2474 505.852 9.82552 506.133 9.47656C506.419 9.1224 506.766 8.85417 507.172 8.67188C507.578 8.48438 508.047 8.39062 508.578 8.39062C509.109 8.39062 509.581 8.49479 509.992 8.70312C510.404 8.90625 510.75 9.19792 511.031 9.57812C511.312 9.95833 511.523 10.4141 511.664 10.9453C511.81 11.4714 511.883 12.0573 511.883 12.7031ZM510.43 12.8672V12.7031C510.43 12.2812 510.385 11.8854 510.297 11.5156C510.208 11.1406 510.07 10.8125 509.883 10.5312C509.701 10.2448 509.466 10.0208 509.18 9.85938C508.893 9.69271 508.552 9.60938 508.156 9.60938C507.792 9.60938 507.474 9.67188 507.203 9.79688C506.938 9.92188 506.711 10.0911 506.523 10.3047C506.336 10.513 506.182 10.7526 506.062 11.0234C505.948 11.2891 505.862 11.5651 505.805 11.8516V13.875C505.909 14.2396 506.055 14.5833 506.242 14.9062C506.43 15.224 506.68 15.4818 506.992 15.6797C507.305 15.8724 507.698 15.9688 508.172 15.9688C508.562 15.9688 508.898 15.888 509.18 15.7266C509.466 15.5599 509.701 15.3333 509.883 15.0469C510.07 14.7604 510.208 14.4323 510.297 14.0625C510.385 13.6875 510.43 13.2891 510.43 12.8672ZM518.648 14.7578C518.648 14.5495 518.602 14.3568 518.508 14.1797C518.419 13.9974 518.234 13.8333 517.953 13.6875C517.677 13.5365 517.26 13.4062 516.703 13.2969C516.234 13.1979 515.81 13.0807 515.43 12.9453C515.055 12.8099 514.734 12.6458 514.469 12.4531C514.208 12.2604 514.008 12.0339 513.867 11.7734C513.727 11.513 513.656 11.2083 513.656 10.8594C513.656 10.526 513.729 10.2109 513.875 9.91406C514.026 9.61719 514.237 9.35417 514.508 9.125C514.784 8.89583 515.115 8.71615 515.5 8.58594C515.885 8.45573 516.315 8.39062 516.789 8.39062C517.466 8.39062 518.044 8.51042 518.523 8.75C519.003 8.98958 519.37 9.3099 519.625 9.71094C519.88 10.1068 520.008 10.5469 520.008 11.0312H518.562C518.562 10.7969 518.492 10.5703 518.352 10.3516C518.216 10.1276 518.016 9.94271 517.75 9.79688C517.49 9.65104 517.169 9.57812 516.789 9.57812C516.388 9.57812 516.062 9.64062 515.812 9.76562C515.568 9.88542 515.388 10.0391 515.273 10.2266C515.164 10.4141 515.109 10.612 515.109 10.8203C515.109 10.9766 515.135 11.1172 515.188 11.2422C515.245 11.362 515.344 11.474 515.484 11.5781C515.625 11.6771 515.823 11.7708 516.078 11.8594C516.333 11.9479 516.659 12.0365 517.055 12.125C517.747 12.2812 518.318 12.4688 518.766 12.6875C519.214 12.9062 519.547 13.1745 519.766 13.4922C519.984 13.8099 520.094 14.1953 520.094 14.6484C520.094 15.0182 520.016 15.3568 519.859 15.6641C519.708 15.9714 519.487 16.237 519.195 16.4609C518.909 16.6797 518.565 16.8516 518.164 16.9766C517.768 17.0964 517.323 17.1562 516.828 17.1562C516.083 17.1562 515.453 17.0234 514.938 16.7578C514.422 16.4922 514.031 16.1484 513.766 15.7266C513.5 15.3047 513.367 14.8594 513.367 14.3906H514.82C514.841 14.7865 514.956 15.1016 515.164 15.3359C515.372 15.5651 515.628 15.7292 515.93 15.8281C516.232 15.9219 516.531 15.9688 516.828 15.9688C517.224 15.9688 517.555 15.9167 517.82 15.8125C518.091 15.7083 518.297 15.5651 518.438 15.3828C518.578 15.2005 518.648 14.9922 518.648 14.7578Z" fill="#B9B9B9"/>
<path d="M638.383 14.125C638.383 13.8594 638.341 13.625 638.258 13.4219C638.18 13.2135 638.039 13.026 637.836 12.8594C637.638 12.6927 637.362 12.5339 637.008 12.3828C636.659 12.2318 636.216 12.0781 635.68 11.9219C635.117 11.7552 634.609 11.5703 634.156 11.3672C633.703 11.1589 633.315 10.9219 632.992 10.6562C632.669 10.3906 632.422 10.0859 632.25 9.74219C632.078 9.39844 631.992 9.00521 631.992 8.5625C631.992 8.11979 632.083 7.71094 632.266 7.33594C632.448 6.96094 632.708 6.63542 633.047 6.35938C633.391 6.07812 633.799 5.85938 634.273 5.70312C634.747 5.54688 635.276 5.46875 635.859 5.46875C636.714 5.46875 637.438 5.63281 638.031 5.96094C638.63 6.28385 639.086 6.70833 639.398 7.23438C639.711 7.75521 639.867 8.3125 639.867 8.90625H638.367C638.367 8.47917 638.276 8.10156 638.094 7.77344C637.911 7.4401 637.635 7.17969 637.266 6.99219C636.896 6.79948 636.427 6.70312 635.859 6.70312C635.323 6.70312 634.88 6.78385 634.531 6.94531C634.182 7.10677 633.922 7.32552 633.75 7.60156C633.583 7.8776 633.5 8.19271 633.5 8.54688C633.5 8.78646 633.549 9.00521 633.648 9.20312C633.753 9.39583 633.911 9.57552 634.125 9.74219C634.344 9.90885 634.62 10.0625 634.953 10.2031C635.292 10.3438 635.695 10.4792 636.164 10.6094C636.81 10.7917 637.367 10.9948 637.836 11.2188C638.305 11.4427 638.69 11.6953 638.992 11.9766C639.299 12.2526 639.526 12.5677 639.672 12.9219C639.823 13.2708 639.898 13.6667 639.898 14.1094C639.898 14.5729 639.805 14.9922 639.617 15.3672C639.43 15.7422 639.161 16.0625 638.812 16.3281C638.464 16.5938 638.044 16.7995 637.555 16.9453C637.07 17.0859 636.529 17.1562 635.93 17.1562C635.404 17.1562 634.885 17.0833 634.375 16.9375C633.87 16.7917 633.409 16.5729 632.992 16.2812C632.581 15.9896 632.25 15.6302 632 15.2031C631.755 14.7708 631.633 14.2708 631.633 13.7031H633.133C633.133 14.0938 633.208 14.4297 633.359 14.7109C633.51 14.987 633.716 15.2161 633.977 15.3984C634.242 15.5807 634.542 15.7161 634.875 15.8047C635.214 15.888 635.565 15.9297 635.93 15.9297C636.456 15.9297 636.901 15.8568 637.266 15.7109C637.63 15.5651 637.906 15.3568 638.094 15.0859C638.286 14.8151 638.383 14.4948 638.383 14.125ZM645.109 17.1562C644.521 17.1562 643.987 17.0573 643.508 16.8594C643.034 16.6562 642.625 16.3724 642.281 16.0078C641.943 15.6432 641.682 15.2109 641.5 14.7109C641.318 14.2109 641.227 13.6641 641.227 13.0703V12.7422C641.227 12.0547 641.328 11.4427 641.531 10.9062C641.734 10.3646 642.01 9.90625 642.359 9.53125C642.708 9.15625 643.104 8.8724 643.547 8.67969C643.99 8.48698 644.448 8.39062 644.922 8.39062C645.526 8.39062 646.047 8.49479 646.484 8.70312C646.927 8.91146 647.289 9.20312 647.57 9.57812C647.852 9.94792 648.06 10.3854 648.195 10.8906C648.331 11.3906 648.398 11.9375 648.398 12.5312V13.1797H642.086V12H646.953V11.8906C646.932 11.5156 646.854 11.151 646.719 10.7969C646.589 10.4427 646.38 10.151 646.094 9.92188C645.807 9.69271 645.417 9.57812 644.922 9.57812C644.594 9.57812 644.292 9.64844 644.016 9.78906C643.74 9.92448 643.503 10.1276 643.305 10.3984C643.107 10.6693 642.953 11 642.844 11.3906C642.734 11.7812 642.68 12.2318 642.68 12.7422V13.0703C642.68 13.4714 642.734 13.849 642.844 14.2031C642.958 14.5521 643.122 14.8594 643.336 15.125C643.555 15.3906 643.818 15.599 644.125 15.75C644.438 15.901 644.792 15.9766 645.188 15.9766C645.698 15.9766 646.13 15.8724 646.484 15.6641C646.839 15.4557 647.148 15.1771 647.414 14.8281L648.289 15.5234C648.107 15.7995 647.875 16.0625 647.594 16.3125C647.312 16.5625 646.966 16.7656 646.555 16.9219C646.148 17.0781 645.667 17.1562 645.109 17.1562ZM653.469 15.9688C653.812 15.9688 654.13 15.8984 654.422 15.7578C654.714 15.6172 654.953 15.4245 655.141 15.1797C655.328 14.9297 655.435 14.6458 655.461 14.3281H656.836C656.81 14.8281 656.641 15.2943 656.328 15.7266C656.021 16.1536 655.617 16.5 655.117 16.7656C654.617 17.026 654.068 17.1562 653.469 17.1562C652.833 17.1562 652.279 17.0443 651.805 16.8203C651.336 16.5964 650.945 16.2891 650.633 15.8984C650.326 15.5078 650.094 15.0599 649.938 14.5547C649.786 14.0443 649.711 13.5052 649.711 12.9375V12.6094C649.711 12.0417 649.786 11.5052 649.938 11C650.094 10.4896 650.326 10.0391 650.633 9.64844C650.945 9.25781 651.336 8.95052 651.805 8.72656C652.279 8.5026 652.833 8.39062 653.469 8.39062C654.13 8.39062 654.708 8.52604 655.203 8.79688C655.698 9.0625 656.086 9.42708 656.367 9.89062C656.654 10.349 656.81 10.8698 656.836 11.4531H655.461C655.435 11.1042 655.336 10.7891 655.164 10.5078C654.997 10.2266 654.768 10.0026 654.477 9.83594C654.19 9.66406 653.854 9.57812 653.469 9.57812C653.026 9.57812 652.654 9.66667 652.352 9.84375C652.055 10.0156 651.818 10.25 651.641 10.5469C651.469 10.8385 651.344 11.1641 651.266 11.5234C651.193 11.8776 651.156 12.2396 651.156 12.6094V12.9375C651.156 13.3073 651.193 13.6719 651.266 14.0312C651.339 14.3906 651.461 14.7161 651.633 15.0078C651.81 15.2995 652.047 15.5339 652.344 15.7109C652.646 15.8828 653.021 15.9688 653.469 15.9688ZM663.633 15.0469V8.54688H665.086V17H663.703L663.633 15.0469ZM663.906 13.2656L664.508 13.25C664.508 13.8125 664.448 14.3333 664.328 14.8125C664.214 15.2865 664.026 15.6979 663.766 16.0469C663.505 16.3958 663.164 16.6693 662.742 16.8672C662.32 17.0599 661.807 17.1562 661.203 17.1562C660.792 17.1562 660.414 17.0964 660.07 16.9766C659.732 16.8568 659.44 16.6719 659.195 16.4219C658.951 16.1719 658.76 15.8464 658.625 15.4453C658.495 15.0443 658.43 14.5625 658.43 14V8.54688H659.875V14.0156C659.875 14.3958 659.917 14.7109 660 14.9609C660.089 15.2057 660.206 15.401 660.352 15.5469C660.503 15.6875 660.669 15.7865 660.852 15.8438C661.039 15.901 661.232 15.9297 661.43 15.9297C662.044 15.9297 662.531 15.8125 662.891 15.5781C663.25 15.3385 663.508 15.0182 663.664 14.6172C663.826 14.2109 663.906 13.7604 663.906 13.2656ZM668.734 9.875V17H667.289V8.54688H668.695L668.734 9.875ZM671.375 8.5L671.367 9.84375C671.247 9.81771 671.133 9.80208 671.023 9.79688C670.919 9.78646 670.799 9.78125 670.664 9.78125C670.331 9.78125 670.036 9.83333 669.781 9.9375C669.526 10.0417 669.31 10.1875 669.133 10.375C668.956 10.5625 668.815 10.7865 668.711 11.0469C668.612 11.3021 668.547 11.5833 668.516 11.8906L668.109 12.125C668.109 11.6146 668.159 11.1354 668.258 10.6875C668.362 10.2396 668.521 9.84375 668.734 9.5C668.948 9.15104 669.219 8.88021 669.547 8.6875C669.88 8.48958 670.276 8.39062 670.734 8.39062C670.839 8.39062 670.958 8.40365 671.094 8.42969C671.229 8.45052 671.323 8.47396 671.375 8.5ZM674.281 8.54688V17H672.828V8.54688H674.281ZM672.719 6.30469C672.719 6.07031 672.789 5.8724 672.93 5.71094C673.076 5.54948 673.289 5.46875 673.57 5.46875C673.846 5.46875 674.057 5.54948 674.203 5.71094C674.354 5.8724 674.43 6.07031 674.43 6.30469C674.43 6.52865 674.354 6.72135 674.203 6.88281C674.057 7.03906 673.846 7.11719 673.57 7.11719C673.289 7.11719 673.076 7.03906 672.93 6.88281C672.789 6.72135 672.719 6.52865 672.719 6.30469ZM680.141 8.54688V9.65625H675.57V8.54688H680.141ZM677.117 6.49219H678.562V14.9062C678.562 15.1927 678.607 15.4089 678.695 15.5547C678.784 15.7005 678.898 15.7969 679.039 15.8438C679.18 15.8906 679.331 15.9141 679.492 15.9141C679.612 15.9141 679.737 15.9036 679.867 15.8828C680.003 15.8568 680.104 15.8359 680.172 15.8203L680.18 17C680.065 17.0365 679.914 17.0703 679.727 17.1016C679.544 17.138 679.323 17.1562 679.062 17.1562C678.708 17.1562 678.383 17.0859 678.086 16.9453C677.789 16.8047 677.552 16.5703 677.375 16.2422C677.203 15.9089 677.117 15.4609 677.117 14.8984V6.49219ZM684.211 16.125L686.562 8.54688H688.109L684.719 18.3047C684.641 18.513 684.536 18.737 684.406 18.9766C684.281 19.2214 684.12 19.4531 683.922 19.6719C683.724 19.8906 683.484 20.0677 683.203 20.2031C682.927 20.3438 682.596 20.4141 682.211 20.4141C682.096 20.4141 681.951 20.3984 681.773 20.3672C681.596 20.3359 681.471 20.3099 681.398 20.2891L681.391 19.1172C681.432 19.1224 681.497 19.1276 681.586 19.1328C681.68 19.1432 681.745 19.1484 681.781 19.1484C682.109 19.1484 682.388 19.1042 682.617 19.0156C682.846 18.9323 683.039 18.7891 683.195 18.5859C683.357 18.388 683.495 18.1146 683.609 17.7656L684.211 16.125ZM682.484 8.54688L684.68 15.1094L685.055 16.6328L684.016 17.1641L680.906 8.54688H682.484Z" fill="#B9B9B9"/>
<path d="M791.797 5.625H793.258L796.984 14.8984L800.703 5.625H802.172L797.547 17H796.406L791.797 5.625ZM791.32 5.625H792.609L792.82 12.5625V17H791.32V5.625ZM801.352 5.625H802.641V17H801.141V12.5625L801.352 5.625ZM804.688 12.8672V12.6875C804.688 12.0781 804.776 11.513 804.953 10.9922C805.13 10.4661 805.385 10.0104 805.719 9.625C806.052 9.23438 806.456 8.93229 806.93 8.71875C807.404 8.5 807.935 8.39062 808.523 8.39062C809.117 8.39062 809.651 8.5 810.125 8.71875C810.604 8.93229 811.01 9.23438 811.344 9.625C811.682 10.0104 811.94 10.4661 812.117 10.9922C812.294 11.513 812.383 12.0781 812.383 12.6875V12.8672C812.383 13.4766 812.294 14.0417 812.117 14.5625C811.94 15.0833 811.682 15.5391 811.344 15.9297C811.01 16.3151 810.607 16.6172 810.133 16.8359C809.664 17.0495 809.133 17.1562 808.539 17.1562C807.945 17.1562 807.411 17.0495 806.938 16.8359C806.464 16.6172 806.057 16.3151 805.719 15.9297C805.385 15.5391 805.13 15.0833 804.953 14.5625C804.776 14.0417 804.688 13.4766 804.688 12.8672ZM806.133 12.6875V12.8672C806.133 13.2891 806.182 13.6875 806.281 14.0625C806.38 14.4323 806.529 14.7604 806.727 15.0469C806.93 15.3333 807.182 15.5599 807.484 15.7266C807.786 15.888 808.138 15.9688 808.539 15.9688C808.935 15.9688 809.281 15.888 809.578 15.7266C809.88 15.5599 810.13 15.3333 810.328 15.0469C810.526 14.7604 810.674 14.4323 810.773 14.0625C810.878 13.6875 810.93 13.2891 810.93 12.8672V12.6875C810.93 12.2708 810.878 11.8776 810.773 11.5078C810.674 11.1328 810.523 10.8021 810.32 10.5156C810.122 10.224 809.872 9.99479 809.57 9.82812C809.273 9.66146 808.924 9.57812 808.523 9.57812C808.128 9.57812 807.779 9.66146 807.477 9.82812C807.18 9.99479 806.93 10.224 806.727 10.5156C806.529 10.8021 806.38 11.1328 806.281 11.5078C806.182 11.8776 806.133 12.2708 806.133 12.6875ZM814.188 5H815.641V15.3594L815.516 17H814.188V5ZM821.352 12.7031V12.8672C821.352 13.4818 821.279 14.0521 821.133 14.5781C820.987 15.099 820.773 15.5521 820.492 15.9375C820.211 16.3229 819.867 16.6224 819.461 16.8359C819.055 17.0495 818.589 17.1562 818.062 17.1562C817.526 17.1562 817.055 17.0651 816.648 16.8828C816.247 16.6953 815.909 16.4271 815.633 16.0781C815.357 15.7292 815.135 15.3073 814.969 14.8125C814.807 14.3177 814.695 13.7604 814.633 13.1406V12.4219C814.695 11.7969 814.807 11.237 814.969 10.7422C815.135 10.2474 815.357 9.82552 815.633 9.47656C815.909 9.1224 816.247 8.85417 816.648 8.67188C817.049 8.48438 817.516 8.39062 818.047 8.39062C818.578 8.39062 819.049 8.49479 819.461 8.70312C819.872 8.90625 820.216 9.19792 820.492 9.57812C820.773 9.95833 820.987 10.4141 821.133 10.9453C821.279 11.4714 821.352 12.0573 821.352 12.7031ZM819.898 12.8672V12.7031C819.898 12.2812 819.859 11.8854 819.781 11.5156C819.703 11.1406 819.578 10.8125 819.406 10.5312C819.234 10.2448 819.008 10.0208 818.727 9.85938C818.445 9.69271 818.099 9.60938 817.688 9.60938C817.323 9.60938 817.005 9.67188 816.734 9.79688C816.469 9.92188 816.242 10.0911 816.055 10.3047C815.867 10.513 815.714 10.7526 815.594 11.0234C815.479 11.2891 815.393 11.5651 815.336 11.8516V13.7344C815.419 14.099 815.555 14.4505 815.742 14.7891C815.935 15.1224 816.19 15.3958 816.508 15.6094C816.831 15.8229 817.229 15.9297 817.703 15.9297C818.094 15.9297 818.427 15.8516 818.703 15.6953C818.984 15.5339 819.211 15.3125 819.383 15.0312C819.56 14.75 819.69 14.4245 819.773 14.0547C819.857 13.6849 819.898 13.2891 819.898 12.8672ZM824.75 8.54688V17H823.297V8.54688H824.75ZM823.188 6.30469C823.188 6.07031 823.258 5.8724 823.398 5.71094C823.544 5.54948 823.758 5.46875 824.039 5.46875C824.315 5.46875 824.526 5.54948 824.672 5.71094C824.823 5.8724 824.898 6.07031 824.898 6.30469C824.898 6.52865 824.823 6.72135 824.672 6.88281C824.526 7.03906 824.315 7.11719 824.039 7.11719C823.758 7.11719 823.544 7.03906 823.398 6.88281C823.258 6.72135 823.188 6.52865 823.188 6.30469ZM828.641 5V17H827.188V5H828.641ZM834.469 17.1562C833.88 17.1562 833.346 17.0573 832.867 16.8594C832.393 16.6562 831.984 16.3724 831.641 16.0078C831.302 15.6432 831.042 15.2109 830.859 14.7109C830.677 14.2109 830.586 13.6641 830.586 13.0703V12.7422C830.586 12.0547 830.688 11.4427 830.891 10.9062C831.094 10.3646 831.37 9.90625 831.719 9.53125C832.068 9.15625 832.464 8.8724 832.906 8.67969C833.349 8.48698 833.807 8.39062 834.281 8.39062C834.885 8.39062 835.406 8.49479 835.844 8.70312C836.286 8.91146 836.648 9.20312 836.93 9.57812C837.211 9.94792 837.419 10.3854 837.555 10.8906C837.69 11.3906 837.758 11.9375 837.758 12.5312V13.1797H831.445V12H836.312V11.8906C836.292 11.5156 836.214 11.151 836.078 10.7969C835.948 10.4427 835.74 10.151 835.453 9.92188C835.167 9.69271 834.776 9.57812 834.281 9.57812C833.953 9.57812 833.651 9.64844 833.375 9.78906C833.099 9.92448 832.862 10.1276 832.664 10.3984C832.466 10.6693 832.312 11 832.203 11.3906C832.094 11.7812 832.039 12.2318 832.039 12.7422V13.0703C832.039 13.4714 832.094 13.849 832.203 14.2031C832.318 14.5521 832.482 14.8594 832.695 15.125C832.914 15.3906 833.177 15.599 833.484 15.75C833.797 15.901 834.151 15.9766 834.547 15.9766C835.057 15.9766 835.49 15.8724 835.844 15.6641C836.198 15.4557 836.508 15.1771 836.773 14.8281L837.648 15.5234C837.466 15.7995 837.234 16.0625 836.953 16.3125C836.672 16.5625 836.326 16.7656 835.914 16.9219C835.508 17.0781 835.026 17.1562 834.469 17.1562Z" fill="#B9B9B9"/>
<path d="M1000.16 15.6953L1003.05 17.9844L1002.03 18.9219L999.188 16.6641L1000.16 15.6953ZM1003.01 10.9531V11.6719C1003.01 12.526 1002.9 13.2917 1002.69 13.9688C1002.47 14.6458 1002.17 15.2214 1001.77 15.6953C1001.36 16.1693 1000.88 16.5312 1000.32 16.7812C999.763 17.0312 999.138 17.1562 998.445 17.1562C997.773 17.1562 997.156 17.0312 996.594 16.7812C996.036 16.5312 995.552 16.1693 995.141 15.6953C994.734 15.2214 994.419 14.6458 994.195 13.9688C993.971 13.2917 993.859 12.526 993.859 11.6719V10.9531C993.859 10.099 993.969 9.33594 994.188 8.66406C994.411 7.98698 994.727 7.41146 995.133 6.9375C995.539 6.45833 996.021 6.09375 996.578 5.84375C997.141 5.59375 997.758 5.46875 998.43 5.46875C999.122 5.46875 999.75 5.59375 1000.31 5.84375C1000.88 6.09375 1001.36 6.45833 1001.76 6.9375C1002.16 7.41146 1002.47 7.98698 1002.68 8.66406C1002.9 9.33594 1003.01 10.099 1003.01 10.9531ZM1001.52 11.6719V10.9375C1001.52 10.2604 1001.45 9.66146 1001.3 9.14062C1001.17 8.61979 1000.97 8.18229 1000.7 7.82812C1000.44 7.47396 1000.11 7.20573 999.734 7.02344C999.354 6.84115 998.919 6.75 998.43 6.75C997.966 6.75 997.544 6.84115 997.164 7.02344C996.789 7.20573 996.466 7.47396 996.195 7.82812C995.924 8.18229 995.716 8.61979 995.57 9.14062C995.424 9.66146 995.352 10.2604 995.352 10.9375V11.6719C995.352 12.3542 995.424 12.9583 995.57 13.4844C995.716 14.0052 995.924 14.4453 996.195 14.8047C996.471 15.1589 996.799 15.4271 997.18 15.6094C997.56 15.7917 997.982 15.8828 998.445 15.8828C998.935 15.8828 999.37 15.7917 999.75 15.6094C1000.13 15.4271 1000.45 15.1589 1000.71 14.8047C1000.98 14.4453 1001.18 14.0052 1001.31 13.4844C1001.45 12.9583 1001.52 12.3542 1001.52 11.6719ZM1009.55 6.63281L1005.78 17H1004.24L1008.58 5.625H1009.57L1009.55 6.63281ZM1012.7 17L1008.93 6.63281L1008.91 5.625H1009.9L1014.25 17H1012.7ZM1012.51 12.7891V14.0234H1006.12V12.7891H1012.51Z" fill="#B9B9B9"/>
<path d="M1182.2 10.6875L1183.91 9.47656C1184.23 9.2526 1184.49 9.02865 1184.66 8.80469C1184.85 8.57552 1184.94 8.26302 1184.94 7.86719C1184.94 7.5599 1184.82 7.28125 1184.58 7.03125C1184.34 6.77604 1184 6.64844 1183.56 6.64844C1183.26 6.64844 1183.01 6.71875 1182.8 6.85938C1182.59 7 1182.43 7.1875 1182.33 7.42188C1182.22 7.65104 1182.17 7.90365 1182.17 8.17969C1182.17 8.41406 1182.23 8.65625 1182.34 8.90625C1182.46 9.15625 1182.62 9.41667 1182.82 9.6875C1183.02 9.95833 1183.26 10.2448 1183.52 10.5469L1188.9 17H1187.16L1182.75 11.7188C1182.36 11.2604 1182.01 10.8411 1181.7 10.4609C1181.4 10.0755 1181.15 9.70312 1180.98 9.34375C1180.8 8.98438 1180.72 8.61198 1180.72 8.22656C1180.72 7.63281 1180.84 7.13281 1181.07 6.72656C1181.31 6.3151 1181.64 6.0026 1182.07 5.78906C1182.5 5.57552 1183 5.46875 1183.57 5.46875C1184.13 5.46875 1184.61 5.58073 1185.01 5.80469C1185.41 6.02344 1185.73 6.3151 1185.95 6.67969C1186.16 7.03906 1186.27 7.4349 1186.27 7.86719C1186.27 8.23177 1186.21 8.5599 1186.08 8.85156C1185.95 9.13802 1185.77 9.40104 1185.53 9.64062C1185.3 9.88021 1185.03 10.1146 1184.73 10.3438L1182.47 12.0234C1182.09 12.2995 1181.82 12.5625 1181.65 12.8125C1181.48 13.0625 1181.36 13.2839 1181.31 13.4766C1181.27 13.6693 1181.24 13.8229 1181.24 13.9375C1181.24 14.3073 1181.32 14.6458 1181.48 14.9531C1181.65 15.2604 1181.89 15.5078 1182.22 15.6953C1182.55 15.8776 1182.97 15.9688 1183.47 15.9688C1183.91 15.9688 1184.33 15.8698 1184.74 15.6719C1185.16 15.4688 1185.53 15.1823 1185.86 14.8125C1186.19 14.4375 1186.45 13.9922 1186.64 13.4766C1186.84 12.9557 1186.94 12.3802 1186.94 11.75H1188.23C1188.23 12.2656 1188.18 12.7526 1188.09 13.2109C1187.99 13.6693 1187.83 14.0964 1187.62 14.4922C1187.42 14.8828 1187.16 15.2396 1186.84 15.5625C1186.8 15.6094 1186.76 15.6641 1186.73 15.7266C1186.71 15.7891 1186.67 15.8438 1186.62 15.8906C1186.23 16.3125 1185.75 16.6302 1185.18 16.8438C1184.61 17.0521 1184.04 17.1562 1183.47 17.1562C1182.71 17.1562 1182.06 17.0182 1181.51 16.7422C1180.96 16.4661 1180.54 16.0859 1180.24 15.6016C1179.95 15.1172 1179.8 14.5625 1179.8 13.9375C1179.8 13.4583 1179.9 13.0365 1180.1 12.6719C1180.31 12.3073 1180.59 11.9661 1180.95 11.6484C1181.32 11.3307 1181.73 11.0104 1182.2 10.6875Z" fill="#B9B9B9"/>
<path d="M1199.54 10.2266V17H1198.09V8.54688H1199.46L1199.54 10.2266ZM1199.24 12.4531L1198.57 12.4297C1198.58 11.8516 1198.65 11.3177 1198.8 10.8281C1198.94 10.3333 1199.16 9.90365 1199.45 9.53906C1199.73 9.17448 1200.09 8.89323 1200.52 8.69531C1200.94 8.49219 1201.44 8.39062 1202 8.39062C1202.4 8.39062 1202.76 8.44792 1203.09 8.5625C1203.43 8.67188 1203.72 8.84635 1203.96 9.08594C1204.21 9.32552 1204.4 9.63281 1204.53 10.0078C1204.67 10.3828 1204.73 10.8359 1204.73 11.3672V17H1203.29V11.4375C1203.29 10.9948 1203.21 10.6406 1203.06 10.375C1202.92 10.1094 1202.71 9.91667 1202.44 9.79688C1202.17 9.67188 1201.85 9.60938 1201.48 9.60938C1201.06 9.60938 1200.7 9.6849 1200.41 9.83594C1200.13 9.98698 1199.9 10.1953 1199.73 10.4609C1199.55 10.7266 1199.43 11.0312 1199.35 11.375C1199.28 11.7135 1199.24 12.0729 1199.24 12.4531ZM1204.72 11.6562L1203.75 11.9531C1203.76 11.4896 1203.83 11.0443 1203.98 10.6172C1204.13 10.1901 1204.34 9.8099 1204.62 9.47656C1204.91 9.14323 1205.26 8.88021 1205.68 8.6875C1206.1 8.48958 1206.57 8.39062 1207.11 8.39062C1207.56 8.39062 1207.96 8.45052 1208.31 8.57031C1208.67 8.6901 1208.96 8.875 1209.2 9.125C1209.45 9.36979 1209.63 9.6849 1209.76 10.0703C1209.88 10.4557 1209.95 10.9141 1209.95 11.4453V17H1208.49V11.4297C1208.49 10.9557 1208.42 10.5885 1208.27 10.3281C1208.12 10.0625 1207.91 9.8776 1207.64 9.77344C1207.38 9.66406 1207.06 9.60938 1206.69 9.60938C1206.37 9.60938 1206.09 9.66406 1205.84 9.77344C1205.6 9.88281 1205.39 10.0339 1205.23 10.2266C1205.06 10.4141 1204.93 10.6302 1204.84 10.875C1204.76 11.1198 1204.72 11.3802 1204.72 11.6562ZM1211.75 12.8672V12.6875C1211.75 12.0781 1211.84 11.513 1212.02 10.9922C1212.19 10.4661 1212.45 10.0104 1212.78 9.625C1213.11 9.23438 1213.52 8.93229 1213.99 8.71875C1214.47 8.5 1215 8.39062 1215.59 8.39062C1216.18 8.39062 1216.71 8.5 1217.19 8.71875C1217.67 8.93229 1218.07 9.23438 1218.41 9.625C1218.74 10.0104 1219 10.4661 1219.18 10.9922C1219.36 11.513 1219.45 12.0781 1219.45 12.6875V12.8672C1219.45 13.4766 1219.36 14.0417 1219.18 14.5625C1219 15.0833 1218.74 15.5391 1218.41 15.9297C1218.07 16.3151 1217.67 16.6172 1217.2 16.8359C1216.73 17.0495 1216.2 17.1562 1215.6 17.1562C1215.01 17.1562 1214.47 17.0495 1214 16.8359C1213.53 16.6172 1213.12 16.3151 1212.78 15.9297C1212.45 15.5391 1212.19 15.0833 1212.02 14.5625C1211.84 14.0417 1211.75 13.4766 1211.75 12.8672ZM1213.2 12.6875V12.8672C1213.2 13.2891 1213.24 13.6875 1213.34 14.0625C1213.44 14.4323 1213.59 14.7604 1213.79 15.0469C1213.99 15.3333 1214.24 15.5599 1214.55 15.7266C1214.85 15.888 1215.2 15.9688 1215.6 15.9688C1216 15.9688 1216.34 15.888 1216.64 15.7266C1216.94 15.5599 1217.19 15.3333 1217.39 15.0469C1217.59 14.7604 1217.74 14.4323 1217.84 14.0625C1217.94 13.6875 1217.99 13.2891 1217.99 12.8672V12.6875C1217.99 12.2708 1217.94 11.8776 1217.84 11.5078C1217.74 11.1328 1217.59 10.8021 1217.38 10.5156C1217.18 10.224 1216.93 9.99479 1216.63 9.82812C1216.34 9.66146 1215.99 9.57812 1215.59 9.57812C1215.19 9.57812 1214.84 9.66146 1214.54 9.82812C1214.24 9.99479 1213.99 10.224 1213.79 10.5156C1213.59 10.8021 1213.44 11.1328 1213.34 11.5078C1213.24 11.8776 1213.2 12.2708 1213.2 12.6875ZM1222.7 9.875V17H1221.26V8.54688H1222.66L1222.7 9.875ZM1225.34 8.5L1225.34 9.84375C1225.22 9.81771 1225.1 9.80208 1224.99 9.79688C1224.89 9.78646 1224.77 9.78125 1224.63 9.78125C1224.3 9.78125 1224.01 9.83333 1223.75 9.9375C1223.49 10.0417 1223.28 10.1875 1223.1 10.375C1222.92 10.5625 1222.78 10.7865 1222.68 11.0469C1222.58 11.3021 1222.52 11.5833 1222.48 11.8906L1222.08 12.125C1222.08 11.6146 1222.13 11.1354 1222.23 10.6875C1222.33 10.2396 1222.49 9.84375 1222.7 9.5C1222.92 9.15104 1223.19 8.88021 1223.52 8.6875C1223.85 8.48958 1224.24 8.39062 1224.7 8.39062C1224.81 8.39062 1224.93 8.40365 1225.06 8.42969C1225.2 8.45052 1225.29 8.47396 1225.34 8.5ZM1230.03 17.1562C1229.44 17.1562 1228.91 17.0573 1228.43 16.8594C1227.96 16.6562 1227.55 16.3724 1227.2 16.0078C1226.86 15.6432 1226.6 15.2109 1226.42 14.7109C1226.24 14.2109 1226.15 13.6641 1226.15 13.0703V12.7422C1226.15 12.0547 1226.25 11.4427 1226.45 10.9062C1226.66 10.3646 1226.93 9.90625 1227.28 9.53125C1227.63 9.15625 1228.03 8.8724 1228.47 8.67969C1228.91 8.48698 1229.37 8.39062 1229.84 8.39062C1230.45 8.39062 1230.97 8.49479 1231.41 8.70312C1231.85 8.91146 1232.21 9.20312 1232.49 9.57812C1232.77 9.94792 1232.98 10.3854 1233.12 10.8906C1233.25 11.3906 1233.32 11.9375 1233.32 12.5312V13.1797H1227.01V12H1231.88V11.8906C1231.85 11.5156 1231.78 11.151 1231.64 10.7969C1231.51 10.4427 1231.3 10.151 1231.02 9.92188C1230.73 9.69271 1230.34 9.57812 1229.84 9.57812C1229.52 9.57812 1229.21 9.64844 1228.94 9.78906C1228.66 9.92448 1228.42 10.1276 1228.23 10.3984C1228.03 10.6693 1227.88 11 1227.77 11.3906C1227.66 11.7812 1227.6 12.2318 1227.6 12.7422V13.0703C1227.6 13.4714 1227.66 13.849 1227.77 14.2031C1227.88 14.5521 1228.04 14.8594 1228.26 15.125C1228.48 15.3906 1228.74 15.599 1229.05 15.75C1229.36 15.901 1229.71 15.9766 1230.11 15.9766C1230.62 15.9766 1231.05 15.8724 1231.41 15.6641C1231.76 15.4557 1232.07 15.1771 1232.34 14.8281L1233.21 15.5234C1233.03 15.7995 1232.8 16.0625 1232.52 16.3125C1232.23 16.5625 1231.89 16.7656 1231.48 16.9219C1231.07 17.0781 1230.59 17.1562 1230.03 17.1562Z" fill="#B9B9B9"/>
</svg>
