<svg width="542" height="199" viewBox="0 0 542 199" fill="none" xmlns="http://www.w3.org/2000/svg">
<path d="M321.909 197.997V1M271.239 1V197.997V1ZM271.239 1H254.349H271.239ZM271.239 1H288.129H271.239ZM271.239 197.997H254.349H271.239ZM271.239 197.997H288.129H271.239ZM136.12 1V197.997V1ZM136.12 1H153.01H136.12ZM136.12 1H119.23H136.12ZM136.12 197.997H153.01H136.12ZM136.12 197.997H119.23H136.12ZM203.68 1V197.997V1ZM203.68 1H220.57H203.68ZM203.68 1H186.79H203.68ZM203.68 197.997H220.57H203.68ZM203.68 197.997H186.79H203.68ZM169.9 1V197.997V1ZM169.9 1H186.79H169.9ZM169.9 1H153.01H169.9ZM169.9 197.997H186.79H169.9ZM169.9 197.997H153.01H169.9ZM237.459 1V197.997V1ZM237.459 1H220.57H237.459ZM237.459 1H254.349H237.459ZM237.459 197.997H220.57H237.459ZM237.459 197.997H254.349H237.459ZM220.57 1V197.997V1ZM254.349 1V197.997V1ZM186.79 197.997V1V197.997ZM153.01 1V197.997V1ZM68.56 197.997V1V197.997ZM68.56 197.997H85.45H68.56ZM68.56 197.997H51.67H68.56ZM68.56 1H85.45H68.56ZM68.56 1H51.67H68.56ZM102.34 1V197.997V1ZM102.34 1H119.23H102.34ZM102.34 1H85.45H102.34ZM102.34 197.997H119.23H102.34ZM102.34 197.997H85.45H102.34ZM119.23 197.997V1V197.997ZM85.45 1V197.997V1ZM34.78 197.997V1V197.997ZM34.78 197.997H17.89H34.78ZM34.78 197.997H51.67H34.78ZM34.78 1H17.89H34.78ZM34.78 1H51.67H34.78ZM17.89 1H1V197.997H17.89V1ZM17.89 1V197.997V1ZM51.67 197.997V1V197.997ZM406.359 1V197.997V1ZM406.359 1H423.249H406.359ZM406.359 1H389.469H406.359ZM406.359 197.997H423.249H406.359ZM406.359 197.997H389.469H406.359ZM473.919 1V197.997V1ZM473.919 1H490.809H473.919ZM473.919 1H457.029H473.919ZM473.919 197.997H490.809H473.919ZM473.919 197.997H457.029H473.919ZM440.139 1V197.997V1ZM440.139 1H457.029H440.139ZM440.139 1H423.249H440.139ZM440.139 197.997H457.029H440.139ZM440.139 197.997H423.249H440.139ZM507.699 1V197.997V1ZM507.699 1H490.809H507.699ZM507.699 1H524.589H507.699ZM507.699 1H465.474H423.249H507.699ZM507.699 197.997H490.809H507.699ZM507.699 197.997H524.589H507.699ZM490.809 1V197.997V1ZM524.589 1H541.479V197.997H524.589V1ZM524.589 1V197.997V1ZM457.029 197.997V1V197.997ZM423.249 1V197.997V1ZM338.799 197.997V1V197.997ZM338.799 197.997H355.689H338.799ZM338.799 197.997H321.909H338.799ZM338.799 1H355.689H338.799ZM338.799 1H321.909H338.799ZM372.579 1V197.997V1ZM372.579 1H389.469H372.579ZM372.579 1H355.689H372.579ZM372.579 197.997H389.469H372.579ZM372.579 197.997H355.689H372.579ZM389.469 197.997V1V197.997ZM355.689 1V197.997V1ZM305.019 197.997V1V197.997ZM305.019 197.997H288.129H305.019ZM305.019 197.997H321.909H305.019ZM305.019 1H288.129H305.019ZM305.019 1H321.909H305.019ZM288.129 1V197.997V1Z" stroke="white" stroke-width="0.5"/>
<path d="M1 1V197.997H17.89H34.78H51.67H68.56H85.45H102.34H119.23H136.12H153.01H169.9H186.79H203.68H220.57H237.459H254.349H271.239H288.129H305.019H321.909H338.799H355.689H372.579H389.469H406.359H423.249H440.139H457.029H473.919H490.809H507.699H524.589H541.479V1H524.589H507.699H490.809H473.919H457.029H440.139H423.249H406.359H389.469H372.579H355.689H338.799H321.909H305.019H288.129H271.239H254.349H237.459H220.57H203.68H186.79H169.9H153.01H136.12H119.23H102.34H85.45H68.56H51.67H34.78H17.89H1Z" stroke="#FB6233"/>
<path d="M524.75 26.25H355.25V169.75H524.75V26.25Z" fill="#0D0D0D" stroke="#FF6F43" stroke-width="0.5"/>
<path d="M501.052 132.75L428.097 98.2923C427.911 98.2042 427.72 98.1267 427.528 98.0598C426.891 97.8389 426.223 97.7336 425.557 97.7446C424.862 97.7561 424.169 97.8939 423.511 98.1589L370.717 119.434C370.272 119.613 370.032 120.006 370.003 120.412L501.052 132.75ZM500.991 134.848L470.496 147.137L500.991 134.848ZM370.003 120.412C369.971 120.853 370.187 121.31 370.656 121.532L443.611 155.99C445.054 156.672 446.716 156.72 448.196 156.123L470.496 147.137L370.003 120.412ZM370.003 120.412V123.185V120.412ZM370.003 123.185C369.97 122.721 370.211 122.241 370.717 122.037L423.511 100.761C424.992 100.165 426.654 100.213 428.097 100.895L432.597 103.02L370.003 123.185ZM370.003 123.185C370.031 123.569 370.247 123.941 370.656 124.134L374.867 126.123L443.611 158.592C445.054 159.274 446.716 159.323 448.196 158.726L451.885 157.239L500.991 137.451C501.425 137.276 501.664 136.897 501.702 136.5C501.745 136.052 501.531 135.579 501.052 135.353L432.597 103.02L370.003 123.185ZM392.909 110.491L458.978 141.697L392.909 110.491ZM470.496 147.137L458.978 141.697L470.496 147.137ZM458.978 141.697L491.902 128.429L488.928 129.627L458.978 141.697ZM402.646 115.09L432.597 103.02L402.646 115.09ZM428.405 43.9663V88.0567C428.405 90.2717 429.682 92.2881 431.685 93.2341L496.913 124.043C497.673 124.402 498.547 123.848 498.547 123.007V78.917C498.547 76.702 497.27 74.6856 495.267 73.7396L430.039 42.9308C429.279 42.572 428.405 43.1261 428.405 43.9663Z" stroke="white" stroke-width="0.5" stroke-linecap="round" stroke-linejoin="round"/>
<path d="M428.004 35.1395C428.086 35.0949 428.174 35.0601 428.265 35.0364L428.004 35.1395ZM428.004 35.1395L425.832 35.9866L428.004 35.1395ZM428.004 35.1395L428.265 35.0364L428.004 35.1395ZM428.265 35.0364C428.511 34.9727 428.781 34.9895 429.039 35.1111L501.71 69.4357C503.713 70.3818 504.991 72.3981 504.991 74.6132V132.736C504.991 133.268 504.64 133.685 504.19 133.829L428.265 35.0364ZM504.19 133.829L501.704 134.85C501.935 134.74 502.326 134.427 502.442 134.191C502.515 134.041 502.558 133.87 502.558 133.686V75.5634C502.558 73.3483 501.28 71.332 499.277 70.386L426.605 36.0613C426.577 36.048 426.549 36.036 426.521 36.0252C425.782 35.7438 424.971 36.2876 424.971 37.0968V95.2193C424.971 96.1131 425.179 96.9744 425.559 97.7462L504.19 133.829ZM504.19 133.829L504.335 133.771L504.19 133.829ZM370.005 120.414C370.034 120.007 370.274 119.615 370.719 119.436L423.513 98.1604C424.171 97.8954 424.864 97.7577 425.559 97.7462L370.005 120.414ZM370.005 120.414C369.973 120.854 370.189 121.312 370.658 121.533L443.613 155.992C445.056 156.673 446.718 156.722 448.198 156.125L455.609 153.139L470.498 147.139L500.993 134.85C501.427 134.675 501.666 134.296 501.704 133.9L370.005 120.414ZM370.005 120.414V123.186C370.033 123.57 370.249 123.943 370.658 124.136L443.613 158.594C445.056 159.276 446.718 159.324 448.198 158.728L500.993 137.452C501.427 137.277 501.666 136.899 501.704 136.502V133.9L370.005 120.414ZM501.704 133.9C501.747 133.451 501.533 132.979 501.054 132.752L491.904 128.43L435.29 101.655L428.099 98.2939C427.297 97.9151 426.427 97.7318 425.559 97.7462L501.704 133.9ZM411.335 122.599L396.017 128.773C395.27 129.074 395.24 130.119 395.967 130.463L421.624 142.581C422.786 143.13 424.126 143.169 425.318 142.689L440.637 136.515C441.384 136.215 441.414 135.169 440.686 134.825L415.03 122.707C413.867 122.158 412.528 122.119 411.335 122.599Z" stroke="white" stroke-width="0.5" stroke-linecap="round" stroke-linejoin="round"/>
<path fill-rule="evenodd" clip-rule="evenodd" d="M464.16 83.3868L473.542 77.9701L471.694 74.7689L462.312 80.1856V70.4186L459.698 68.9095V78.6765L450.316 62.425L448.468 63.4919L457.85 79.7435L449.392 74.8596V77.8776L457.85 82.7614L448.468 88.1782L450.317 91.3793L459.699 85.9626V95.7296L462.313 97.2388L462.312 87.4715L471.695 103.723L473.543 102.656L464.16 86.4047L472.619 91.2885L472.618 88.2705L464.16 83.3868Z" stroke="#FB6233" stroke-width="0.5" stroke-linecap="round" stroke-linejoin="round"/>
</svg>
