<svg width="544" height="200" viewBox="0 0 544 200" fill="none" xmlns="http://www.w3.org/2000/svg">
<path d="M221.233 199.092V1M272.056 1V199.092V1ZM272.056 1H288.997H272.056ZM272.056 1H255.115H272.056ZM272.056 199.092H288.997H272.056ZM272.056 199.092H255.115H272.056ZM407.584 1V199.092V1ZM407.584 1H390.643H407.584ZM407.584 1H424.525H407.584ZM407.584 199.092H390.643H407.584ZM407.584 199.092H424.525H407.584ZM339.82 1V199.092V1ZM339.82 1H322.879H339.82ZM339.82 1H356.761H339.82ZM339.82 199.092H322.879H339.82ZM339.82 199.092H356.761H339.82ZM373.702 1V199.092V1ZM373.702 1H356.761H373.702ZM373.702 1H390.643H373.702ZM373.702 199.092H356.761H373.702ZM373.702 199.092H390.643H373.702ZM305.938 1V199.092V1ZM305.938 1H322.879H305.938ZM305.938 1H288.997H305.938ZM305.938 199.092H322.879H305.938ZM305.938 199.092H288.997H305.938ZM322.879 1V199.092V1ZM288.997 1V199.092V1ZM356.761 199.092V1V199.092ZM390.643 1V199.092V1ZM475.347 199.092V1V199.092ZM475.347 199.092H458.406H475.347ZM475.347 199.092H492.288H475.347ZM475.347 1H458.406H475.347ZM475.347 1H492.288H475.347ZM441.465 1V199.092V1ZM441.465 1H424.525H441.465ZM441.465 1H458.406H441.465ZM441.465 199.092H424.525H441.465ZM441.465 199.092H458.406H441.465ZM424.525 199.092V1V199.092ZM458.406 1V199.092V1ZM509.229 199.092V1V199.092ZM509.229 199.092H526.17H509.229ZM509.229 199.092H492.288H509.229ZM509.229 1H526.17H509.229ZM509.229 1H492.288H509.229ZM526.17 1H543.111V199.092H526.17V1ZM526.17 1V199.092V1ZM492.288 199.092V1V199.092ZM136.528 1V199.092V1ZM136.528 1H119.587H136.528ZM136.528 1H153.469H136.528ZM136.528 199.092H119.587H136.528ZM136.528 199.092H153.469H136.528ZM68.764 1V199.092V1ZM68.764 1H51.823H68.764ZM68.764 1H85.705H68.764ZM68.764 199.092H51.823H68.764ZM68.764 199.092H85.705H68.764ZM102.646 1V199.092V1ZM102.646 1H85.705H102.646ZM102.646 1H119.587H102.646ZM102.646 199.092H85.705H102.646ZM102.646 199.092H119.587H102.646ZM34.882 1V199.092V1ZM34.882 1H51.823H34.882ZM34.882 1H17.941H34.882ZM34.882 1H77.235H119.587H34.882ZM34.882 199.092H51.823H34.882ZM34.882 199.092H17.941H34.882ZM51.823 1V199.092V1ZM17.941 1H1V199.092H17.941V1ZM17.941 1V199.092V1ZM85.705 199.092V1V199.092ZM119.587 1V199.092V1ZM204.292 199.092V1V199.092ZM204.292 199.092H187.351H204.292ZM204.292 199.092H221.233H204.292ZM204.292 1H187.351H204.292ZM204.292 1H221.233H204.292ZM170.41 1V199.092V1ZM170.41 1H153.469H170.41ZM170.41 1H187.351H170.41ZM170.41 199.092H153.469H170.41ZM170.41 199.092H187.351H170.41ZM153.469 199.092V1V199.092ZM187.351 1V199.092V1ZM238.174 199.092V1V199.092ZM238.174 199.092H255.115H238.174ZM238.174 199.092H221.233H238.174ZM238.174 1H255.115H238.174ZM238.174 1H221.233H238.174ZM255.115 1V199.092V1Z" stroke="white" stroke-width="0.5"/>
<path d="M543 1.5V199H528.75H514.5H500.25H486H471.75H457.5H443.25H429H414.75H400.5H386.25H372H357.75H343.5H329.25H315H300.75H286.5H272.25H258H243.75H229.5H215.25H201H186.75H172.5H158.25H144H129.75H115.5H101.25H87" stroke="#FB6233" stroke-width="1.3"/>
<path d="M387.65 18.65H532.35V182.35H387.65V18.65Z" fill="#0D0D0D" stroke="#FF6F43" stroke-width="1.3"/>
<path d="M472.151 59.947L476.434 61.223L473.93 71.611L472.151 59.947ZM472.151 59.947L474.655 49.558L472.151 59.947ZM472.151 59.947L463.584 57.395L472.151 59.947ZM463.584 57.395L459.301 56.119L450.537 92.48L453.652 93.408L463.584 57.395ZM463.584 57.395L466.088 47.006L463.584 57.395ZM466.088 47.006L474.655 49.558L466.088 47.006ZM466.088 47.006L463.363 46.194L464.615 41L478.632 45.175L477.38 50.37L474.655 49.558L466.088 47.006ZM464.555 96.655L467.67 97.583L471.843 80.269L464.555 96.655ZM464.555 96.655L462.051 107.044L464.555 96.655ZM464.555 96.655L453.652 93.408L464.555 96.655ZM462.051 107.044L460.799 112.239L449.896 108.991L451.148 103.797L462.051 107.044ZM462.051 107.044L451.148 103.797L462.051 107.044ZM453.652 93.408L451.148 103.797L453.652 93.408ZM473.93 71.611L484.832 74.859C491.714 76.909 495.798 84.772 493.954 92.422L486.107 124.978L473.93 71.611ZM473.93 71.611L471.843 80.269L473.93 71.611ZM471.843 80.269L476.516 81.661C481.677 83.198 484.74 89.095 483.357 94.833L476.762 122.195L471.843 80.269ZM469.92 129.802C471.303 124.064 476.608 120.659 481.769 122.197C486.93 123.734 489.993 129.632 488.61 135.369C487.683 139.215 484.995 142.012 481.769 142.976L469.92 129.802ZM469.92 129.802L438.77 120.523L469.92 129.802ZM469.92 129.802C468.993 133.647 470.063 137.564 472.424 140.193L469.92 129.802ZM472.424 140.193C473.585 141.486 475.059 142.467 476.761 142.974C478.463 143.481 480.181 143.451 481.769 142.976L472.424 140.193ZM472.424 140.193L470.837 146.777L435.014 136.106L430.827 150.284L472.424 140.193ZM478.632 150.284L481.769 142.976L478.632 150.284ZM449.896 118.315L432.841 101.26H412.904L449.896 118.315ZM484.832 64.877L489.762 59.947H505L484.832 64.877ZM505 159.246H416.315V150.284H505V159.246Z" stroke="#FB6233" stroke-width="0.450955"/>
<path d="M469.92 129.802L438.77 120.523L469.92 129.802ZM450.537 92.48L459.301 56.119L463.584 57.395L472.15 59.947L476.433 61.223L473.929 71.611L471.843 80.269L467.669 97.583L464.554 96.655L453.652 93.408L450.537 92.48ZM466.088 47.006L474.654 49.558L477.38 50.37L478.632 45.175L464.614 41L463.362 46.194L466.088 47.006ZM505 150.15V159.246H416.315V150.15H505Z" stroke="white"/>
<path d="M507.412 173H522V157.884M412.588 31H398V46.116L412.588 31ZM412.588 173H398V157.884L412.588 173ZM507.412 31H522V46.116L507.412 31Z" stroke="white"/>
</svg>
