<svg width="542" height="199" viewBox="0 0 542 199" fill="none" xmlns="http://www.w3.org/2000/svg">
<path d="M321.909 197.997V1M271.239 1V197.997V1ZM271.239 1H254.349H271.239ZM271.239 1H288.129H271.239ZM271.239 197.997H254.349H271.239ZM271.239 197.997H288.129H271.239ZM136.12 1V197.997V1ZM136.12 1H153.01H136.12ZM136.12 1H119.23H136.12ZM136.12 197.997H153.01H136.12ZM136.12 197.997H119.23H136.12ZM203.68 1V197.997V1ZM203.68 1H220.569H203.68ZM203.68 1H186.79H203.68ZM203.68 197.997H220.569H203.68ZM203.68 197.997H186.79H203.68ZM169.9 1V197.997V1ZM169.9 1H186.79H169.9ZM169.9 1H153.01H169.9ZM169.9 197.997H186.79H169.9ZM169.9 197.997H153.01H169.9ZM237.459 1V197.997V1ZM237.459 1H220.569H237.459ZM237.459 1H254.349H237.459ZM237.459 197.997H220.569H237.459ZM237.459 197.997H254.349H237.459ZM220.569 1V197.997V1ZM254.349 1V197.997V1ZM186.79 197.997V1V197.997ZM153.01 1V197.997V1ZM68.56 197.997V1V197.997ZM68.56 197.997H85.45H68.56ZM68.56 197.997H51.67H68.56ZM68.56 1H85.45H68.56ZM68.56 1H51.67H68.56ZM102.34 1V197.997V1ZM102.34 1H119.23H102.34ZM102.34 1H85.45H102.34ZM102.34 197.997H119.23H102.34ZM102.34 197.997H85.45H102.34ZM119.23 197.997V1V197.997ZM85.45 1V197.997V1ZM34.78 197.997V1V197.997ZM34.78 197.997H17.89H34.78ZM34.78 197.997H51.67H34.78ZM34.78 1H17.89H34.78ZM34.78 1H51.67H34.78ZM17.89 1H1V197.997H17.89V1ZM17.89 1V197.997V1ZM51.67 197.997V1V197.997ZM406.359 1V197.997V1ZM406.359 1H423.249H406.359ZM406.359 1H389.469H406.359ZM406.359 197.997H423.249H406.359ZM406.359 197.997H389.469H406.359ZM473.919 1V197.997V1ZM473.919 1H490.809H473.919ZM473.919 1H457.029H473.919ZM473.919 197.997H490.809H473.919ZM473.919 197.997H457.029H473.919ZM440.139 1V197.997V1ZM440.139 1H457.029H440.139ZM440.139 1H423.249H440.139ZM440.139 197.997H457.029H440.139ZM440.139 197.997H423.249H440.139ZM507.699 1V197.997V1ZM507.699 1H490.809H507.699ZM507.699 1H524.589H507.699ZM507.699 1H465.474H423.249H507.699ZM507.699 197.997H490.809H507.699ZM507.699 197.997H524.589H507.699ZM490.809 1V197.997V1ZM524.589 1H541.479V197.997H524.589V1ZM524.589 1V197.997V1ZM457.029 197.997V1V197.997ZM423.249 1V197.997V1ZM338.799 197.997V1V197.997ZM338.799 197.997H355.689H338.799ZM338.799 197.997H321.909H338.799ZM338.799 1H355.689H338.799ZM338.799 1H321.909H338.799ZM372.579 1V197.997V1ZM372.579 1H389.469H372.579ZM372.579 1H355.689H372.579ZM372.579 197.997H389.469H372.579ZM372.579 197.997H355.689H372.579ZM389.469 197.997V1V197.997ZM355.689 1V197.997V1ZM305.019 197.997V1V197.997ZM305.019 197.997H288.129H305.019ZM305.019 197.997H321.909H305.019ZM305.019 1H288.129H305.019ZM305.019 1H321.909H305.019ZM288.129 1V197.997V1Z" stroke="white" stroke-width="0.5"/>
<path d="M1 1V197.997H17.89H34.78H51.67H68.56H85.45H102.34H119.23H136.12H153.01H169.9H186.79H203.68H220.569H237.459H254.349H271.239H288.129H305.019H321.909H338.799H355.689H372.579H389.469H406.359H423.249H440.139H457.029H473.919H490.809H507.699H524.589H541.479V1H524.589H507.699H490.809H473.919H457.029H440.139H423.249H406.359H389.469H372.579H355.689H338.799H321.909H305.019H288.129H271.239H254.349H237.459H220.569H203.68H186.79H169.9H153.01H136.12H119.23H102.34H85.45H68.56H51.67H34.78H17.89H1Z" stroke="#FB6233"/>
<path d="M526.75 51.25H389.25V146.75H526.75V51.25Z" fill="#0D0D0D" stroke="#FF6F43" stroke-width="0.5"/>
<path d="M469.444 107.973C470.089 108.245 471.115 108.404 472.674 108.432M479 102.159C479 100.544 477.844 97.178 472.674 95.455C466.213 93.301 464.059 87.916 461.905 81.455C459.751 74.993 458.136 72.301 455.444 69.609C452.751 66.916 447.367 60.993 446.828 63.686C446.592 64.868 447.589 66.971 448.982 69.013L479 102.159ZM454.906 78.763C447.367 77.147 447.905 73.916 452.751 73.378C452.406 73.079 452.044 72.732 451.678 72.35L454.906 78.763ZM454.906 78.763C442.337 80.985 432.831 82.532 422.062 80.756L454.906 78.763ZM454.906 78.763C451.752 81.051 450.553 82.514 455.444 85.052L454.906 78.763ZM463.521 94.916C460.63 94.175 458.815 92.716 457.916 91.147L463.521 94.916ZM463.521 94.916C457.062 100.84 448.982 105.686 441.665 105.686L463.521 94.916ZM463.521 94.916C461.526 98.15 461.002 100.193 464.601 102.159L463.521 94.916ZM469.444 104.07C467.344 103.417 465.759 102.792 464.601 102.159L469.444 104.07ZM469.444 104.07C463.521 112.686 458.136 120.224 451.678 123.609L469.444 104.07ZM469.444 104.07C468.615 105.902 467.83 107.293 469.444 107.973V104.07ZM475.231 108.432C474.194 108.483 473.438 108.446 472.674 108.432H475.231ZM448.982 69.013C434.982 65.404 407.2 62.024 418.831 70.686L448.982 69.013ZM448.982 69.013C449.801 70.212 450.756 71.391 451.678 72.35L448.982 69.013ZM418.831 70.686C425.293 73.916 438.839 73.12 451.678 72.35L418.831 70.686ZM418.831 70.686C413.833 72.795 415.789 76.679 422.062 80.756L418.831 70.686ZM438.754 95.455C428.52 95.302 426.006 92.378 428.717 87.916L438.754 95.455ZM438.754 95.455C446.316 94.65 450.505 93.591 457.916 91.147L438.754 95.455ZM438.754 95.455C434.112 99.286 435.233 102.813 441.665 105.686L438.754 95.455ZM451.678 123.609C446.169 122.981 444.385 119.801 446.828 117.002L451.678 123.609ZM451.678 123.609C450.353 128.428 452.278 130.446 459.55 129.378L451.678 123.609ZM466.216 126.147C466.216 126.147 464.964 132.221 466.754 133.686C469.068 135.578 471.462 128.84 471.462 128.84L466.216 126.147ZM466.216 126.147C464.309 130.868 460.293 133.147 459.55 129.378L466.216 126.147ZM466.216 126.147C468.649 119.103 470.091 115.265 472.674 108.432L466.216 126.147ZM422.062 80.756C418.881 83.71 421.445 86.158 428.717 87.916L422.062 80.756ZM428.717 87.916C437.623 90.07 447.37 87.916 455.444 85.052L428.717 87.916ZM455.444 85.052C456.193 85.441 457.086 85.855 458.136 86.301C457.053 87.475 456.903 89.381 457.916 91.147L455.444 85.052ZM441.665 105.686C438.23 109.637 438.773 113.62 446.828 117.002L441.665 105.686ZM446.828 117.002C451.678 117.002 461.905 107.301 464.601 102.159L446.828 117.002ZM459.55 129.378C464.685 121.073 466.756 116.382 469.444 107.973L459.55 129.378Z" stroke="white"/>
<path d="M482.833 74.196C487.166 73.041 491.612 75.571 492.764 79.847L494.712 87.079L495.115 88.577C496.803 95.121 496.602 97.966 490.607 97.966L490.433 104.873C490.433 104.873 502.029 122.271 499.688 128.871C497.347 135.471 471.386 134.025 470.951 127.311C470.516 120.598 472.538 111.461 480.339 101.587C480.339 101.587 482.617 99.708 481.46 95.714C480.48 92.33 478.01 86.291 477.279 84.527C477.141 84.194 477.019 83.856 476.949 83.504C476.135 79.398 478.677 75.304 482.833 74.196Z" stroke="white"/>
</svg>
