<svg width="544" height="200" viewBox="0 0 544 200" fill="none" xmlns="http://www.w3.org/2000/svg">
<path d="M221.233 198.592V1M272.055 1V198.592V1ZM272.055 1H288.996H272.055ZM272.055 1H255.114H272.055ZM272.055 198.592H288.996H272.055ZM272.055 198.592H255.114H272.055ZM407.583 1V198.592V1ZM407.583 1H390.642H407.583ZM407.583 1H424.524H407.583ZM407.583 198.592H390.642H407.583ZM407.583 198.592H424.524H407.583ZM339.819 1V198.592V1ZM339.819 1H322.878H339.819ZM339.819 1H356.76H339.819ZM339.819 198.592H322.878H339.819ZM339.819 198.592H356.76H339.819ZM373.701 1V198.592V1ZM373.701 1H356.76H373.701ZM373.701 1H390.642H373.701ZM373.701 198.592H356.76H373.701ZM373.701 198.592H390.642H373.701ZM305.937 1V198.592V1ZM305.937 1H322.878H305.937ZM305.937 1H288.996H305.937ZM305.937 198.592H322.878H305.937ZM305.937 198.592H288.996H305.937ZM322.878 1V198.592V1ZM288.996 1V198.592V1ZM356.76 198.592V1V198.592ZM390.642 1V198.592V1ZM475.347 198.592V1V198.592ZM475.347 198.592H458.406H475.347ZM475.347 198.592H492.288H475.347ZM475.347 1H458.406H475.347ZM475.347 1H492.288H475.347ZM441.465 1V198.592V1ZM441.465 1H424.524H441.465ZM441.465 1H458.406H441.465ZM441.465 198.592H424.524H441.465ZM441.465 198.592H458.406H441.465ZM424.524 198.592V1V198.592ZM458.406 1V198.592V1ZM509.229 198.592V1V198.592ZM509.229 198.592H526.17H509.229ZM509.229 198.592H492.288H509.229ZM509.229 1H526.17H509.229ZM509.229 1H492.288H509.229ZM526.17 1H543.111V198.592H526.17V1ZM526.17 1V198.592V1ZM492.288 198.592V1V198.592ZM136.528 1V198.592V1ZM136.528 1H119.587H136.528ZM136.528 1H153.469H136.528ZM136.528 198.592H119.587H136.528ZM136.528 198.592H153.469H136.528ZM68.764 1V198.592V1ZM68.764 1H51.823H68.764ZM68.764 1H85.705H68.764ZM68.764 198.592H51.823H68.764ZM68.764 198.592H85.705H68.764ZM102.646 1V198.592V1ZM102.646 1H85.705H102.646ZM102.646 1H119.587H102.646ZM102.646 198.592H85.705H102.646ZM102.646 198.592H119.587H102.646ZM34.882 1V198.592V1ZM34.882 1H51.823H34.882ZM34.882 1H17.941H34.882ZM34.882 1H77.234H119.587H34.882ZM34.882 198.592H51.823H34.882ZM34.882 198.592H17.941H34.882ZM51.823 1V198.592V1ZM17.941 1H1V198.592H17.941V1ZM17.941 1V198.592V1ZM85.705 198.592V1V198.592ZM119.587 1V198.592V1ZM204.292 198.592V1V198.592ZM204.292 198.592H187.351H204.292ZM204.292 198.592H221.233H204.292ZM204.292 1H187.351H204.292ZM204.292 1H221.233H204.292ZM170.41 1V198.592V1ZM170.41 1H153.469H170.41ZM170.41 1H187.351H170.41ZM170.41 198.592H153.469H170.41ZM170.41 198.592H187.351H170.41ZM153.469 198.592V1V198.592ZM187.351 1V198.592V1ZM238.174 198.592V1V198.592ZM238.174 198.592H255.114H238.174ZM238.174 198.592H221.233H238.174ZM238.174 1H255.114H238.174ZM238.174 1H221.233H238.174ZM255.114 1V198.592V1Z" stroke="white" stroke-width="0.5"/>
<path d="M543.111 1V198.592H526.17H509.229H492.288H475.347H458.406H441.465H424.524H407.583H390.642H373.701H356.76H339.819H322.878H305.937H288.996H272.055H255.114H238.174H221.233H204.292H187.351H170.41H153.469H136.528H119.587H102.646H85.705H68.764H51.823H34.882H17.941H1V1H17.941H34.882H51.823H68.764H85.705H102.646H119.587H136.528H153.469H170.41H187.351H204.292H221.233H238.174H255.114H272.055H288.996H305.937H322.878H339.819H356.76H373.701H390.642H407.583H424.524H441.465H458.406H475.347H492.288H509.229H526.17H543.111Z" stroke="#FB6233" stroke-width="1.3"/>
<path d="M386 18H528V182H386V18Z" fill="#0D0D0D" stroke="#FF6F43"/>
<path d="M398.5 56.5H419V60.5H403V77H398.5V56.5Z" stroke="#FF6F43" stroke-width="0.5"/>
<path d="M398.5 140.5H419V136.5H403V120H398.5V140.5Z" stroke="#FF6F43" stroke-width="0.5"/>
<path d="M515.5 56.5H495V60.5H511V77H515.5V56.5Z" stroke="#FF6F43" stroke-width="0.5"/>
<path d="M515.5 140.5H495V136.5H511V120H515.5V140.5Z" stroke="#FF6F43" stroke-width="0.5"/>
<path d="M457.25 100.5V119M441 100.5H457.25H441ZM473.5 100.5H465.375H457.25H473.5ZM457.25 100.5V82V100.5Z" stroke="white" stroke-width="0.5"/>
<path d="M507.5 177.5H523.5V161M406.5 22.5H390.5V39L406.5 22.5ZM406.5 177.5H390.5V161L406.5 177.5ZM507.5 22.5H523.5V39L507.5 22.5Z" stroke="white"/>
</svg>
